/* XPM */
static char *_3c30e6a61c0406ec9153d129ce7b945chNBgX11sAHlsYY4[] = {
/* columns rows colors chars-per-pixel */
"43 60 212 2 ",
"   c None",
".  c #151B1C",
"X  c #070607",
"o  c #25140E",
"O  c #2F140C",
"+  c #3C1A0E",
"@  c #37160B",
"#  c #231512",
"$  c #241914",
"%  c #241C19",
"&  c #291913",
"*  c #3B1D13",
"=  c #3B2217",
"-  c #151F20",
";  c #142D2E",
":  c #162020",
">  c #16312F",
",  c #132F30",
"<  c #153131",
"1  c #1A3B3C",
"2  c #173839",
"3  c #481D0F",
"4  c #552716",
"5  c #4D2410",
"6  c #652606",
"7  c #6E2703",
"8  c #6D2C0D",
"9  c #6B2704",
"0  c #712702",
"q  c #742A04",
"w  c #732D0B",
"e  c #7A2C09",
"r  c #7C310F",
"t  c #612810",
"y  c #742E12",
"u  c #7D3413",
"i  c #793617",
"p  c #4C3D30",
"a  c #7D3D21",
"s  c #7A4123",
"d  c #784C34",
"f  c #6D4634",
"g  c #1B3F42",
"h  c #2D6668",
"j  c #316A6C",
"k  c #316668",
"l  c #2D7272",
"z  c #377878",
"x  c #35706E",
"c  c #245352",
"v  c #48585B",
"b  c #664F41",
"n  c #665043",
"m  c #625F59",
"M  c #7B5C4B",
"N  c #7F614F",
"B  c #786759",
"V  c #4B5C62",
"C  c #496265",
"Z  c #556F76",
"A  c #59777D",
"S  c #57787C",
"D  c #746D64",
"F  c #6B7C7C",
"G  c #797168",
"H  c #82330E",
"J  c #823613",
"K  c #853915",
"L  c #8B3A15",
"P  c #843A19",
"I  c #8B3C1A",
"U  c #893613",
"Y  c #923F1A",
"T  c #8E401C",
"R  c #95421C",
"E  c #9C461C",
"W  c #9D481C",
"Q  c #A1481D",
"!  c #844624",
"~  c #8D4323",
"^  c #934523",
"/  c #954824",
"(  c #9D4923",
")  c #9C4E2C",
"_  c #984724",
"`  c #9D512D",
"'  c #97502C",
"]  c #9E5536",
"[  c #81553B",
"{  c #A54D23",
"}  c #A94D23",
"|  c #A24F2C",
" . c #A54B25",
".. c #AE5224",
"X. c #A3512E",
"o. c #AB512B",
"O. c #B05124",
"+. c #BE5B2D",
"@. c #B3562D",
"#. c #A45534",
"$. c #AC5A37",
"%. c #B55A33",
"&. c #B45E39",
"*. c #BA5C34",
"=. c #B4643F",
"-. c #BB623D",
";. c #C05B2E",
":. c #C05C31",
">. c #CD6735",
",. c #CE6A3B",
"<. c #C66539",
"1. c #D1693A",
"2. c #D26A37",
"3. c #985E47",
"4. c #9B6148",
"5. c #9A6245",
"6. c #85604E",
"7. c #B66644",
"8. c #BA6645",
"9. c #BB6945",
"0. c #BC6948",
"q. c #B86949",
"w. c #B66E51",
"e. c #B77457",
"r. c #B66D45",
"t. c #B87E62",
"y. c #C46B45",
"u. c #CB6D45",
"i. c #C66C48",
"p. c #CB6D48",
"a. c #D36F45",
"s. c #D16F48",
"d. c #CF7146",
"f. c #CD724B",
"g. c #C37044",
"h. c #D27246",
"j. c #DB7646",
"k. c #D37148",
"l. c #DB7549",
"z. c #DE7A49",
"x. c #CB7E5A",
"c. c #E27746",
"v. c #E47A47",
"b. c #EA7C46",
"n. c #E37A49",
"m. c #EA7C49",
"M. c #B68267",
"N. c #DF875B",
"B. c #CE805F",
"V. c #E18458",
"C. c #CC8769",
"Z. c #DF8C61",
"A. c #CC8E71",
"S. c #577B83",
"D. c #5B7B82",
"F. c #617E83",
"G. c #368585",
"H. c #458685",
"J. c #559698",
"K. c #57878C",
"L. c #6B888A",
"P. c #688E95",
"I. c #6D959D",
"U. c #6C999D",
"Y. c #649498",
"T. c #70959E",
"R. c #708E93",
"E. c #529DA1",
"W. c #4F9EA1",
"Q. c #6D96A1",
"!. c #659EA6",
"~. c #6A9BA3",
"^. c #659EA8",
"/. c #699FAA",
"(. c #7096A1",
"). c #4FA6A8",
"_. c #55A7AB",
"`. c #5FADB4",
"'. c #58B7B9",
"]. c #65A1A6",
"[. c #65A2AA",
"{. c #67A5A8",
"}. c #63ACB3",
"|. c #65AEB7",
" X c #61B6BD",
".X c #62B7BA",
"XX c #63B1AB",
"oX c #5EBDC1",
"OX c #61BCC2",
"+X c #5DC1C2",
"@X c #5CC5CA",
"#X c #54CDCD",
"$X c #5ACBCD",
"%X c #57C8C8",
"&X c #59CED1",
"*X c #4EDBDA",
"=X c #55D2D3",
"-X c #5AD2D3",
";X c #5BD5D9",
":X c #54DBDB",
">X c #5ADADC",
",X c #54D8D7",
"<X c #51D0CE",
"1X c #61C6CC",
"2X c #62C8CC",
"3X c #61CAD2",
"4X c #61D6DA",
"5X c #5BDAE1",
"6X c #5BE3E4",
"7X c #56E9E9",
"8X c #58EFF1",
"9X c #848A8C",
/* pixels */
"                                    ; ; ; ; ; ; ;                                     ",
"                              2 < G.,X#X&X=X&X&X,XG.< 2                               ",
"                          < z #X<X:X;X}.[.[.[.}.;X:X#X<Xz ;                           ",
"                      < l ,X'.[.].].@X3XI.I.I.1X@X[.[.[.'.,Xl ,                       ",
"                  ; h %X:X>X}.I.T.Q.'.'.D.K.D._.'.Q.I.I.[.>X:X#Xj <                   ",
"                l ,X+X[./. X2X!.D.F.v % $ $ $ % v D.D.Y.2X X[.[.oX,Xl                 ",
"              k -X:X}.I.I.Y.E.H.$ # + 6 6 6 6 6 3 # # z ).P.Q.I.}.>X;Xj               ",
"            j +X[.|.3X!.S.v % = 6 6 r L J J u J w 6 6 3 $ v S.!.3X|.[. Xx             ",
"          k  X~.I.I.`.H.$ + 6 w J e } l.7.7.7.7.^ H L w 6 + $ H.`.~.I.!.'.j           ",
"        2 #X'.I.I.I.C = 6 w J / y.| O.n.9.0.9.0.^ +.c.{ J w 6 = V I.I.I.|.#X1         ",
"        c ;X;X}.I.V * w L _ 7.7.y.o.O.n.9.9.9.9.^ ;.n.u.9._ U w * v I.}.-X>Xh         ",
"      2 %X[.}.+XC * 6 E v.y.9.9.p.o.O.n.9.9.9.9.^ +.l.u.u.u.u.R 6 * V OX}.[.$X1       ",
"      h @X~.U.S.$ 8 r E m.u.y.y.s.X.O.c.9.9.9.9.^ +.l.y.s.a.a.R U y $ S Q.~.@Xj       ",
"    1 $X].I.P.v @ P #.W m.s.p.y.u.) O.n.9.u.i.9.^ +.l.9.u.h.u.R <.E @ v P.I.!.-X1     ",
"    j @X X|.S.$ 8 / #.W n.y.u.y.u.) O.n.y.h.u.9.^ +.l.8.u.a.y.I >...8 & S.|. X$Xj     ",
"  < $X}.;X@XC + u 7.#.W n.y.u.u.u.) O.n.u.h.y.9.^ +.l.8.i.s.y.I >.d.P + V +X4X`.$X2   ",
"  < =X].~.D.$ 8 ^ 9.#.W c.y.p.u.i.) ..c.y.h.y.9.^ +.l.9.9.u.y.T >.h./ 8 $ S ~.!.-X2   ",
"  , =X[.I.D.o u 8.9.#.W n.9.y.u.0.) ..c.y.h.y.9.^ ;.l.8.9.u.y.R >.k.7.i o S Q.!.-X2   ",
"  h +X~.P.V * i 8.9.#.W n.9.y.u.0.) O.n.y.u.y.y.^ ;.l.9.9.u.h.R >.h.8.P + v P.~.+Xj   ",
", ,X%XOXE.% y  .9.9.#.W v.9.y.y.0.) ..n.u.u.y.y.^ ;.l.9.9.u.s.R >.h.8./ 8 $ J.OX@X:Xg ",
"< >X5X>X'.% I n.9.9.#.W v.9.9.9.0.) ..b.u.y.u.u.^ +.l.9.9.u.s.R >.k.8.7.u $ ).>X>X7X  ",
"< =X[.Q.S.# I n.y.9.#.W n.9.0.0.0.) ..m.u.9.u.p.^ :.l.9.9.i.p.R ,.k.0.7.u o S.U.].6X  ",
"< =X].Q.F.* u *.X.` ^ L %.` | | X.I R *.X.` X.#.K  .%.` ` ` ` J o.@.| ) r * A I.!.6X  ",
"< =X].R.B | } } } } } } } } } } } } } } } } } } } } } } } } } } } } } } } X.B R.!.6X  ",
"< ,X@X].! b.n.n.V.Z.n.n.n.n.V.N.n.n.n.n.n.V.N.c.n.n.n.n.V.N.c.v.n.n.Z.V.v.j.! U.@X8X  ",
"< :X;XXX! v.y.9.e.M.0.9.0.0.e.M.0.0.9.9.9.e.t.9.9.9.9.0.t.e.9.9.9.0.M.e.9.7.s {.;X8X  ",
"< =X[.L.M %.` ) ) ) ) ) ' ) ) ) ) ) ) ) ) ) ) ) ) ) ) ) ) ) ) ) ) ) ) ) ) ` M L.[.6X  ",
"< =X].I.L.4 7 0 0 7 0 0 0 7 7 0 0 0 0 7 7 7 0 0 0 0 7 0 0 7 0 0 0 0 0 0 7 4 F I.^.6X  ",
"< =X].Q.S.$ y  .^ ^ I J ..( ^ ^ ^ K L } _ ^ ^ ( K Y ( ^ ^ ^ ^ H W ( ( _ w o S I.^.6X  ",
"< ,X$X@X).$ I n.y.9.#.W m.k.i.0.0.) ..m.p.9.0.p.( *.l.9.0.9.9.R ,.h.p.y.J $ W.1X$X8X  ",
"> >X-X3X_.$ I v.9.9.#.W b.u.p.0.0.) ..b.u.y.0.u.( +.j.9.0.0.9.T >.j.u.u.J $ E.$X&X8X  ",
"> =X[.Q.S.# L v.7.3.#.W c.y.p.9.0.) ..v.u.u.9.s.( +.j.9.9.9.9.T >.c.u.u.K o A I.!.6X  ",
"> -X[.Q.D.# L h.N D d W n.y.u.y.9.) O.n.y.u.y.s._ +.j.9.y.9.9.T >.c.y.u.K o A I.].6X  ",
"< =X].I.S.# I 9.m 9Xp E c.9.u.u.9.) O.z.y.p.u.y.^ +.l.9.u.y.9.T >.c.y.y.K o S I.^.6X  ",
"> >X-X&X_.% I h.N D d E v.9.y.u.y.) ..n.y.u.a.u.^ +.l.8.u.y.9.T >.c.y.u.K $ ).&X;X8X  ",
"> ;X$X1X).% I b.5.b ] W c.9.9.u.u.) O.n.9.y.a.u.^ +.l.8.u.y.9.T >.c.u.u.K $ E.1X$X7X  ",
"< =X!.I.S.# I v.4.n ] E c.9.9.y.u.) ..n.9.y.a.u.^ +.l.8.u.y.9.T >.c.h.u.J o A I.!.6X  ",
"< =X].U.D.# P v.4.n ] E v.9.9.y.u.) ..n.9.y.a.u.^ +.l.9.u.y.9.I >.j.u.y.u o A U.].6X  ",
"< -X].I.D.# I v.4.n ] E c.9.9.y.s.| ..n.9.y.a.u.^ +.l.9.u.y.9.I >.h.p.y.u o A ~.[.6X  ",
"> :X>X;X_.% I v.4.b ] E v.9.9.9.p.o.O.n.9.y.a.u.^ +.l.y.s.p.9.I >.h.u.u.K $ _.;X;X7X  ",
"< ,X@XOXE.$ K h.N G f E n.9.9.9.i.o.O.n.9.y.a.u.^ ;.l.u.a.a.y.T >.h.u.u.K $ J.1X@X6X  ",
"> =X!.I.S.# L g.m 9Xp E c.9.9.9.i.o.O.n.9.i.a.u.^ ;.l.u.s.s.y.T >.h.u.y.J o A T.^.>X  ",
"> -X[.I.D.# I j.6.B d W v.9.9.9.i.o.O.n.9.0.y.y.^ ;.l.u.u.u.y.T >.h.u.y.u o S U./.>X  ",
"< =X[.U.D.# I v.7.3.#.W n.9.9.9.i.o.O.n.9.9.9.9.^ +.n.d.y.u.y.T >.h.y.9.u o S I.[.:X  ",
"; :X>X>X'.$ L v.y.0.#.W n.9.9.9.i.o.O.n.9.9.9.9.^ +.m.u.9.u.y.I >.h.9.8.J $ ).;X>X6Xg ",
"< ,X+XOXJ.$ P n.0.0.#.W n.9.9.9.i.o.O.n.9.9.9.9.^ +.m.y.9.p.u.R >.h.8.8.u $ J..X+X:X2 ",
"< =X!.I.D.$ I c.9.9.#.W n.9.8.y.u.| ..z.9.9.8.9.^ +.v.u.y.y.u.R >.h.9.8.u o A I.!.=X2 ",
"< =X].I.F 4 r E I I K H E I I I R J J E I I I I J L E R I I Y H Y R I I r 4 F I.].=X< ",
"< =X[.L.[ ,.2.2.2.,.2.1.,.2.,.,.2.2.2.2.2.,.,.2.1.1.2.,.,.,.2.2.2.,.,.2.2.,.[ L.[.=X< ",
"> :X6X.X! m.k.d.x.A.f.d.k.f.C.A.f.h.h.d.d.C.C.h.f.d.h.f.A.B.d.h.h.f.A.x.h.u.s XX6X*X; ",
"< ,XOXI.! j.9.8.q.e.8.8.8.7.w.e.7.8.8.8.7.w.w.7.8.8.8.7.e.w.7.7.7.8.e.q.8.7.s Y.oX,X, ",
"< -X].R.G ~ K K K K K K P K K K K P K K K K K K K K K K K K K K K K K J K a D R.~.=X, ",
"< &X].I.F.* 7 e q q 0 0 e q q q q 0 q e q q 0 0 0 q q q q q q 0 q q q q 7 * D.I.^.=X< ",
"< &X[.~.K.# J ,.-.*.) R u.$.&.&.$.^ { <.$.&.&.$.I ..<.&.&.&.$.L %.-.$.$.u # S.~.`.=X< ",
"; :X6X6X'.% I m.u.u.#.Q n.9.y.u.0.) ..n.y.s.s.i.^ :.l.y.u.u.y.I ,.k.9.8.J $ '.6X6X*X> ",
", ,X X|.J.$ I v.i.u.#.W n.9.y.u.9.) O.z.y.u.u.u.^ +.l.9.u.p.y.I >.h.8.8.u $ K.|.'.=X; ",
"< =X].I.S.# I v.i.s.%.W n.y.u.9.0.) ..c.u.i.y.u.^ +.l.8.i.i.9.I >.h.8.8.u o S I.].=X< ",
"< -X[.Q.D.# I v.y.u.%.Q m.u.u.9.0.) O.b.s.u.i.s.( +.l.9.9.9.9.Y >.h.8.8.u o A Q.[.=X< ",
"2 '.Y.L.Z # i j.-.=.X.~ j.y.=.=.7.' { j.y.-.-.y.^ @.s.7.=.=.7.P <.u.7.=.i # Z P.J.'.< ",
"  ; : . . X O u r u t 3 J u r u u 4 3 J J u u J 3 t J u u u u + t J u i @ X . . - ;   "
};
