/* XPM */
static char *_fc09673697e48b3d5b7caa5fcca08e1UWHTOcZLoxkF5AfM[] = {
/* columns rows colors chars-per-pixel */
"60 60 134 2 ",
"   c black",
".  c #CD6501",
"X  c #080102",
"o  c #0C0B0B",
"O  c #3A3A3A",
"+  c #070606",
"@  c #7B0839",
"#  c #010101",
"$  c #030202",
"%  c #040404",
"&  c #110F0F",
"*  c #0F0406",
"=  c #191717",
"-  c #090808",
";  c #1D1B1B",
":  c gray23",
">  c #292323",
",  c #0B0205",
"<  c #ED8702",
"1  c #383737",
"2  c #100C0C",
"3  c #181211",
"4  c #1A0309",
"5  c #2F2D2D",
"6  c #131313",
"7  c #2C2A29",
"8  c #201E1E",
"9  c #252424",
"0  c #241F1F",
"q  c #140406",
"w  c #33322F",
"e  c #FDD772",
"r  c #44081F",
"t  c gray20",
"y  c #250406",
"u  c #7E7977",
"i  c #261308",
"p  c #180D07",
"a  c #64082F",
"s  c #1F040E",
"d  c #282828",
"f  c #2B2217",
"g  c #47423E",
"h  c #350709",
"j  c #520827",
"k  c #270412",
"l  c #6E0934",
"z  c #211B13",
"x  c #45090B",
"c  c #645533",
"v  c #352A1C",
"b  c #C71111",
"n  c #B11112",
"m  c #330518",
"M  c #CA6403",
"N  c #4F422A",
"B  c #FFE68D",
"V  c #7C4109",
"C  c #FDDF82",
"Z  c #331A06",
"A  c #6D5C39",
"S  c #760938",
"D  c #D97103",
"F  c #E68004",
"G  c #A68C4E",
"H  c #BD5F08",
"J  c #534F47",
"K  c #8F7D51",
"L  c #663409",
"P  c #EB9B2C",
"I  c #5A092A",
"U  c #9B520B",
"Y  c #A39F79",
"T  c #660E10",
"R  c #5A0B0C",
"E  c #ED8A07",
"W  c #EB9218",
"Q  c #776741",
"!  c #5E5658",
"~  c #CDC591",
"^  c #594E36",
"/  c #D36C03",
"(  c #70696C",
")  c #7C693D",
"_  c #EED494",
"`  c #AF9453",
"'  c #FDEB9D",
"]  c #C7AA5F",
"[  c #403A37",
"{  c #4D0A0B",
"}  c #8A7543",
"|  c #710C0E",
" . c #FAEFCB",
".. c #FAF5E5",
"X. c #787253",
"o. c #592D0A",
"O. c #482D14",
"+. c #3D3421",
"@. c #E7C56B",
"#. c #99824A",
"$. c #AB5F0C",
"%. c #F3CC76",
"&. c #EBE1A1",
"*. c #EBA94B",
"=. c #880F10",
"-. c #7F0E10",
";. c #C21212",
":. c #FCFEFB",
">. c #CB7609",
",. c #D67C07",
"<. c #39071C",
"1. c #D6B96C",
"2. c #BBB689",
"3. c #B59B58",
"4. c #EBE6AD",
"5. c #4D0912",
"6. c #815F2E",
"7. c #918C8E",
"8. c #DED7A0",
"9. c #847246",
"0. c #A59664",
"q. c #6C0B0D",
"w. c #F0BE74",
"e. c #F5E1BD",
"r. c #B3680B",
"t. c #3E3628",
"y. c #6A1214",
"u. c #40341D",
"i. c #9E1112",
"p. c #981011",
"a. c #5E0D19",
"s. c #981112",
"d. c #006502",
"f. c #CD010B",
/* pixels */
"                                                                                                                        ",
"                                                                                                                        ",
"                                                                                                                        ",
"                                                                                                                        ",
"                                                                                                                        ",
"                                                                                                                        ",
"                                                                                                                        ",
"              # #                                                                                                       ",
"              X , #                                                                                                     ",
"              X , $                                                                                                     ",
"            # , * X                                                                                                     ",
"              q > * #               # # # # # # # # # # # $ #                                                           ",
"              * ! = X       # $ $ # # #     #   # # # # # $ $ % #                                                       ",
"              , ( J X # # # # # #   X 4 s s 4 k k k s * 4 y q X $ #                                                     ",
"              $ g u * X $ + - $ # # + k j <.4 r l S I q 4 x T x X $ #                                                   ",
"              X 2 u > X # 6 0 ; + + ; & * , + - s j r $ o - * q $ # # # $ # # #                                         ",
"                $ g ! , X = > > o - > > ; $ & 0 & * s % 8 > ; % + 2 + # $ # # # $ #                                     ",
"                # 3 u > X ; > > - o > > 8 $ = > 0 - $ % 0 > 0 + 2 > 8 + 6 = 6 2 % # $ #                                 ",
"                # X g ( , 3 7 5 & & 5 7 9 $ ; 7 5 6   % d 7 0 % & > 0 + = > > > 8 & + $ #                               ",
"        # $ $ # # $ * u g , 7 O 6 o 1 : d $ 9 O : 8   $ 7 1 7 % = w d + ; > > > 5 5 > o # #                             ",
"      # # # $ , * s 4 [ 7.3 3 1 = o 1 : 7 $ 9 : : 9 # # 7 : 7 $ 0 : 5 + ; > > w O O O 5 - #               % $           ",
"      # # s j I a l I q u ! , 7 > - t : 5 % 8 : : 7 $   A 0.^ % 9 : 5 % ; > w O O O O O 9 % #             $ %           ",
"      # # m @ @ @ @ S m > 7.0 f A - w g w + ; O : 5 % * f c N + [ J w + = 5 O O O O O O O = $ #             $ $         ",
"      # # m @ @ @ @ @ a 4 J ( * p $ v K K z 6 [ 1 5 + R R y 4 , N K Q o = 1 O O O O O : t 6   3 N A ) } ) Q z $         ",
"      # # m @ @ @ @ @ @ r p u 1 X k m i v & = K K ^ - | ;.n n | y q p % 6 1 O O O O O 7 o 2 c ] %.e e e e e c # #       ",
"      #   k S @ @ @ @ @ l 4 5 u = s r a.R x h v A c o -.b b b ;.n p.=.{ , d O O O : 5 - v ` e e C B B B B B K # #       ",
"      #   4 l @ @ @ @ @ a q X ! ( , , q y h { y $ X x n b b b n i.=.-.T * % ; O : w o z ] e C ' 4.8.~ ~ 4. .Y % #       ",
"      # # * a @ l a a a r , 2 3 u [ , = & - & o % y n b ;.s.R h q $ # # #   $ 9 t & z ` C ' &.Y g ; & & > X.X.% #       ",
"      # # X j r 4 * , , X + 8 2 > u 0 q 2 2 0 0 + { ;.n R q # # * i Z Z *     o = 2 G B &.u w +   # #     % o % #       ",
"      # % # * X + & % = 2 + d 0 X g J X i p & ; % | n x $ $ Z L U H H H U Z # - % A C 8.J % & = $         # # #         ",
"      # % $ $ # o ; + 0 & o t 8 $ * 3 O.#.v , + , =.q.X , L H . . . D F < r.p # & ] &.J % 8 1 5 %                       ",
"              # 2 8 + 0 & & O ; X i 6.G N * 0 ; q -.y $ L M . . . D < < < E L # ^ C Y + 8 O : w +                       ",
"              # o 8 + 8 2 6 O = X O.6.f y 4 3 = y | X Z H . . . D < < < < E $.* #.' g o 1 O O t -                       ",
"            # # - 8 + ; o = O 6 o 3 3 * h 5.q % h q.$ L . . . . F < < W P E >.p 9.~ = ; : O O t -                       ",
"        # $ #   + ; - 9 2 = 1 & ; 1 1 ; * 5.x X x T $ V . . M / < < E _  .P ,.i ) 0.+ 7 : O : 5 %                       ",
"        # # , q % 9 2 d & = 1 & 8 : : 8 X 4 y.h y x X V . . M / < < W  ...P ,.i ) Q % t : O : 8 $                       ",
"        # # r I , & - = o 6 1 & = O : ; & 2 h T 4 * $ V . . M / < < P ....P ,.i Q c + t O O 1 & #                       ",
"        $ $ j S m q , X $ & 1 = 6 O : 8 ; 9 q y 4 * $ L . . . / < E P .. .W >.p ) Q + t : : d %                         ",
"        $ $ j @ S l a j k o 1 8 o 5 1 9 = 1 = , v 3 $ O.M . . . F < *.:.e.W r.* } G - d : 5 o #                         ",
"        $ # r @ @ @ @ @ r - t 7 % - & 6 6 O t 3 * * X i H . . . F < w.:._ E V # } @.u.& w & # #                         ",
"        % # <.@ @ @ @ @ I , 9 t % +.#.f + ; 0 = X x h * U . . . D < %.:.w.>.Z # +.@.` 2 - $ #                           ",
"        - % 4 j a l S @ l 4 = t - N G v   2 & & + { T $ o.M . M D < *.e.*.V X % % A %.} o                               ",
"        - o $ X * 4 k m r s + d ; + - o - 0 t t = * r * p U . . . F E W U q   + 6 & 3.e G f #           # # #           ",
"          $ # # # # # # # #   % - # % o % % o o + # X % # Z $.. . D F $.i     $ o # f ] e 1.X.w = o + % 2 o #           ",
"                    # #   # % - = & % o z 3 % 2 +.z % o + # i o.V V o.p   $ # #   $ + f ` e C _ ~ 2.Y Y 2.g             ",
"                            - = ^ N 3 3 t.v 2 z c f % # + - #   #     # % $         $ % 2 c 3.@.e C B ' _ 7             ",
"                            % + o o - % - % + % + - %     % $ $ # # $ $ #               #   o f N ) G 1.9.+ #           ",
"                              # $ $ # # #     # #                                                   % z 2 $             ",
"                                                                                                    $ $ $               ",
"                                                                                                    o &                 ",
"                                                                                                    # #                 ",
"                                                                                                                        ",
"                                                                                                                        ",
"                                                                                                                        ",
"                                                                                                                        ",
"                                                                                                                        ",
"                                                                                                                        ",
"                                                                                                                        ",
"                                                                                                                        ",
"                                                                                                                        "
};
