/* XPM */
static char *_83792fe82ef41ffc0f1e42834ed1933C9VMORSU4SiLgP35[] = {
/* columns rows colors chars-per-pixel */
"60 60 205 2 ",
"   c None",
".  c #030203",
"X  c #0B0305",
"o  c #0A0907",
"O  c #060709",
"+  c #0B0609",
"@  c #0C0B0B",
"#  c #070808",
"$  c #120305",
"%  c #1A0305",
"&  c #160B04",
"*  c #130309",
"=  c #1B040C",
"-  c #130C0D",
";  c #1A0C0A",
":  c #1A0D04",
">  c #14110D",
",  c #1A150F",
"<  c #1E140B",
"1  c #140E11",
"2  c #141313",
"3  c #1A1415",
"4  c #1D1914",
"5  c #1D1618",
"6  c #1C1B1B",
"7  c #171718",
"8  c #240507",
"9  c #2C0506",
"0  c #21050C",
"q  c #2D0609",
"w  c #3D080A",
"e  c #360609",
"r  c #231204",
"t  c #2B1605",
"y  c #21120D",
"u  c #2D1904",
"i  c #361B07",
"p  c #220511",
"a  c #2B0514",
"s  c #330617",
"d  c #340519",
"f  c #3B061C",
"g  c #3D0710",
"h  c #241E15",
"j  c #221C1D",
"k  c #20171A",
"l  c #29241A",
"z  c #322A1B",
"x  c #3B2E1B",
"c  c #392817",
"v  c #3B2A11",
"b  c #241F20",
"n  c #242323",
"m  c #2A2424",
"M  c #2C2B2C",
"N  c #2C2926",
"B  c #312C2D",
"V  c #342C20",
"C  c #2F302F",
"Z  c #3C3424",
"A  c #34322D",
"S  c #3F3B2C",
"D  c #312F30",
"F  c #343333",
"G  c #3A3A3A",
"H  c #3A3536",
"J  c #4C0A0D",
"K  c #450808",
"L  c #550B0C",
"P  c #5E0D0E",
"I  c #42071B",
"U  c #5C0B18",
"Y  c #640D0E",
"T  c #6D0C0D",
"R  c #740C0E",
"E  c #670F11",
"W  c #631013",
"Q  c #452308",
"!  c #5C2E09",
"~  c #512C08",
"^  c #5B350A",
"/  c #4D3A1F",
"(  c #6A3609",
")  c #763B0A",
"_  c #4A0723",
"`  c #490823",
"'  c #560929",
"]  c #5B092B",
"[  c #520826",
"{  c #63092E",
"}  c #660830",
"|  c #6D0A33",
" . c #720936",
".. c #770938",
"X. c #7B0839",
"o. c #463A24",
"O. c #443B3E",
"+. c #7D4807",
"@. c #4D4026",
"#. c #594B2C",
"$. c #484639",
"%. c #5A5035",
"&. c #6C5D3A",
"*. c #675733",
"=. c #705E37",
"-. c #644D26",
";. c #74643D",
":. c #79663A",
">. c #7D6A3E",
",. c #544C4E",
"<. c #5B5845",
"1. c #564F51",
"2. c #595254",
"3. c #625B5D",
"4. c #7A6C44",
"5. c #766949",
"6. c #66644F",
"7. c #686364",
"8. c #726B6E",
"9. c #7B7576",
"0. c #7F7D60",
"q. c #860E0F",
"w. c #930F11",
"e. c #8A1011",
"r. c #B31213",
"t. c #BC1213",
"y. c #A81111",
"u. c #C61112",
"i. c #C81212",
"p. c #884409",
"a. c #935304",
"s. c #A75709",
"d. c #B95D08",
"f. c #B6690B",
"g. c #AE6407",
"h. c #836E3E",
"j. c #9B7E3E",
"k. c #C46307",
"l. c #CC6501",
"z. c #D36C02",
"x. c #C67409",
"c. c #D67B05",
"v. c #D87805",
"b. c #C17717",
"n. c #E27C04",
"m. c #806E45",
"M. c #887545",
"N. c #917D49",
"B. c #817B7D",
"V. c #A9813C",
"C. c #DD8007",
"Z. c #EB8602",
"A. c #ED8802",
"S. c #E88606",
"D. c #F18A04",
"F. c #EC8F13",
"G. c #ED9216",
"H. c #EC9A29",
"J. c #ED9E34",
"K. c #ECA33B",
"L. c #9B8349",
"P. c #8F8156",
"I. c #A9935A",
"U. c #B29551",
"Y. c #BEA25C",
"T. c #938E69",
"R. c #A19D76",
"E. c #B3AB7E",
"W. c #C5A75E",
"Q. c #EEAE56",
"!. c #D2B364",
"~. c #DCBB67",
"^. c #EFB868",
"/. c #D7C27A",
"(. c #EAC66A",
"). c #EBC96D",
"_. c #F2CD6E",
"`. c #FCD56F",
"'. c #FDD672",
"]. c #FED974",
"[. c #FEDC7C",
"{. c #F5D170",
"}. c #847F81",
"|. c #898586",
" X c #9A9597",
".X c #ACAB85",
"XX c #D0C992",
"oX c #F1C582",
"OX c #F8DC84",
"+X c #E2D698",
"@X c #FFE385",
"#X c #FEEA95",
"$X c #F8E698",
"%X c #DDD9A2",
"&X c #EAD7A2",
"*X c #EAE4A9",
"=X c #F7EEAC",
"-X c #FFF5AE",
";X c #FFF2A7",
":X c #F0E4B7",
">X c #F7E7CA",
",X c #F9F0DD",
"<X c #FAF5E7",
"1X c #FAF8EC",
"2X c #FCFEFC",
/* pixels */
"                                                                                                                        ",
"                                                                                                                        ",
"                                                                                                                        ",
"                                                                                                                        ",
"                                            + . . . . . .                                                               ",
"                                        + . > @.h.T.R.%..                                 . . .                         ",
"                                        + . Z (.].-X*XS +                               . l $.h .                       ",
"                                          . o._.].-X.X#                                 . $.*X/.=.# +                   ",
"                                          . @.{.].-XP..                                 . N *X@XW.- . 6                 ",
"                                          . o._.].-X0..                                 . A *X[.h..                     ",
"                                          . z (.].;XR..                                 . $.$X'.#..                     ",
"                                            , !.'.#XXX3 . . . . # # . . .               . <.#X(.z                       ",
"                                            . M.'.[.=X6.. 6 M F F F F M 6 # . .         . T.@XW.>                       ",
"                                          . . l !.'.#XXX3 2 G G G G G G G F n # .       l XX].M..                       ",
"                                      . . 2 6 . #._.[.=X6.. 6 G G G G G G G G M 2 . . o M.[.~.z                         ",
"                                    . # n H G 6 o :.(.@X%X$.. 6 F G G G G G G G F @ . %._.{.*..                         ",
"                                . . - M G G G F 7 . o.!.#X%X<.# # 7 N M F F F N 2 o #.(.{.>.@                           ",
"                                . @ M G G G G G F n . x Y.OX$XE.<.l # . # # . # x L._.~.*.#                             ",
"                              . . 5 F G G G G G G G N # , =.W.OX#X+XE.P.&.*.:.U.(._.N.l . .                             ",
"                              . @ n A G G G G G G G G F 2 . - @.L.N.4.4.;.;.>.M.N.@.o @ 7 .                             ",
"                            . . 3 m m F G G G G G G F 6 # # . . o & r t t t : X . . . . . .                             ",
"                            . . j m m m B G G G G F @ . . . & ^ s.x.c.c.c.c.x.g.+.i X . . .                             ",
"                            . o n m m m m M F G F 2 . . . Q f.S.D.A.F.J.H.H.G.F.S.c.a.u . . .                           ",
"                            . # 3 5 5 5 5 5 3 7 # X X . & s.A.A.A.A.oX1X<X,X>X:X&XoXQ.b.~ . . #                         ",
"                            . . . . . . . . @ . % q.e . Q l.n.A.A.A.Q.>X,X<X1X2X2X2X<XK.C.^ . .                         ",
"                            . 2 n j M M M M 5.z e r.w . ~ l.z.Z.A.A.A.F.H.H.K.Q.^.oX^.F.D.f.& .                         ",
"                        . . . 6 m m F G G $.I.h J t.J . i k.l.z.Z.A.A.A.A.A.A.A.A.A.Z.Z.n.k.i . .                       ",
"                      . . . . @ - 2 5 n N A &.- R i.T . & s.l.l.z.n.S.Z.A.A.Z.S.n.v.z.z.l.k.i . .                       ",
"                    # . w q . . . . . . . . . w r.i.w.X . ) l.l.l.l.z.z.z.z.z.l.l.l.l.l.l.d.r .                         ",
"                    . . Y 8 @ n n n M M %.*.X q.i.u.t.e . u d.l.l.l.l.l.l.l.l.l.l.l.l.l.l.) . .                         ",
"                    . $ L X 6 m m B G G I.m.X w.i.u.u.R . . ! k.l.l.l.l.l.l.l.l.l.l.l.d.( X . 2                         ",
"                    . $ q . 5 j n M M N &.z 9 r.i.i.u.r.K . X ~ s.l.l.l.l.l.l.l.d.s.( t . . -                           ",
"                    . X = . . . . . . . . X J T R w.t.i.y.K . . < ! ) p.p.) ! Q t & . X X o                             ",
"                    . * ' _ s X . . . . . . . # @ $ T t.u.r.R 9 X . . . . . . . . q Y U = . # +                         ",
"                    . = | | 0 . # 7 6 N M M M A m.h X 9 L R e.e.R T T Y e X $ y X e L 8 . . Z ,                         ",
"                    . = | I . 5 N F G G G G G <.Y., . . . . X $ % 9 K w % % ; x X . . 2 2 . ;.x @                       ",
"                    . * [ * 2 m m B G G G G H 5.;.8 % > n 6 . 6 6 # . % J W % X 1 5 . M n . 4 > @                       ",
"                    . * p . @ 2 3 n N N n 6 7 5 * P 8 7 j - X j k X q W W 8 $ 5 F M . D n . @ @                         ",
"                    . * ` = . . . . . . . . > h % E $ @ + ; x $ % g U e $ - m G G N . n 2 . V h #                       ",
"                    . * ] = 2 j j m M M M C 5.&.9 Y o 2 + y j.-.% g % X o 7 6 7 2 # . . # . Z l @                       ",
"                    . * s # j m m A G G G G P.Z I J @ 3 $ X v U.o.X 3 j 6 6 6 n 7 4 o.. 7 . 3 - @                       ",
"                    . . X 1 n m m F H F F A Z = ' = X X m 2.- -.V.y M G G G G F @ :.!.h . . @ > 1                       ",
"                    . . . . # # @ @ @ # # # . = s X - 1.9.O.+ ; / ; M G G G G M . z #., . . z o.@                       ",
"                    . . . . @ @ # 2 7 7 j &.l X X H B.7.5 X . . X X 3 6 6 6 2 # . . # 7 7 . Z o.@                       ",
"                    . . . - m m m F G G M z $ j 7.}.O.+ - n n 6 5 7 2 @ 2 2 6 n M F F F 2 . 2 3                         ",
"                      . . 6 m m m B M 3 X 3 3.}.1.1 X 1 j N F G G G G G H H F F F M 6 @ . . #                           ",
"                      . . 2 3 5 k - X 3 1.|.7.k % = X o # # # @ 2 7 6 6 7 2 @ @ + X * 0 X .                             ",
"                        . . . X X * ,. XB.B * s { | { s . @ 2 - @ @ @ @ 2 # . a _ ] | { X .                             ",
"                          X X - O.9.9.H = a ] ..X.X.X._ . 7 b j j 6 j M N 2 X ] X.X.X.' . .                             ",
"                    X X X 5 O.9.8.B X = '  .X.X.X.X.X._ . . o . o o o # @ . X } X.X.X._ . .                             ",
"                X X 3 O.9.|.3.N X X . =  .X.X.X.X.X.X.[ . 1 5 j j j j j N # =  .X.X.X.f .                               ",
"            X X * m 2.8.2.k X       . $ { X.X.X.X.X.X.] X . @ @ @ # o . . X I X.X.X...a .                               ",
"            X X X * * X .           . X ] X.X.X.X.X.X...f . . . . . . . a { X.X.X.X.| * .                               ",
"                                    . . [ X.X.X... .| } [ X .       . . = _ ' [ ` f p . .                               ",
"                                    . . 0 d d d a p * X X . .         . . . . . . . . @                                 ",
"                                      . . . . . . . . . . o             . . . . . o 1                                   ",
"                                          . . .                                                                         ",
"                                                                                                                        ",
"                                                                                                                        ",
"                                                                                                                        "
};
