/* XPM */
static char *c7b588c6f45e4398b3969496ffc513e5NAeXS4tUNNyc8EYU[] = {
/* columns rows colors chars-per-pixel */
"60 60 133 2 ",
"   c black",
".  c #7B0839",
"X  c #090808",
"o  c gray23",
"O  c #3A3A3A",
"+  c #080103",
"@  c #060606",
"#  c #010001",
"$  c #020102",
"%  c #040304",
"&  c #0D0305",
"*  c #292323",
"=  c #CC6501",
"-  c #1E1C1C",
";  c #0D0B0B",
":  c #100E0D",
">  c #221F1F",
",  c #120206",
"<  c gray4",
"1  c #2E2D2D",
"2  c #2B2929",
"3  c #CF6702",
"4  c #383737",
"5  c #181818",
"6  c #11100F",
"7  c #EC8702",
"8  c #1D1817",
"9  c #181414",
"0  c #190309",
"q  c #252424",
"w  c #131313",
"e  c gray20",
"r  c #100709",
"t  c #160D0E",
"y  c #1F040D",
"u  c #250406",
"i  c #EE8A05",
"p  c #190B06",
"a  c #2C2318",
"s  c #7D7779",
"d  c #45090B",
"f  c #685835",
"g  c #281406",
"h  c #6C0933",
"j  c #330518",
"k  c #270412",
"l  c #63082E",
"z  c #32302E",
"x  c #352B1D",
"c  c #350709",
"v  c #8F7F53",
"b  c #C71111",
"n  c #76653E",
"m  c #D77003",
"M  c #4F422A",
"N  c #F8D372",
"B  c #5C5035",
"V  c #FFD972",
"C  c #750937",
"Z  c #40081E",
"A  c #474041",
"S  c #FFE890",
"D  c #9D520B",
"F  c #E68004",
"G  c #A39E77",
"H  c #221D14",
"J  c #534F47",
"K  c #FDDF80",
"L  c #1F130D",
"P  c #AB904F",
"I  c #663409",
"U  c #7F6D42",
"Y  c #EB9B2C",
"T  c #5A092A",
"R  c #470721",
"E  c #E7E0A3",
"W  c #4E0A0B",
"Q  c #5C0C0F",
"!  c #8C7642",
"~  c #AE1112",
"^  c #EB9218",
"/  c #500827",
"(  c #530827",
")  c #C4BD8B",
"_  c #5E5658",
"`  c #70696C",
"'  c #B19857",
"]  c #39352C",
"[  c #A28A50",
"{  c #464436",
"}  c #C7AA5F",
"|  c #774008",
" . c #BA5E08",
".. c #FAEBA3",
"X. c #3E3420",
"o. c #E9C26B",
"O. c #710C0E",
"+. c #AF660C",
"@. c #321906",
"#. c #D87B06",
"$. c #787253",
"%. c #592D0A",
"&. c #4A0A14",
"*. c #83420A",
"=. c #D2CC98",
"-. c #B61212",
";. c #FDE28A",
":. c #EBA94B",
">. c #9A1011",
",. c #7F0E10",
"<. c #C21212",
"1. c #880F10",
"2. c #FCFEFB",
"3. c #F5E3C1",
"4. c #F9EED7",
"5. c #CB7609",
"6. c #FAF6E8",
"7. c #D6B96C",
"8. c #EAD78D",
"9. c #918C8E",
"0. c #412208",
"q. c #815F2E",
"w. c #620E0F",
"e. c #493219",
"r. c #670E10",
"t. c #F1C480",
"y. c #C16108",
"u. c #6C0B0D",
"i. c #F2D19B",
"p. c #FFFBBE",
"a. c #671113",
"s. c #6A1214",
"d. c #7B083B",
/* pixels */
"                                                                                                                        ",
"                                                                                                                        ",
"                                                                                                                        ",
"                                                                                                                        ",
"                                                                                                                        ",
"                                                                                                                        ",
"                                                                                                                        ",
"                                                                                                                        ",
"                                                                                                                        ",
"                # #                                                                                                     ",
"                : ;                                                                                                     ",
"              $ $ $                                                                                                     ",
"            $ : H %                                                   # #     # # # $ $ #                               ",
"          # @ U 7.[ n M a ;   #               # $ $ $ # $ % %     % X @ @ @ % X @ X ; ; X %                             ",
"            x 8.S S K N o.' f : % %         $ %     # # # $ < @ # % a B 8 : x ] w t M B 8 X                             ",
"            { ) G G ) ) 8.K N P a @ $   # # $   p %.| | %.g $ X < @ H X.; % 9 8 ; @ 6 9 < % #   # #                     ",
"          $ < : % @ ; 9 ] $.7.V } a $ < $     L +.F m 3 3 D @.# % + # @ ; < % @ ; % $ X %   $ # # $ $ $ # # $           ",
"          # $ #           % a [ N ' 6 9 @   r D ^ i F 3 = 3 D p & &., 5 e e > X < X @ 5 2 @ y Z j k 0 & + $ ; X         ",
"                              ; ! N n % % + | :.3.:.7 m = = = %.% r.W @ 6 : :   a [ M X e 5 0 h . C h l ( 0 % X         ",
"                          # $ < t P o.X.# @.5.t.2.t.7 #.= = 3 D r c d + 9 > - @ a v X.% e q & T . . . . d.j # %         ",
"                        # # 6 z 6 X.o.! # | i i.2.o.7 F = = =  .g + & & t e O w w 6 < % 2 e X R . . . . . R $ $         ",
"                        # ; 1 o 2 X P ! & +.^ 3.2.:.7 F 3 = = = 0.$ L x & 8 4 5 q 4 1 < > 4 ; k ( l h C . / $ $         ",
"                        % q o o e @ n n p 5.^ 4.6.Y 7 7 3 = = = I % & p u , q - - o O w 5 4 : $ + + , j C ( $ $         ",
"                      # : 4 O O e @ f n g #.Y 4.6.Y 7 7 m = = 3 *.% , 0 a.c r 6 - o O 5 6 4 w ; 5 X 6 + T Z $ #         ",
"                      $ > o O o e @ n U g #.Y 6.4.^ 7 7 m = = 3 *.+ d u c s.0 + - o o - 6 4 5 6 2 : q % 0 & # #         ",
"                      @ 1 o O o 2 @ G U g #.Y 3.i.i 7 7 3 = = 3 *.% r.d + d &.& 8 4 4 - 6 4 5 ; q < - @   # $ #         ",
"                      X e O O o - 9 =.U p 5.i Y ^ 7 i F 3 = = 3 I $ u.c % , &.c r 9 9 ; w O 5 ; - X - < # #             ",
"                      X e O O 4 < { ..[ & +.i 7 7 i 7 m = = =  .@.+ O.u 9 9 0 u a q.e.+ 8 O w ; - X > ; #               ",
"                      @ z o O > @ G ;.B # I 7 i i 7 m = = = = I $ u ,., - > & M P q.g + - O 6 6 > @ - ; # #             ",
"                      % 1 4 > % J E } t $ p +.i F m 3 3 =  .I & + u.1.& @ & x ! e.t & $ > e < 6 > X - ; # $ $ % #       ",
"        # $ #         $ 5 6 % J E K f % X $ 0.D y.y. .D I @.% $ d -.O.% 8 t p L + J A + > 2 X ; 9 % : @ + & $ @ #       ",
"      # % ; %     # $   @ z v E ;.P : 5 <     & @.@.g & # # , Q ~ <.W @ > > r r r > s * t > @ + + & & 0 R ( + $ #       ",
"      $ % $.$.* 6 6 H { G E ..K ' L 6 e q %   # $ # $ , c Q >.<.b ~ u % ; : X 6 9 & o s t t & R l l l h . h ,   #       ",
"      $ % G p.E =.) =.....K V } H ; z o O - % & r.,.1.>.-.b b b ~ d + $ u W c u 0 + & ` _ + , l . . . . . h 0   #       ",
"      $ $ v S S S S ;.K V N ' x X 1 o O O O q X W 1.>.~ <.b b b ,.r B f x c d Q Q Z y 8 s 1 0 h . . . . . C k   $       ",
"      $ $ f N V V V V N } f : < 2 O O O O O 4 w % t p u O.~ -.<.O.X B v v 9 6 x L j k + 4 s t R . . . . . . j # $       ",
"        $ H n U ! U f M L   w e o O O O O O 4 5 ; n v M + 0 u W Q @ 1 4 o w H v v x $ t r ` J 0 l . . . . . j # $       ",
"        $ $             $ $ 5 O O O O O O O 1 8 @ ] J { @ M B H , % 1 o O 5 @ e A ] X f a > 9.* j C . . . . j # $       ",
"          % $             # % q O O O O O z * 8 @ 1 o q % B ' f   $ 2 o o > % 1 o e X * 2 & _ s 0 T C l T / y # $       ",
"          $ %               $ X 1 O O O z * * - @ 1 o > % 1 o 2 $ # q o o q % 2 o 4 < 5 4 9 9 9.O 0 y , + % $ $ #       ",
"                            # $ ; * z z * * * 8 @ 2 z 5 % 2 4 2 $   - o O q % 2 o 4 ; w O 1 & A s r $ $ $ $ $ $         ",
"                              # $ @ 6 > * * * 8 @ > * 6 % > 2 2 %   w 1 2 - % q 1 1 6 : 1 2 t & ` A + #                 ",
"                                # $ # % ; w 8 w @ > * : @ > * > % $ X > * 9 % - * * ; < * * - + 2 s t $                 ",
"                                    # $ $ $ $ % # @ : X % - * > % y & 6 > 6 % - * * < ; * * 8 + & _ A $                 ",
"                                        # # $ $ # # # $ , , < ; % Z / y X @ + r 6 8 @ X 8 * w # + * s t $               ",
"                                                  # $ + d w.d y , T . h Z 0 Z / k @ # $ $ < X $ + r s A $               ",
"                                                    # $ + , u 0 , y k k k 0 y y 0 +   # # # # $ # + J ` +               ",
"                                                      $ % % $ $ $ # # #         # # # $ $ #       $ 8 _ r               ",
"                                                          $ $ # # $ $ $ # # # # # #               $ & * r               ",
"                                                                                                    + r & #             ",
"                                                                                                    $ & +               ",
"                                                                                                    # + +               ",
"                                                                                                      $ #               ",
"                                                                                                                        ",
"                                                                                                                        ",
"                                                                                                                        ",
"                                                                                                                        ",
"                                                                                                                        ",
"                                                                                                                        ",
"                                                                                                                        "
};
