/* XPM */
static char *to_down1712857204[] = {
/* columns rows colors chars-per-pixel */
"60 60 140 2 ",
"   c None",
".  c #000001",
"X  c #010103",
"o  c #050403",
"O  c #050506",
"+  c #050507",
"@  c #0D0803",
"#  c #080809",
"$  c #09090A",
"%  c #09090B",
"&  c gray4",
"*  c #0B0B0C",
"=  c #130B04",
"-  c #100F0C",
";  c #191306",
":  c #0F0F10",
">  c #101010",
",  c #111011",
"<  c #111111",
"1  c #151515",
"2  c #161516",
"3  c #161617",
"4  c #1B1B1B",
"5  c #271503",
"6  c #2D1E05",
"7  c #221D09",
"8  c #221D12",
"9  c #3D2706",
"0  c #302712",
"q  c #242524",
"w  c gray15",
"e  c gray20",
"r  c #343434",
"t  c gray22",
"y  c #4D2C03",
"u  c #4E3D06",
"i  c #5B3307",
"p  c #413417",
"a  c #683F05",
"s  c #594609",
"d  c #4F441F",
"f  c #7B4607",
"g  c #6D550E",
"h  c #745D0A",
"j  c #624D20",
"k  c #7D6D22",
"l  c #88550B",
"z  c #915405",
"x  c #A05906",
"c  c #8C6504",
"v  c #836909",
"b  c #8D690C",
"n  c #987207",
"m  c #A46106",
"M  c #B16407",
"N  c #AA7C07",
"B  c #876224",
"V  c #997526",
"C  c #A97822",
"Z  c #C87205",
"A  c #CC7E06",
"S  c #D57805",
"D  c #DF7E04",
"F  c #E57E01",
"G  c #A18409",
"H  c #B28D07",
"J  c #BE930A",
"K  c #9F8822",
"L  c #AC9224",
"P  c #D5890D",
"I  c #C2831E",
"U  c #C68E1D",
"Y  c #DB9511",
"T  c #E78001",
"R  c #E68301",
"E  c #E78500",
"W  c #E98501",
"Q  c #E88700",
"!  c #E18904",
"~  c #E98901",
"^  c #E88B00",
"/  c #E88A01",
"(  c #E98D01",
")  c #EA8F01",
"_  c #EB9000",
"`  c #EC9301",
"'  c #EC9600",
"]  c #ED9A00",
"[  c #EF9B01",
"{  c #ED9D01",
"}  c #EF9F00",
"|  c #E7940A",
" . c #E69A0E",
".. c #D3A108",
"X. c #DAB90F",
"o. c #C9A314",
"O. c #C1A01C",
"+. c #D1AF10",
"@. c #E0A707",
"#. c #EBAD05",
"$. c #EEA70B",
"%. c #E9A10E",
"&. c #E2AD08",
"*. c #F0A100",
"=. c #F1A300",
"-. c #F1A501",
";. c #F3A601",
":. c #F3A900",
">. c #F3AD00",
",. c #F4AF00",
"<. c #ECB705",
"1. c #E4B409",
"2. c #EBBE0A",
"3. c #F3B201",
"4. c #F5B301",
"5. c #F6B501",
"6. c #F6B700",
"7. c #F7BA00",
"8. c #F7BF02",
"9. c #F9BB02",
"0. c #F9BD01",
"q. c #F8BF00",
"w. c #F5BB08",
"e. c #E7BE19",
"r. c #F1C207",
"t. c #F5C607",
"y. c #FAC001",
"u. c #FAC200",
"i. c #FBC400",
"p. c #FCC701",
"a. c #FBC900",
"s. c #FDC900",
"d. c #FDCB01",
"f. c #FDCE00",
"g. c #F2CB08",
"h. c #FACD0A",
"j. c #FED000",
"k. c #FED201",
"l. c #FFD502",
"z. c #F7C810",
/* pixels */
"                                                                                                                        ",
"                                              3 > * o # o # # o * : * > 2                                               ",
"                                        2 * + . . o X @ @ @ @ @ o . . . . + $ >                                         ",
"                                    $ + . . @ 5 y s l n N N N N n c g u 6 @ . . + *                                     ",
"                                $ + . o 6 s m A Y { =.-.;.;.;.4.>.5.3.#...N h 9 @ . o *                                 ",
"                            > + . @ 9 l A ` [ [ [ [ =.=.-.;.;.>.>.>.3.4.5.7.5.@.N u = . + *                             ",
"                          $ o o 9 z P ` [ [ [ [ { =.=.=.-.;.;.4.>.4.3.4.5.5.7.8.y.<.H u @ . $                           ",
"                      > + . ; f A ( ` ` ' [ ` [ { { =.=.-.-.:.>.>.>.3.4.5.7.7.7.9.y.y.<.n 6 . + >                       ",
"                    > + X y z ! ( ` ` ` ' ] ] ] { =.*.=.-.;.;.>.>.>.4.4.5.5.7.7.8.y.y.i.i.o.u + X *                     ",
"                  > . o y Z ` ( ( ( ` ` ' ] ] ] { { *.=.-.-.;.>.>.>.3.4.5.7.7.7.8.y.y.y.i.p.1.h @ X $                   ",
"                < . o i A ~ ( ( ` ( ` ` ' ] ] ] { =.*.=.:.;.>.>.>.4.3.4.5.7.7.7.7.9.y.i.y.i.p.r.v @ . *                 ",
"              > o o i S / / / ( ` ( ` ` ' ] ] ] { [ *.=.-.;.;.>.>.>.3.4.5.5.7.7.8.y.y.y.i.i.p.a.t.v @ . >               ",
"              + o y A / / / / ( ( ( ` ` ] ] ] ] { =.{ =.-.;.;.4.>.>.3.4.6.6.7.7.9.y.y.y.i.i.p.a.f.t.h + + 2             ",
"            : . 9 Z Q Q / / / ( ( ` ` ` ` ] ] ] { [ =.=.-.-.:.>.>.>.3.5.3.6.7.7.9.y.y.u.i.i.p.a.s.f.2.s . +             ",
"          > . ; m R R Q / / / ( ( ` ` ` ] ] ] ] { { =.=.-.;.:.>.>.4.3.4.5.5.7.7.8.y.y.u.i.i.p.a.a.s.f.+.6 . $           ",
"          + o f F R Q Q / / / ( ( ( ` ` ` ] ] { { [ =.=.-.-.:.>.>.>.3.3.5.7.7.7.8.y.y.u.i.i.p.a.a.f.d.k.G @ . 2         ",
"        * . y Z R R W Q / / / ( ` ` ` ` ' ] ] ] { { *.=.-.;.;.>.>.>.3.4.5.5.7.7.9.y.y.u.i.i.s.a.a.s.s.f.g.s . >         ",
"        + o z T R R W Q ~ / / ( ( ( ` ` ' ] ] ] { [ *.=.-.-.;.>.>.>.3.5.5.7.7.7.9.y.y.u.i.i.p.a.a.f.f.f.k.o.; X 2       ",
"      * . 9 S T R Q Q Q ~ / ( ( ` ( ` ` ' ] ] ] { { =.=.-.;.>.>.>.4.3.4.5.5.7.7.8.y.y.u.i.i.a.a.a.s.f.f.k.h.g . :       ",
"      + @ z T F R R Q Q ~ / / ( ( ( ` ` ' ] ] ] { =.=.=.-.;.;.>.>.>.3.4.5.5.7.7.8.y.y.u.i.y.p.a.a.d.f.f.k.l.O.= . t     ",
"    > . 6 Z F F R R Q Q ~ / / ( ( ` ` ` ' ] ] ] { =.{ =.-.;.;.4.>.>.4.4.5.5.7.7.8.8.y.u.i.i.a.a.a.d.f.f.f.k.g.u . 3     ",
"    $ . a F F W R Q R Q ~ / / ( ( ( ` ` ' ] ] ] { [ =.=.-.;.:.>.>.>.3.5.5.7.7.7.9.8.y.u.i.i.i.a.a.d.f.f.k.k.l.n . -     ",
"    + @ x F F F R R Q Q ~ / / ( ` ` ` ` ' ] ] ] { { =.=.-.;.:.>.>.3.3.5.5.7.7.7.9.y.y.y.i.i.a.a.a.d.f.f.f.k.l.+.; X t   ",
"  > . 5 Z F W W R Q R Q / / ( ( ( ( ` ` ' ] ] ] { [ =.-.-.-.:.>.>.>.3.3.5.5.7.7.9.y.y.y.i.i.a.a.a.d.f.f.k.k.k.g.p . w   ",
"  > . y D F R F R R Q Q / / / ( ` ( ` ` ` ] ] ] { =.=.=.-.;.;.>.>.>.4.4.5.5.7.7.8.y.y.y.i.i.p.a.a.d.f.f.k.k.k.l.h . 3   ",
"  3 . f F F W F R Q R Q / / / ( ( ( ` ` ] ] ] ] { { { =.-.;.;.>.>.>.3.5.5.7.7.7.8.y.y.i.i.i.p.a.a.d.f.f.k.k.k.l.G . *   ",
"  > X z F F F F R R Q Q / / / ( ( ` ` ` ' ] ] ] { { =.=.-.;.;.4.>.4.3.4.5.5.7.7.9.9.y.y.i.i.p.a.a.d.f.f.f.k.k.l.J @ +   ",
"  + = z F F F W R Q R Q / / / ( ( ( ` ' ' ] ] ] { =.=.=.-.-.:.>.>.>.3.4.5.5.7.7.8.y.y.y.i.p.s.s.a.d.f.f.k.k.k.l.+.; o   ",
"  o = M T F T T R R Q Q Q ( Q ( ` ` ` ` ` { ] ] { =.*.=.-.;.;.4.>.>.3.4.5.5.7.7.9.y.u.r.o.O.+.t.f.s.f.f.f.k.k.l.X.7 X t ",
"  o = M T F T T R Q R Q / Q ( ( ( ( ` ` ` ] ] ] { { *.=.-.;.:.>.>.4.3.4.5.5.7.7.9.y.L d 8 - 8 h 1.f.f.f.k.k.k.l.X.7 X r ",
"  # = M T F T T R R Q Q / / ( ( ` ( ` ` ] ] ] ] { { *.=.-.$.$.:.>.>.3.3.5.7.7.7.i.o.0 o . . . X s r.f.f.f.k.k.l.X.7 . r ",
"  # = M T F T T R Q R Q / / / ( ( ( ` ` ` ] ] { { [ *.=.$.V d b >.3.3.5.5.5.7.8.w.g X X . . . . - H f.f.k.k.k.l.X.7 . t ",
"  + @ m F F W F W W Q Q / / / ( ( ( ' ` ' ] ] ] { { =.-.U 8 . ; J 5.3.4.5.5.7.9.1.0 . . . . . . X v f.f.k.k.k.l.+.; + t ",
"  $ o z F F F F W Q R Q / / / ( ` ( ` ` ' ] ] ] { { =.%.j + * + s #.4.4.5.7.7.9.&.0 . . . . . . X h f.f.k.k.k.l.O.- +   ",
"  $ . f W F T T R R W Q / / / ( ` ( ` ` ' ] ] ] { [ =.C - *   * @ N 5.4.5.5.7.9.w.s . . . . . . @ G f.f.f.k.k.l.K + $   ",
"  & . i F F T F R W R Q / / / ( ( ( ` ` ' ] ] ] { { Y p +       + 9 @.4.5.5.7.7.y.J 7 . . . . . u 1.f.f.k.k.k.k.k . 4   ",
"  2 . 6 S F F F R Q W Q ~ / / ( ( ` ` ` ` ] ] [ { =.B + >       > o b 4.5.5.7.7.8.y.H 9 @ o ; s ..s.f.f.k.k.k.g.d . w   ",
"    X = M W W F R R R Q ~ / / ( ( ` ` ` ] ] ] [ { U 8 >           $ 6 ..5.7.7.7.8.y.y.&.H G J 2.s.f.f.f.f.k.l.X.8 . r   ",
"    $ X f F F F R R W Q / / ( ( ( ( ` ` ` ] ] [  .j o 2           > X g 3.7.7.7.9.8.y.y.a.s.s.s.a.a.f.f.k.k.l.L + -     ",
"    > X 9 S F W R Q Q Q ~ / / ( ` ` ` ` ` ] { [ C - 2               $ ; J 7.7.7.9.8.y.i.y.y.s.a.s.s.f.f.f.k.h.j . 4     ",
"      X = M F F R R Q Q / / / ( ( ( ' ` ' ] ] Y p +                   X s #.7.7.9.y.y.y.i.i.a.a.a.d.f.f.k.k.+.8 . r     ",
"      $ X i F R R Q R Q / / / ( ` ( ` ` ' ] { B + w                   $ @ N 9.7.8.y.y.i.i.i.a.a.a.d.f.f.k.k.k X -       ",
"      > X = M Q R Q R Q / / / ( ` ( ` ` ' ] I 8 $                       + 9 &.9.8.9.y.y.i.i.i.a.a.d.f.f.k.X.0 . w       ",
"        $ . i D R R Q Q / / / ( ( ( ` ` '  .j o e                       > o b 9.9.8.y.i.i.i.s.a.a.s.f.f.h.k X -         ",
"        3 o @ x W W W Q ~ / / ( ( ` ` ` ] C - 2                           * 6 ..y.8.y.i.i.i.i.a.a.s.f.k.O.8 . w         ",
"          * . 6 Z Q R Q ~ / / ( ( ` ` ` Y p +                             > X g w.y.y.y.i.i.p.a.s.s.f.e.d . *           ",
"            o X i D W Q / / ( ( ( ( ` | B + w                               # ; J y.y.i.i.i.p.a.s.f.z.k + + t           ",
"            < . X f W Q ~ / / ( ` ( ` I 8 *                                   . s <.y.i.i.i.p.a.f.h.K - . q             ",
"              > . @ l ! / / / ( ( ` | j o r                                   $ @ N y.y.i.i.s.a.h.L 8 . 2               ",
"                * . = l Q / ( ( ` ( C - 4                                       + 9 1.i.i.i.a.h.L 8 . :                 ",
"                  * . = f ! ( ( ( P p +                                         > + b y.i.i.z.K 8 . :                   ",
"                    $ . @ a A ( ` B o w                                           * 6 ..s.e.k : . :                     ",
"                      > . + 9 M I 8 *                                             2 . g O.d + X 3                       ",
"                        > + . ; 0 + e                                               * - 8 . + w                         ",
"                            * X . :                                                   o . > t                           ",
"                              2 * e                                                   : w                               ",
"                                                                                                                        ",
"                                                                                                                        ",
"                                                                                                                        ",
"                                                                                                                        "
};
