/* XPM */
static char *to_left1712857205[] = {
/* columns rows colors chars-per-pixel */
"60 60 65 1 ",
"  c black",
". c #E98901",
"X c #ED9A00",
"o c #F7BA01",
"O c #FDCF01",
"+ c #0E0E0E",
"@ c gray3",
"# c #040404",
"$ c #EA9000",
"% c #EC9301",
"& c #ED9C01",
"* c #E78001",
"= c #E78500",
"- c #FBC400",
"; c #F4B301",
": c #F9C000",
"> c #FDCB02",
", c #FFD301",
"< c #F1A200",
"1 c #FCC900",
"2 c #F2A601",
"3 c #F3AD00",
"4 c #E98D01",
"5 c #E88B00",
"6 c #E98700",
"7 c #F9BD01",
"8 c #EC9600",
"9 c #191917",
"0 c #F6B700",
"q c #FAC200",
"w c #EF9F00",
"e c #100903",
"r c #14120E",
"t c #E78301",
"y c #F6B501",
"u c #F3AF00",
"i c #291F0B",
"p c #F3A900",
"a c gray13",
"s c #A77D0E",
"d c #563A06",
"f c #3E2806",
"g c #CD7905",
"h c #725A0B",
"j c #8F6D0D",
"k c #5C4B1B",
"l c #714206",
"z c #8D5308",
"x c #E4AD08",
"c c #F5C90A",
"v c #ECBD0B",
"b c #DF7E04",
"n c #826823",
"m c #B99009",
"M c #C2A11A",
"N c #453818",
"B c #B16407",
"V c #DCB90E",
"C c #A25E06",
"Z c #D0AE12",
"A c #A68D23",
"S c #C4881D",
"D c #D1A108",
"F c #D99215",
"G c #E4960B",
/* pixels */
"                      #+9aaaaaaa999r@#                      ",
"                   #9aaa9+@##  ##@+99a9+#                   ",
"                 +aa9+#  #+riiiir@   #+9ar#                 ",
"               @aa+  @iknAMZVVVVZmshNr  #+r@                ",
"             #9a+  ikAVc,,,,,,,,,,,,cZjNe  @@#              ",
"            @ar  inZc,,,,,,,,,,,,,,,,,,cMhr  ##             ",
"           r9@ 9nV,,,O,,,,,,,,,O,,,O,,,,,cMke ##            ",
"          99 #NMO,OOOOOOOOOOOOOOOOOOOO,OO,,csi  @#          ",
"         9r +nvOOOOOOOOOOOOOOOOOOOOOOOOOOOOO,Zd# @#         ",
"        9+ 9AcOOO>O>O>O>OO>OO>O1OO1OO1O1O>O>>Ovh@ ##        ",
"       9r 9A>>>1>1>111>>Vshhmv>>11>11O1>11>1>>>cje @#       ",
"      +9 9A>>11c1111c1ODd@ #ekV>1111c11111111111cje#@       ",
"     +9#rA1>1111111111vd      hc11111111111111111vh##@      ",
"     a@#nc11-1-1-1-11>me     #iZ1111-11-11-11-1-1-vd @@     ",
"    9r kv----------q-1s#      rM1-qq-qq-qq-qq------Di @#    ",
"   @9 9M1----q-q-q----me      9Z--------------q--q--j@#@    ",
"   @@ +hDqq:qqqqqqqqqqxf      kvqqqqqqqqqqqqqqqqqqqqvd @#   ",
"     ###ijxqq::::::::::mi   #aMq:::::::::::::::::::::me#+   ",
"       ###fsvq:::::::::omkifhM:7:::::::::::::::::::::vd +#  ",
"        ###edmo77o7o7o77:oxxo777o7o7oo7oo7oo7oo7o7o7o:s@#+  ",
"          ## rhDo7oooooooo77ooooooooooooooooooooooooo7xf r# ",
"           ####ijxoooo0ooo0oooooooooooooooooooooooooo00h +@ ",
"             ####fsuo000000000000000000000000000000000ose@+ ",
"               ###edm;0;yyyyyyyyyyy;yy;yy;yy;yy;yyyyyy0Di#r ",
"                 ## rhD;;;;;;;;;;;;;;;;;;;;;;;;;;;;;;;;xd r#",
"                  ### ijxy;;;;;;;;;;;;;;;;;;;;;;;;;;;;;uh +@",
"                    ####fsx;uuuuuuuuuuuuuuuuuuuuuuuuuuu;j#++",
"                      ## edm333333333333333333333333333ps#@r",
"                        # #rjp33333333333333333333333333se@r",
"                         @+ N2ppppppppppppppppppppppppppse@r",
"                       #++#ij22222222222222222222222222pse@r",
"                      @+#rkS2222222222222222222222222222se@r",
"                    @r@@Ns&2<<<<<<<<<<<<<<<<<<<<<<<<<<<2j#@+",
"                  @9+#inF<<w<w<w<<<<<<<<<<<<<<<<<<<<<<<<z ++",
"                #r9@rkSw<wwwwwwwwwwwwwwwwwwwwwwwwwwwwww&l +@",
"               r9+@NsGw&&&&&&&&&&&&&&&&&&&&&&&&&&&&&&&&Gf r#",
"             @a9#inFw&&&&&&&&&&&&&&&&&&&&&&&&&&&&&&&&&wgi#r ",
"           #99@rkS&&XXXXXXXXXXXXXXXXXXXXXXXXXXXXXXXXXXwCe@+ ",
"          9a+@NsGXXXXXXXXXXXXXXXXXXXXXXXXXXXXXXXXXXXXXGl +@ ",
"        +a9#inFX8888888888888888888888888888888888888Xgi +  ",
"      #9a@rkS8%%%%%%%%%%%%%%%%%%%%%%%%%%%%%%%%%%%%%%%8z##+  ",
"    #ra+@NsG%$%%%%%%%%%%%%%%%%%%%%%%%%%%%%%%%%%%%%%$8bf +#  ",
"   @9r@inF%$$$$$$$$$$$$$$$$$$$$$$$$$$$$$$$$$$$$$$$$$$ze#+   ",
"   +@ iS$44$$$$$$$$$$$$$$$$$$$$$$$$$$$$$$$$$$$$$$$$$gf +#   ",
"    + rB$4444444444444444444444444444444444444444445l##+    ",
"    @@ fg455555555555555555555555555555555555555554Cr +#    ",
"     @##lb555555555555555555555555555555555555555.gf @@     ",
"      @#@z=......................................gd##+      ",
"      #@ ez=6=66666666666666666666666666666666=.gd##+#      ",
"       ## ezt6================================6gd# +#       ",
"        #@ elb6============================t==gd##+#        ",
"         ####dgtttttttttttttttttttttttttttt=bCf #+@         ",
"          ### iCbtt**********************ttglr @+#          ",
"            ## edBb**********************gzf# @+#           ",
"             ##  edBb****b**b***b**b**bgzfe #++             ",
"               #   eflBgb*********bbgCli@ #++#              ",
"                 ##  #eidlzCBBBBCzlfie  @+r@                ",
"                   ####   #eeeee##   #+r+@                  ",
"                     ##@@@@#####@@++++@#                    ",
"                         #@@@++++@@#                        "
};
