/* XPM */
static char *c15fd8c9da178271122bb261c1a1b7c4__1__removebg_preview__2_1712426799[] = {
/* columns rows colors chars-per-pixel */
"60 60 241 2 ",
"   c None",
".  c #B55B0E",
"X  c #BB5D18",
"o  c #B55D13",
"O  c #AC5710",
"+  c #BD6414",
"@  c #BC631A",
"#  c #B56518",
"$  c #AE5926",
"%  c #BC6525",
"&  c #BC6C22",
"*  c #BA672A",
"=  c #B56A2A",
"-  c #B86928",
";  c #BC7727",
":  c #B56B30",
">  c #BA7638",
",  c #AE7C34",
"<  c #C7640F",
"1  c #C26513",
"2  c #CA6C15",
"3  c #CB6D1B",
"4  c #C66717",
"5  c #CC731C",
"6  c #C87219",
"7  c #D1761D",
"8  c #D37B1D",
"9  c #D77D1B",
"0  c #D06D18",
"q  c #C56B25",
"w  c #C57224",
"e  c #CA7223",
"r  c #CD7C24",
"t  c #C5792C",
"y  c #D37C23",
"u  c #D67B26",
"i  c #C27D36",
"p  c #BA7B43",
"a  c #C27E45",
"s  c #B88C2E",
"d  c #BB8738",
"f  c #AE8A35",
"g  c #D4821D",
"h  c #DA8B1C",
"j  c #D7871A",
"k  c #E0971E",
"l  c #E1A11F",
"z  c #CC882B",
"x  c #D58323",
"c  c #DB8524",
"v  c #D58A24",
"b  c #DC8C25",
"n  c #D48429",
"m  c #D58D2D",
"M  c #DB8C2B",
"N  c #D9822A",
"B  c #DC9324",
"V  c #DE9B22",
"C  c #DD922B",
"Z  c #DD9B2B",
"A  c #D49729",
"S  c #C28334",
"D  c #C88936",
"F  c #D48D32",
"G  c #D68B34",
"H  c #CA9838",
"J  c #D79839",
"K  c #C5912E",
"L  c #E18D24",
"P  c #E58D2B",
"I  c #E08524",
"U  c #E39C24",
"Y  c #E1942C",
"T  c #E39C2B",
"R  c #EC9B2B",
"E  c #E39328",
"W  c #E38E31",
"Q  c #E69432",
"!  c #E99432",
"~  c #E39D34",
"^  c #EB9C33",
"/  c #E2993B",
"(  c #F09F2F",
")  c #DEA42F",
"_  c #DBA234",
"`  c #D8A738",
"'  c #DDB33C",
"]  c #CAA033",
"[  c #EBAD25",
"{  c #E5A22D",
"}  c #EBA42B",
"|  c #ECAC2D",
" . c #E7A426",
".. c #F2AD2C",
"X. c #F1A629",
"o. c #ECB32D",
"O. c #EEBC2D",
"+. c #F2B42D",
"@. c #F1BC2E",
"#. c #EDA434",
"$. c #E2AC33",
"%. c #EDAD33",
"&. c #E8A73B",
"*. c #F3A631",
"=. c #F2AC35",
"-. c #F4AD3A",
";. c #F8AB32",
":. c #EDB434",
">. c #EDBB33",
",. c #E4B53A",
"<. c #EEBB3B",
"1. c #E7B638",
"2. c #F3B533",
"3. c #F2B933",
"4. c #F4B53A",
"5. c #F2BA39",
"6. c #F9B638",
"7. c #EFC12D",
"8. c #F2C32D",
"9. c #F7CA2F",
"0. c #ECC233",
"q. c #EBC63B",
"w. c #F3C432",
"e. c #F6CB33",
"r. c #F9CC35",
"t. c #FACD3C",
"y. c #F6C738",
"u. c #F6D234",
"i. c #FAD235",
"p. c #FDDC36",
"a. c #FCD43B",
"s. c #FDDD3B",
"d. c #F5D23C",
"f. c #FDE136",
"g. c #FEE139",
"h. c #F6E23A",
"j. c #BC8C47",
"k. c #BD924B",
"l. c #BE9053",
"z. c #C78D43",
"x. c #CA964A",
"c. c #D79A47",
"v. c #C18B50",
"b. c #C89858",
"n. c #D39F53",
"m. c #E09D45",
"M. c #C9A84A",
"N. c #D9AA42",
"B. c #CDB14C",
"V. c #D8B649",
"C. c #CBA356",
"Z. c #D8A956",
"A. c #D4B756",
"S. c #E6A846",
"D. c #E7B745",
"F. c #E4B95A",
"G. c #F4AF42",
"H. c #C49C62",
"J. c #D09B61",
"K. c #CAA867",
"L. c #D8AC69",
"P. c #D8B969",
"I. c #D8B775",
"U. c #E6BC69",
"Y. c #E3B975",
"T. c #DEC75D",
"R. c #DDC14E",
"E. c #E9C646",
"W. c #F6C844",
"Q. c #FDDC42",
"!. c #FDD945",
"~. c #F6DB58",
"^. c #E8CB56",
"/. c #FDE144",
"(. c #FBE749",
"). c #FBE455",
"_. c #FBE95E",
"`. c #F9E45C",
"'. c #FCFC55",
"]. c #FCFC5D",
"[. c #F9F159",
"{. c #DCC669",
"}. c #D9C478",
"|. c #E7C669",
" X c #F2CF68",
".X c #EAD36E",
"XX c #E9D566",
"oX c #F3D769",
"OX c #E7C879",
"+X c #E8D677",
"@X c #F5DA76",
"#X c #FBE563",
"$X c #FDE964",
"%X c #FDEA6C",
"&X c #F6E56A",
"*X c #FCFB66",
"=X c #FBF66A",
"-X c #EBE67A",
";X c #F4E474",
":X c #FEEB74",
">X c #FBE57A",
",X c #FDEE7C",
"<X c #F7E779",
"1X c #FCF175",
"2X c #FCF37C",
"3X c #F6F579",
"4X c #EEE06E",
"5X c #D6B985",
"6X c #E1BD8E",
"7X c #D2C481",
"8X c #E6C983",
"9X c #E8D685",
"0X c #F2DB88",
"qX c #E9DC94",
"wX c #F1DE97",
"eX c #F5E484",
"rX c #FBEC83",
"tX c #F4E58B",
"yX c #F5EA87",
"uX c #F6F285",
"iX c #FCF382",
"pX c #FCF58B",
"aX c #FCFC8C",
"sX c #F8FA86",
"dX c #EEE198",
"fX c #F6E995",
"gX c #FAF593",
"hX c #FDFD94",
"jX c #FCFD9B",
"kX c #F8F798",
"lX c #EDE181",
"zX c #F0DEA1",
"xX c #EEE6AA",
"cX c #F5EAA4",
"vX c #FDFCA2",
"bX c #FCFBAC",
"nX c #FBF3A8",
"mX c #F2EAB6",
"MX c #F5F4B5",
"NX c #F9F7B9",
"BX c #F4F2C0",
/* pixels */
"                                                                                                                        ",
"                                                                                                                        ",
"                                                                                                                        ",
"                                                                                                                        ",
"                                                                                                                        ",
"                                                NXNXBXNXNXNXNXbXnXwX                                                    ",
"                                          mXNXbXbXvXvXvXvXvXvXjXhXrXtXtXdX                                              ",
"                                      MXNXbXvXjXhXhXhXhXhXhXhXaX3X:X1X<XrXeXqX                                          ",
"                                  mXbXbXjXjXjXjXjXjXjXhXhXhXaX2X%X1X:X:X:X:X>XOX                                        ",
"                                MXbXvXjXjXhXjXjXvXjXjXjXhXhXpX1X:X:X:X:X:X:X:X%X.X}.                                    ",
"                              MXbXkXjXvXvXjXhXjXjXvXjXjXjXgXyXeXeX>X%X$X%X:X<X$X$XoX{.                                  ",
"                            MXvXvXhXhXvXjXjXjXkXfX9X8XK.K.K.K.I.8X0XeX>X%X%X%X$X$X$X&X{.                                ",
"                          BXvXaXjXvXjXaXpXgX8Xb.> = % % q * q * * a L.qX-X`.).#X#X#X`.&X-X                              ",
"                        cXgXaXaXhXhXhXhX0Xb.: % e u b L P E b x u q * p L..XoXoX).`.[.*X*X-X                            ",
"                      xXuX=X1XpXaXhXgXI.> * y E } >.y.r.i.r.y.@.} L u e % v.OX~.).[.*X*X*X3X                            ",
"                      yX&X%X:X1X2XfXb.= w B o.y.a.s.s.s.s.s.s.s.a.8.[ B y q p |.4X].*X*X*X].4X                          ",
"                    tX&X$X%X%X&X9Xb.% u #.e.s.g.g.f.g.g.g.g.g.g.g.p.r.3.{ I q > OX*X'.].'.'.^.l.                        ",
"                  qX<X$X$X$X%X@Xb.& n 2.a.g.g.g.g.g.g.g.g.g.g.g.f.s.s.a.y.%.M q > @X*X'.'.(.0.]                         ",
"                  -X#X_.$X_.@XL.% g o.u.f.g.g.g.g.g.g.g.g.f.g.f.g.g.g.s.s.a.2.P @ k.3X'.(.u.8.$.j.                      ",
"                9XoX).)._.`.XX> 3 ( W.i.g.g.g.g.g.g.g.g.f.f.f.f.s.g.g.g.s.a.t.6.c = P.&Xd.y.w.:.H                       ",
"                oX).(.`.#XoXn.% N Q ` <.!.Q.g.g.g.f.g.g.f.p.g.f.s.g.s.s.W.$.V 6.| 6 : F.0.y.y.@.J ,                     ",
"                ~.Q./.).~.U.> 8 ! w z.z.H W.Q.g.g.g.f.f.g.g.f.g.h.s.Q.q.] ` + %.9.U % c.q.w.y.9.:.s                     ",
"              |.!.Q././.~.n.6 P ! @ OXzXl.w :.a.h.h.f.g.g.g.s.g.g.Q.V.H .X X3 T r.+.3 * G.w.y.e.@.H                     ",
"              ^.s.Q.s.Q.E.w y ( E 4  XbXmXb.q T W.Q./.a.Q.Q./.g.Q.' A.tXrX@Xr E r...N o / 3.w.y.3._                     ",
"              E.p.s.s.!.~ 4 P *.I e @XpXvXnXL.; K N.A.M.B.E.^.q.] A.kXgXiX:XG I +.[ R 1 y 4.w.y.w.$.s                   ",
"              d.u.p.a.t.r 3 ( *.9 t :XiXaXkXhX+X+XdXxXxXxXdX9XB.B.yXyXiX2X%X/ 0 X.[ X.9 4 =.7.y.8.o.K                   ",
"            R.a.a.u.u.5.1 x } *.3 G :XiXgXhXjXjXvXbXbXbXbXbXbXkXrX2X2X2X:X%XD.0 X.[ | P 1 ^ @.w.w.O.H                   ",
"            E.d.i.p.u.%.+ L ..%.2 c.2XrXpXsXhXbXbXvXvXjXjXhXjXgXrX1X1XiX2X%XF.< X...| R < C @.3.7.O.`                   ",
"            E.t.i.i.u.{ + R ..*.< c.1X2XiXsXhXjXvXjXvXjXjXjXkXsX2X3X2X2X2X:XS.< X.....*.2 c >.8.w.O.`                   ",
"            E.r.i.u.r.B 4 ^ ;.=.1 S.1X2X2XsXpXjXvXjXvXvXjXjXkXhX,X1X2X2X1X>Xm.0 ..+.+.=.3 8 @.8.w.0.$.                  ",
"            E.r.i.9.r.v 6 #...2.6 C :X1X2X<X+X}.kXjXvXvXjXhXhX+XA.T.;X1X2X:Xr 9 o.2.2.=.3 9 2.8.8.7.,.                  ",
"            q.9.r.9.y.x 5 } +.2.P 5 oX2XuXA.9X}.K.fXjXvXjXhX-X}.OXA.^.2X1X X2 R o.2.3.=.7 8 @.8.8.w.1.                  ",
"            <.9.u.r.9.v x | +.3.=.2 F.iX2XB.Y.nX}.}.kXkXjXpX+XcXkXF.D.,XiX|.u ..+.2.2.-.7 x 3.w.w.8.1.                  ",
"            D.9.y.9.9.A c +.2.2.2.y x.iX,XT.d 9XcXI.uXkXhXuXlXvX+XD F.2XiXU.c +.+.2.6.6.7 c 6.w.8.8.1.                  ",
"            D.w.9.e.9.) b ..3.@.6.u v.gX2X<XB.f C.P.yXkXhXuX.X.XK c.>X1XiXF.5 2.+.6.3.-.e E y.w.8.7.,.                  ",
"            N.w.8.8.7.%.B 2.3.@.2.3 v.kXiX3XrX XM.A.uXhXjXaX.XXXXX<X2X1XrXZ.6 :.3.2.+.-.5 T w.w.9.7.'                   ",
"            ` <.9.7.9.2.B %.3.2.2.4 v.cXiX2X,XiX3XuX-XA.{.gXgXgXsX2XiX,XtXx.g 3.3.2.2.#.3 2.w.8.7.0.V.                  ",
"              :.7.8.7.3.V | 5.2.6.7 : wXgX2XiX2XuX3XoXs M.pXjXjXaX2X,XpX8X; R 2.3.:.2.b y 6.w.w.7.>.                    ",
"              ,.7.7.8.y. .{ 4.>.6.! O b.fXpXiX2X2X2X,XT..XpXhXjXhX2XiXfXl.t ..2.2.2.-.7 T 5.w.8.8.1.                    ",
"              ` O.7.8.w.2.V :.3.2.G.t $ L.gX2X2X1XiX<XA.T.uXpXhXhXuXgXI.= B 2.2.5.+.^ 6 4.3.7.8.>.,.                    ",
"              ` O.7.7.w.5.l | 3.O.3.#.% $ U.,X2X3X2X;XXXXX<XiXpXaXsX0X> 6 #.2.4.:.2.y G <.w.7.O.>.N.                    ",
"                ,.O.8.0.w.| k 2.+.2.4.M X % U.>X2XiXrX,X1X2XiXiXpXeXz.@ C 4.2.4.4.~ & / >.>.7.O.,.                      ",
"                ` O.7.7.8.2.V { 2.:.2.;.u @ # c. X>XrXrX,X,X<X@XF.S # n 4.>.4.2.4.t D ~ [ O.7.O.'                       ",
"                  $.O.@.@.@. .j =.:.3.2.*.N 1 O X ; i x.x.d ; # # # b 4.>.:.4.4.F i m.T  .[ O.1.                        ",
"                  _ o.O.@.| U j h -.2.3.2.-.P y @ . . o X @ @ 3 N ! G.<.3.2.6.&.> Z.~  . .U  .N.                        ",
"                    $.o.=.l k E 7 N -.2.3.2.4.-.^ Q Q Q Q Q ^ #.;.6.3.3.+.4.&.z.Z.J U U ) l Z                           ",
"                    H &.T U k L P 3 b -.3.2.O.3.4.6.4.6.5.5.3.5.>.3.2.6.4.' z.Z.J  .U { { V H                           ",
"                      F v b L h L W e r #.6.2.3.<.>.3.4.4.5.>.3.3.2.4.G.c.j.Z.c.Y l  .T T J                             ",
"                        n b c c h L P n 6 N &.:.4.3.3.5.4.5.4.4.6.-.J z.b.n.H P U U U U C                               ",
"                        S n x x g c c P P N u G / m.-.-.4.&.&._ H j.H.L.x.m b P T Y T A K                               ",
"                          S n g g 9 x b b W m.m.c.x.n.j.j.l.H.H.5X6XL.F x b c L C Y F K                                 ",
"                            t z 9 9 8 y n v n G H F.A.U.I.OX8XY.Z.c.x N x j h h B M D                                   ",
"                              ; e e 7 u r g x x x Z $._ _ _ J Y V V v N x j v v m d                                     ",
"                                : t e e 7 8 r y x Y Z Z T T R V B L c g g x N D                                         ",
"                                    ; e e 5 7 7 g C C Z Y E B C b b M y y n i                                           ",
"                                        & w e 6 y M M M b M C C C m G z i                                               ",
"                                            - - t F m m F F G F D D                                                     ",
"                                                      d D                                                               ",
"                                                                                                                        ",
"                                                                                                                        "
};
