/* XPM */
static char *_95ce5fc56994c11cb6a291f91d43867kFlLIhDnHJ3eXL8o[] = {
/* columns rows colors chars-per-pixel */
"45 45 156 2 ",
"   c None",
".  c #0D9B37",
"X  c #08973F",
"o  c #059A3D",
"O  c #0A9B3B",
"+  c #139C36",
"@  c #1B9E36",
"#  c #139D39",
"$  c #1B9F38",
"%  c #219F32",
"&  c #1CA036",
"*  c #1DA138",
"=  c #33A52F",
"-  c #3BA92E",
";  c #24A235",
":  c #2BA434",
">  c #23A138",
",  c #33A633",
"<  c #39A731",
"1  c #35A834",
"2  c #3BA933",
"3  c #46AC2F",
"4  c #4CAD2E",
"5  c #53AF2E",
"6  c #54B12E",
"7  c #5CB32E",
"8  c #44AC32",
"9  c #4BAD32",
"0  c #53AF31",
"q  c #4EB031",
"w  c #54B131",
"e  c #5AB331",
"r  c #63B52D",
"t  c #6AB62D",
"y  c #6DB92C",
"u  c #7EBE27",
"i  c #74BA2C",
"p  c #7BBC2B",
"a  c #64B631",
"s  c #6EB931",
"d  c #069742",
"f  c #0C9643",
"g  c #069941",
"h  c #0A9841",
"j  c #159347",
"k  c #109544",
"l  c #129545",
"z  c #139545",
"x  c #109446",
"c  c #109546",
"v  c #109547",
"b  c #139447",
"n  c #109746",
"m  c #149547",
"M  c #119544",
"N  c #149348",
"B  c #169349",
"V  c #179349",
"C  c #159448",
"Z  c #16954A",
"A  c #129449",
"S  c #84BD27",
"D  c #86BF26",
"F  c #85BF27",
"G  c #88BE27",
"H  c #8BBF26",
"J  c #82BD29",
"K  c #81BE29",
"L  c #83BF28",
"P  c #81BE2A",
"I  c #85BF28",
"U  c #84BF29",
"Y  c #85BF29",
"T  c #87BF2A",
"R  c #83BE29",
"E  c #88BE29",
"W  c #8ABF28",
"Q  c #96BF23",
"!  c #90BF29",
"~  c #96C31F",
"^  c #85C027",
"/  c #8EC124",
"(  c #8EC224",
")  c #8FC224",
"_  c #8DC127",
"`  c #8FC027",
"'  c #8CC226",
"]  c #8EC227",
"[  c #8FC227",
"{  c #8DC125",
"}  c #86C02C",
"|  c #85C12A",
" . c #8BC028",
".. c #8BC128",
"X. c #8DC029",
"o. c #8FC029",
"O. c #8DC12B",
"+. c #8CC129",
"@. c #93C223",
"#. c #96C120",
"$. c #96C121",
"%. c #97C121",
"&. c #95C220",
"*. c #94C221",
"=. c #95C221",
"-. c #96C220",
";. c #96C221",
":. c #97C221",
">. c #94C122",
",. c #95C122",
"<. c #94C023",
"1. c #94C123",
"2. c #95C123",
"3. c #97C022",
"4. c #96C122",
"5. c #97C122",
"6. c #96C123",
"7. c #97C123",
"8. c #94C222",
"9. c #95C222",
"0. c #94C223",
"q. c #95C223",
"w. c #95C323",
"e. c #96C222",
"r. c #97C222",
"t. c #96C223",
"y. c #97C223",
"u. c #96C323",
"i. c #97C323",
"p. c #92C124",
"a. c #93C124",
"s. c #93C224",
"d. c #92C225",
"f. c #93C225",
"g. c #92C126",
"h. c #93C126",
"j. c #90C226",
"k. c #90C227",
"l. c #91C227",
"z. c #93C226",
"x. c #94C124",
"c. c #95C124",
"v. c #94C125",
"b. c #96C124",
"n. c #94C224",
"m. c #95C225",
"M. c #96C324",
"N. c #97C324",
"B. c #95C127",
"V. c #95C223",
"C. c #98C222",
"Z. c #98C323",
"A. c #98C223",
"S. c #91C128",
"D. c #92C129",
"F. c #92C229",
/* pixels */
"                                  j M h h g X X g h f B B                                 ",
"                              f f f X X o o o o o g d f f f                               ",
"                        Z z f X g g X O O O O O O X X X g g h f z                         ",
"                    Z f h X X X X # $ ; : : , , : ; @ # X X o X X f z                     ",
"                  M f g X X # ; 1 8 0 7 r t t t r e w 8 1 ; + O X X h f                   ",
"                z h X X . * 1 0 t p I X.S.j.N.N.S.X.} p y 6 - ; # O X h f                 ",
"              f h g X @ 1 e i I ( j.j.w.w.w.w.w.N.N.N.j.( D p 7 2 @ O X X f               ",
"            f g X O ; 3 t P j.w.Z.w.w.w.w.w.w.w.w.w.w.w.Z.w.j.^ y 9 : # X g f             ",
"          z h X . : 5 i ( w.w.w.w.w.w.w.N.w.w.w.w.w.~ w.w.w.w.w.j.p e : # X g f           ",
"        m f X . : e p ( w.w.w.w.w.w.w.w.w.w.w.w.w.w.w.w.w.w.w.w.w.j.P r : # X h M         ",
"      Z f X O ; 6 p ( w.w.w.w.w.w.w.w.w.w.w.w.w.w.w.w.w.w.w.N.N.w.w.j.P w : O X h z       ",
"      f X O @ 3 p ( w.w.w.w.w.@.j.N.w.w.Q w.w.w.w.w.w.w.w.Q w.N.N.w.w.j.p q & O X h       ",
"    B h X # 1 t ( w.w.N.w.j...P I E j.N.w.w.w.w.w.w.N.X.E D G H N.w.w.w.j.i 8 + X g z     ",
"    z X O ; e P N.w.w.N. .i 7 4 4 7 p H w.w.w.w.w.j.P t 5 4 5 t P j.w.w.w.^ r : O g f     ",
"  z h X # 2 i j.w.w.w.( i 4 : @ + : 0 p j.w.w.w.w.I r < @ + @ < r ^ N.w.w.j.p 8 $ g h f   ",
"  f X o ; w E N.w.@.N.D 7 : O X X O : r ( N.w.w.j.i 8 @ o X X $ 2 p j.w.w.Z.E 7 : X g h   ",
"Z h X O 1 y ! A.w.N.N.P 3 @ o o o X @ 5 G w.w.w.j.t , O o o g X : i ( w.w.Z.j.i 2 O g h v ",
"f h X # 8 p B.A.w.w.N.P 9 $ o o o o & 6 G w.w.w.j.t = O o o o O : y ( ~ w.w.@.L 4 + g d f ",
"h g X $ 0 T N.Z.w.w.w.G 7 : . o o + = r j.w.w.Q N.p 4 @ o o o & 3 p @.~ w.w.w. .7 ; X d f ",
"h g X ; e X.N.w.w.w.w.j.p 0 , ; ; 1 7 u @.w.w.Q A.E y 8 : ; : 8 t G w.~ w.w.w.j.r : X g d ",
"h g O : r S.N.w.w.w.w.N.! p r 6 6 r | ( w.w.w.w.N.N...y 7 6 7 i E w.w.~ w.w.w.j.y 1 O o g ",
"g g O , t S.w.w.w.w.w.w.w.Q H G G H w.w.w.w.w.w.w.w.@.(  .I  .( N.w.w.w.w.w.w.N.y 2 . o g ",
"g g O 1 t B.N.w.w.w.w.w.w.w.Z.A.A.Z.w.w.w.w.w.w.w.w.w.w.w.N.N.w.w.w.w.w.w.w.w.N.i 1 . o g ",
"g g O , r S.A.Q w.w.w.w.w.w.w.w.w.w.w.w.w.w.w.w.w.w.w.w.w.w.w.w.w.w.w.w.w.w.w.N.i 1 . o g ",
"h g O : a S.N.N.w.w.w.w.w.w.~ w.w.w.w.w.w.w.w.w.w.w.w.w.w.w.w.w.w.w.w.w.w.w.w.N.t , O o h ",
"h g O ; e ..N.N.N.w.w.w.w.w.w.w.w.w.w.w.w.w.w.w.w.w.w.w.~ ~ w.w.w.w.Z.Z.Q w.w.j.r : O X h ",
"f g X @ q | N.N.N.w.w.@.w.w.N.w.w.w.w.w.w.w.w.w.w.w.w.w.w.w.w.w.j.j.j.Q w.Z.N. .7 ; O X f ",
"f d X # 8 p j.Z.N.X.P P G @.w.w.w.Q w.w.w.w.w.w.w.w.w.w.w.w.w.@. .p p I j.Z.N.P 4 + o X M ",
"  f g O , t H Z.( i 5 3 r P w.w.w.Q w.w.w.w.w.w.w.w.N.N.N.w.N.E y 8 8 r G A.S.i 2 . X h j ",
"  f f X ; 0 I N./ r = @ , r I @.w.w.w.w.w.w.w.w.w.w.w.N.N.j.H y 8 @ % 4 L N...e : o g f   ",
"    f g # 1 i d.( y 2 + + 1 r P j.w.w.w.w.w.w.w.w.w.w.w.N. .y 8 @ O : 7  .z.p 2 # X h     ",
"    f g X $ w P d.P w : . + , 6 i I j.N.N.w.w.N.N.@.j...p r 2 & . @ 8 i S.I e ; O X h     ",
"      h X . , r X.S.p 0 ; + + ; 8 r i p R I I I P p i a 9 : # . @ 8 y X.X.y 2 # X X M     ",
"      h X O + 8 i X.S.p 7 , @ . + ; , 2 9 4 6 0 9 8 1 ; # O + : 9 i ..S.p 9 @ O X h       ",
"        h X O ; 8 i ( j.u r 8 : @ + + # $ & & & $ # + + + ; 2 6 i X.S.p 6 ; O X h f       ",
"        f h X O ; w i ( d. .p 7 3 , ; $ # # . . # # & : 2 6 y | d.X.p e : . X X f         ",
"          f X X . ; 8 y ^ j.j. .P i r e 0 8 8 8 8 9 e t p ^ ( d...i 9 : . X X f           ",
"            f X X O * 2 7 p ( N.z.j.H I p p i i p p I X.B.B.X.p r 8 ; . X h h             ",
"              f g g X # : 9 y p G j.N.N.z.d.d.z.N.N.N.S.H P s w , # O X X f               ",
"                f h g X O $ : 9 7 y p ..( ( X.X.X...p i e 9 , & . X g h h                 ",
"                  f h g X X . * : 1 8 5 7 7 7 e w w 8 1 : & . o X g h f                   ",
"                      f h g g X o . + @ @ ; ; ; & @ # O o X X X h f                       ",
"                          x f h g X X X X X O O X X X X g h h f                           ",
"                              f f h d d d d g X g g d f f f                               ",
"                                    f f f f h h f f A                                     "
};
