/* XPM */
static char *_c71101bf4c54042d6f99bac2f07b436AgXaeAYpXz1QW7Mr[] = {
/* columns rows colors chars-per-pixel */
"60 60 156 2 ",
"   c None",
".  c #642F2A",
"X  c #65322A",
"o  c #68362B",
"O  c #6A3B2C",
"+  c #6B422E",
"@  c #73442C",
"#  c #7B4C2D",
"$  c #7F522D",
"%  c #6E4D30",
"&  c #6F5231",
"*  c #715632",
"=  c #715B33",
"-  c #736135",
";  c #756A37",
":  c #766F38",
">  c #777439",
",  c #787439",
"<  c #7A7D3B",
"1  c #FF3600",
"2  c #FF3B00",
"3  c #82552E",
"4  c #85582E",
"5  c #885C2E",
"6  c #8C612F",
"7  c #8B6430",
"8  c #8E6831",
"9  c #946C30",
"0  c #977231",
"q  c #9B7531",
"w  c #9E7832",
"e  c #A27C31",
"r  c #FF4302",
"t  c #FF4C05",
"y  c #FF5107",
"u  c #FF5408",
"i  c #FF5B0A",
"p  c #FF640D",
"a  c #FF690F",
"s  c #FF6C10",
"d  c #FF7413",
"f  c #FF7C15",
"g  c #7C863D",
"h  c #7D8C3E",
"j  c #7F923F",
"k  c #7F9440",
"l  c #A58332",
"z  c #A98432",
"x  c #AE8B33",
"c  c #B08C33",
"v  c #B59534",
"b  c #B89633",
"n  c #BB9D35",
"m  c #D48907",
"M  c #D98E07",
"N  c #DF9607",
"B  c #E39C07",
"V  c #FF8B1A",
"C  c #FF911D",
"Z  c #FF981F",
"A  c #EDA907",
"S  c #F5B307",
"D  c #FCBC07",
"F  c #FF9C21",
"G  c #C4A636",
"H  c #C7AA36",
"J  c #CBAC36",
"K  c #CEB237",
"L  c #D1B436",
"P  c #D7BE38",
"I  c #FFA623",
"U  c #FFAD26",
"Y  c #FFB429",
"T  c #FFBC2B",
"R  c #9FC23F",
"E  c #BDC22D",
"W  c #ADC236",
"Q  c #A3C33C",
"!  c #A8C339",
"~  c #B3C233",
"^  c #B8C330",
"/  c #D7C21E",
"(  c #DBC21C",
")  c #FFC107",
"_  c #F5C10D",
"`  c #FAC10A",
"'  c #E5C116",
"]  c #ECC112",
"[  c #E1C118",
"{  c #C7C227",
"}  c #CBC225",
"|  c #C5C229",
" . c #D2C221",
".. c #DCC137",
"X. c #DFC438",
"o. c #FFC42E",
"O. c #E4CC39",
"+. c #FDCD32",
"@. c #EBD439",
"#. c #EEDB3A",
"$. c #FED634",
"%. c #FEDB36",
"&. c #F2DC3A",
"*. c #FDDF38",
"=. c #F7E23A",
"-. c #FDE53A",
";. c #FEEB3B",
":. c #FFF13C",
">. c #809740",
",. c #819C42",
"<. c #83A343",
"1. c #84A844",
"2. c #85AA44",
"3. c #85AD45",
"4. c #85AE47",
"5. c #87B246",
"6. c #85B247",
"7. c #88B747",
"8. c #88B547",
"9. c #88B847",
"0. c #85B448",
"q. c #87B949",
"w. c #89B948",
"e. c #89BA48",
"r. c #89BC48",
"t. c #8ABE49",
"y. c #88BE4A",
"u. c #88B948",
"i. c #93BE43",
"p. c #8FC347",
"a. c #87C34C",
"s. c #8AC049",
"d. c #8BC349",
"f. c #89C04A",
"g. c #8BC14A",
"h. c #89C34B",
"j. c #89C24B",
"k. c #8BC34A",
"l. c #8AC34B",
"z. c #8CC349",
"x. c #8AC54B",
"c. c #8BC44A",
"v. c #89C44B",
"b. c #8CC54A",
"n. c #8CC74B",
"m. c #8AC64C",
"M. c #8AC74C",
"N. c #8BC44A",
"B. c #8CC84B",
"V. c #93C345",
"C. c #95C244",
"Z. c #95C344",
"A. c #94C244",
"S. c #94C144",
"D. c #93C345",
"F. c #9AC341",
/* pixels */
"                                                                                                                        ",
"                                                                                                                        ",
"                                                                                                                        ",
"                                                                                                                        ",
"                                                                                                                        ",
"                                                                                                                        ",
"                                                                                                                        ",
"                                                                                                                        ",
"                                              ) ) ) ) ) ) ) ) ) ) ) ) ) )                                               ",
"                                      ) ) ) ) ) ) ) ) ) ) ) ) ) ) ) ) ) ) ) ) ) )                                       ",
"                                  ) ) ) ) ) ) ) ) ) ) ) ) ) ) ) ) ) ) ) ) ) ) ) ) ) )                                   ",
"                              ) ) ) ) ) ) A B A ) ) ) ) ) ) ) ) ) ) ) ) ) ) ) ) ) ) ) ) )                               ",
"                            ) ) ) ) ) ) ) B m B ) ) ) ) ) ) ) ) ) ) ) ) ) ) ) ) ) ) ) ) ) )                             ",
"                          ) ) ) ) ) ) ) ) A B A ) ) ) ) ) ) ) ) ) ) ) ) ) ) ) ) ) ) ) ) ) ) )                           ",
"                        ) ) ) ) ) ) D D D D ) D D D D ) ) ) ) ) ) ) ) ) ) ) ) ) ) ) ) ) ) ) ) )                         ",
"                      ) ) ) ) ) ) ) S N N S ) S N N S ) ) ) ) ) ) ) ) ) ) ) ) ) ) ) ) ) ) ) ) ) )                       ",
"                      ) ) ) ) ) ) ) S M M S ) S M M S ) ) ) ) ) ) ) ) ) ) ) ) ) ) ) ) ) ) ) ) ) )                       ",
"                    ) ) ) ) ) ) ) ) D A A D ) D A A D ) ) ) ) ) ) ) ) ) ) ) ) ) ) ) ) ) ) ) ) ) ) )                     ",
"                    _ _ ` ` ` ` ` ` ` ` ` ` ` ` ` ` ` ` ` ` ` ` ` ` ` ` ` ` ` ` ` ` ` ` ` ` ` ` _ _                     ",
"                    / / / / / / / / / / / / / / / / / / / / / / / / / / / / / / / / / / / / / / / /                     ",
"                  z.V.Z.Z.Z.Z.Z.Z.Z.Z.Z.Z.Z.Z.Z.Z.Z.Z.Z.Z.Z.Z.Z.Z.i.i.Z.Z.Z.Z.Z.Z.Z.Z.Z.Z.Z.Z.Z.Z.Z.z.                  ",
"                h.h.h.h.v.m.m.v.h.h.v.h.q.3.6.h.m.v.h.h.h.h.h.m.<., < q.v.t.6.3.h.v.h.<.> g 0.m.h.h.h.                  ",
"                h.v.n.n.6.k g <.t.n.h.1.< ; : < j 3.h.n.n.v.v.7.< % : w.h.>., g t.B.1.> O % >.h.n.h.h.h.                ",
"                t.7.3.<.< & O ; <.w.1., O X X O & , k 1.6.w.7.h & + < 3.,.- O * 3.t.g + o o ; ,.w.h.h.h.                ",
"                  < ; % O o o O ; h > O o o o o o o + = < h h * o + ; < * O o + g h = o o o O = h <.1.                  ",
"                  O O O o o o o O + O o o o o o o o o O O + + O o o O O O o o o + + O o o o o O + + +                   ",
"                  o o o o o o o o o o o o o o o o o o o o o o o o o o o o o o o o o o o o o o o o X X                   ",
"                    o X . X X X X X X X X X X X X X X X X X X X X X X X X X X X X X X X X X X . X o                     ",
"                      7 9 9 9 9 9 9 9 9 9 9 9 9 9 9 9 9 9 9 9 9 9 9 9 9 9 9 9 9 9 9 9 9 9 9 9 9 7                       ",
"                      +.$.$.$.$.$.$.%.%.%.%.%.*.-.-.-.-.;.;.;.;.;.;.;.;.;.;.;.;.;.;.-.-.%.%.$.$.+.                      ",
"                  2 2 t u i i i p p s d f V C F U T +.%.-.;.;.;.;.;.;.;.;.;.;.;.;.;.%.T Z f a i y 2 2                   ",
"                  2 2 2 2 2 2 2 2 r r r t t y u i p p s d V F Y +.-.;.;.;.;.;.-.T C d i y t r 2 2 2 2                   ",
"                  2 2 2 2 2 2 2 2 2 2 2 2 2 2 2 2 2 2 2 2 t i a f C I T $.%.o.F d t 2 2 2 2 2 2 2 2 2                   ",
"                  2 2 2 2 2 2 2 2 2 2 2 2 2 2 2 2 2 2 2 2 2 2 1 1 2 t a V Z d r 2 2 2 2 2 2 2 2 2 2 2                   ",
"                  2 2 t y y y y y y y y y y y y y y y y y y y y y y y y y u y y y y y y y y y y t 2 2                   ",
"                      +.$.$.$.$.$.$.$.$.$.$.$.$.$.$.$.$.$.$.$.$.$.$.$.$.$.$.$.$.$.$.$.$.$.$.$.$.+.                      ",
"                      8 w l v H O.=.:.:.;.;.;.;.;.;.;.:.:.:.:.:.-.#.O.P K G n v x z l e q q q 0 7                       ",
"                    o X o O # 5 q c H O.;.;.;.;.;.;.;.&.X.L G b x e q 9 6 4 $ # @ @ O O o o o X X o                     ",
"                  o o o o o o o X O 3 z L @.=.&.O...J b w 6 # O X X X X X o o o o o o o o o o o o o o                   ",
"                  o o o o o o o o o o O # x K H e 3 O o o o o o o o o o o o o o o o o o o o o o o o o                   ",
"                  o o o o o o o o o o o O @ @ @ O O o o o o o o o o o o o o o o o o o o o o o o o o o                   ",
"                    & O X X X X X X X X X X . . X X X X X X X X X X X X X X X X X X X X X X X X O *                     ",
"                  9.,.g < < < < < < < < < < < < < < < < < < < < < < < < < < < < < < < < < < < < g ,.w.                  ",
"                  h.n.n.n.n.n.n.n.n.n.n.n.v.n.n.n.n.n.n.n.n.n.n.v.v.n.n.n.n.n.n.n.n.n.v.m.m.n.n.n.n.z.z.                ",
"                h.h.h.h.h.h.h.h.h.h.h.h.z.z.z.z.h.h.h.h.h.h.h.h.V.F.F.z.h.z.z.z.h.h.z.V.Z.V.z.h.h.h.h.h.                ",
"                h.h.h.h.h.z.z.z.h.h.h.z.F.! Q Z.z.z.z.h.h.h.h.h.~ ( } Z.h.Z.Q Q z.h.V.~ [ | F.h.h.h.h.h.                ",
"                h.h.h.h.F.E  .^ Z.h.z.! ( ' ' ( | ! V.h.h.h.h.F. .] { V.V.E ( | V.a.W [ ` ] ~ z.h.h.h.h.                ",
"                  p.! ^  .] ` ' ^ F.! / ` ) ) ) _ ( | ^ Q F.F.| ] _ | ! E ] ` ' R F.} ` ) ) ( ~ Z.z.h.h.                ",
"                    ( _ ` ) ) ) [ } / ` ) ) ) ) ) ) ` ]  .| } ] ) _ (  .] ) ) _ | } ] ) ) ) ` ' | ~ V.                  ",
"                    ) ) ) ) ) ) ) ` ) ) ) ) ) ) ) ) ) ) ` ` ` ) ) ) ) ` ) ) ) ) ` ` ) ) ) ) ) ) ` `                     ",
"                    ) ) ) ) ) ) ) ) ) ) ) ) ) ) ) ) ) ) ) ) ) ) ) ) ) ) ) ) ) ) ) ) ) ) ) ) ) ) ) )                     ",
"                      ) ) ) ) ) ) ) ) ) ) ) ) ) ) ) ) ) ) ) ) ) ) ) ) ) ) ) ) ) ) ) ) ) ) ) ) ) )                       ",
"                          )   ) ) ) ) ) ) ) ) ) ) ) ) ) ) ) ) ) ) ) ) ) ) ) ) ) ) ) ) ) )   )                           ",
"                                                                                                                        ",
"                                                                                                                        ",
"                                                                                                                        ",
"                                                                                                                        ",
"                                                                                                                        ",
"                                                                                                                        ",
"                                                                                                                        "
};
