/* XPM */
static char *b53d9c5a6a854dc08523e93d5dfcefa7sqfWyXhuszPkcow6[] = {
/* columns rows colors chars-per-pixel */
"50 50 9 1 ",
"  c None",
". c #07E543",
"X c #07E643",
"o c #07E544",
"O c #07E644",
"+ c #08E543",
"@ c #08E643",
"# c #08E544",
"$ c #08E644",
/* pixels */
"                                                  ",
"                                                  ",
"                                                  ",
"                                                  ",
"                                                  ",
"                                                  ",
"           @$@$$$$$$$$$$$$$$$$$$$$$$@$@           ",
"        $@$$$$$$$$$$$$$$$$$$$$$$$$$$$$$$$$        ",
"       $$@.                            o@$@       ",
"      @$.       o@.                      o$@      ",
"     @@    o@.  $$$                        @@     ",
"    $$     $$$  .$.                         $$    ",
"   @$o     .$.                              .$$   ",
"   @@         o@.                            $$   ",
"   $.         $$$                            o$   ",
"  @$          .$.                             $.  ",
"  @$                                          $$  ",
"  $$$$$$$$$$$$$$$$$$$$$$$$$$$$$$$$$$$$$$$$$$$$$$  ",
" @$$$$$$$$$$$$$$$$$$$$$$$$$$$$$$$$$$$$$$$$$$$$$$. ",
" $@                                            @$ ",
"o$.    .@@        o$@        o@@.       o@@    o$$",
"$$$$$@$$@$$$@  ..$$@$$.    .$$$@$@$  oo$$$$$$@$$$o",
"  $$$$o$  $$$$$$$o  $$$$$$$$$@  .@$$$$$.  o@$$$$  ",
"  $$         @@        o.@@$       @$         $$  ",
"  $$                                          $$  ",
"  $$                                          $$  ",
"  $$$$$$$$$$$$$$$$$$$$$$$$$$$$$$$$$$$$$$$$$$$$$$  ",
" o$$$$$$$$$$$$$$$$$$$$$$$$$$$$$$$$$$$$$$$$$$$$$$o ",
"o$.                                            o$.",
".$                                              $.",
".$                                              $.",
"o$o                                            o$.",
" o$$$$$$$$$$$$$$$$$$$$$$$$$$$$$$$$$$$$$$$$$$$$$$o ",
"  $$$$$$$$$$$$$$$$$$$$$$$$$$$$$$$$$$$$$$$$$$$$$$  ",
"  $$                                          $$  ",
"  $$                                          $$  ",
"  $$                                          $$  ",
"  $$                                          $$  ",
"  $$                                          $$  ",
"  $$                                          $$  ",
"  @$                                          $@  ",
"   $@                                        @$   ",
"   o$$$$$$$$$$$$$$$$$$$$$$$$$$$$$$$$$$$$$$$$$$.   ",
"     @$$$$$$$$$$$$$$$$$$$$$$$$$$$$$$$$$$$$$$@     ",
"                                                  ",
"                                                  ",
"                                                  ",
"                                                  ",
"                                                  ",
"                                                  "
};
