/* XPM */
static char *_88ea35991732a06bbbada3ef9241b17_removebg_preview__1_1711477765[] = {
/* columns rows colors chars-per-pixel */
"60 60 88 1 ",
"  c None",
". c #0E1017",
"X c #0F131A",
"o c #12161D",
"O c #16191E",
"+ c #1A1A1F",
"@ c #141720",
"# c #151A22",
"$ c #1A1D24",
"% c #171D28",
"& c #1A1E29",
"* c #1D2027",
"= c #1D232B",
"- c #1E2530",
"; c #1F2832",
": c #202126",
"> c #22252D",
", c #23292F",
"< c #212732",
"1 c #242B34",
"2 c #2A2D35",
"3 c #252D3A",
"4 c #2A2E39",
"5 c #2A3137",
"6 c #27313B",
"7 c #2B333C",
"8 c #2F383F",
"9 c #303037",
"0 c #32343D",
"q c #34393F",
"w c #393A3E",
"e c #2C3542",
"r c #2F3942",
"t c #2F3749",
"y c #333642",
"u c #333B44",
"i c #3A3C45",
"p c #343E49",
"a c #3B3E49",
"s c #354147",
"d c #3A4147",
"f c #36414B",
"g c #3C434C",
"h c #3D484F",
"j c #374552",
"k c #3B4551",
"l c #3E4A53",
"z c #42444C",
"x c #45484E",
"c c #4A494F",
"v c #434653",
"b c #434C54",
"n c #4A4C54",
"m c #444E59",
"M c #4B4E59",
"N c #455157",
"B c #4C5157",
"V c #45525A",
"C c #4B545C",
"Z c #4D595E",
"A c #52545C",
"S c #52585E",
"D c #495760",
"F c #4C5B62",
"G c #4F5F68",
"H c #535661",
"J c #525C63",
"K c #5A5C64",
"L c #5C5F6A",
"P c #536166",
"I c #54656B",
"U c #5C636B",
"Y c #56686C",
"T c #59696E",
"R c #5B6D73",
"E c #61646C",
"W c #65696F",
"Q c #626571",
"! c #666973",
"~ c #6A6D76",
"^ c #6B6E78",
"/ c #61737B",
"( c #6D717A",
") c #72767D",
"_ c #777B84",
"` c #797D8B",
"' c #7C8089",
"] c #92969D",
/* pixels */
"                                                            ",
"                                                            ",
"                                                            ",
"                                                            ",
"                         )Ksg                               ",
"                        b]'NNlh                             ",
"                       PSKEdPh7u                            ",
"                      NdzQABq><7qnn                         ",
"                    Bx2bAbAB5=sZAA0zcw                      ",
"                    Bxs55!w:28YZUziZBi                      ",
"                    BNP8>z251sTUx5xYYS                      ",
"                   ZABx7,,25,>NEisRYPPUB                    ",
"                  TPAx51usq1=,bzq5P//PNSvic                 ",
"                nCTNg,*2ihiizAx0:1ibTBEAwni                 ",
"                Bxg72>w~USnBKKE(c,>2SKz5gJZ                 ",
"                Sx71>i!LinKLEW!~(A4zWb0dFJFJ                ",
"               ZBi7>zWBa!!UCmIU(^!EAayuYYCCI                ",
"               Ih1,i)ni!LARGC/DM!^~Ki>eCRFhlC               ",
"              NC370)Si~SvFFhhFGNhL(_^07eGYCbAAv             ",
"             ACg-1K~4LngCmCmbCmCCyA!_W2>mFUEBci             ",
"              Sz12QinK7lCSPNlPJCNs6L~(cHWAAz9d0             ",
"              h7-aE9QghVFZz52dZPCbuf(^LCv077pl              ",
"              t;<CHzQ7FGYNqYYgqJTGC4U(Ua1eblft              ",
"             GFr1HiaA1TCCYhiiiPYCGY1v`!v=rjutee             ",
"            hVZlpu>0v5PTCNFduZFNhRR1qHLCrZFf;;e             ",
"           u8lffNu20m58NTCVZhCbP/YN5uBxJlRFFD66j            ",
"           gs1rhsei9b7*,8rDNdTVls7,1uCmulYlellfjl           ",
"            5168==02xh12gO5gdu*-N:$qybl7llfe;jl8t           ",
"            =ru1&3i2gNm>>=qhgg*>u:1l7blff;6srfs-            ",
"            =3p;epy1i1YDisp=,70>*;NIuC886;;rr8=*            ",
"            57e644y<i<lYIb7=1=lNlYRs=nf168561*=7            ",
"             113<>4:pfl7<fuuu1fNIRD3$vs-7l8;=1up            ",
"             sspe4y:a&p7$VVDNmNt=7ls>v3-ek3=*es6            ",
"             upfyyy&v@3v<ljkhkmpOejs<v4e3u1u-61             ",
"             uuee<y:v%<mfNVmlmlk;lrO<vi7--<u1=1             ",
"             kljy<e:a&3vrfmbkDDmrG1#<MMpe771615             ",
"             7epe<y:y$317fre7pausV;@;laphkgfu3<             ",
"             teee-y$4&&o=;177u7f8s6#3lvteuafp1=             ",
"             3ete-0:4@o###o%$=&1=*6#<app77rrr--             ",
"             -;;<%2#2oooX@o#$oo#Oo*==avplljku<=             ",
"             <334&9:2ooo@o@>=%ooo@o%&ykppjjjt-=             ",
"             e3<<$,+>ooooo&34-o@@@oX&pateeeee%=             ",
"             <><>$+O>+Oo$11ai2$o@@XX:iattett6-%             ",
"            V71=:$:+::2<0Bzxia1$o@@.&0yeeeete&&             ",
"           bNCZN7=:$$$$5znv22wzn>oo.+9y<33333%%             ",
"           bmMnm4=&O$O+40a4>*5xn4>$$:,0<--=-=#$             ",
"             zgg2$      ,$$:=,0ii02,$:2333111#*h            ",
"                            #$O:40$$$><<13171#7e            ",
"                                >>$+O>1,<><7<=h<            ",
"                                    $i4>=$<7=u7             ",
"                                     VCmhu715r=             ",
"                                     mbnUNDDl>              ",
"                                     ghzKzlbf:              ",
"                                      viagmCf               ",
"                                          Bx7               ",
"                                                            ",
"                                                            ",
"                                                            ",
"                                                            ",
"                                                            "
};
