/* XPM */
static char *e4ee91ca1b494555d6db4c1b4323cf28letGUnLQE9WvM4Wi[] = {
/* columns rows colors chars-per-pixel */
"60 60 138 2 ",
"   c None",
".  c #0F1218",
"X  c #13161C",
"o  c #16181E",
"O  c #1C1B1F",
"+  c #131720",
"@  c #161B23",
"#  c #191D24",
"$  c #171E28",
"%  c #1A1F28",
"&  c #201F25",
"*  c #1C2127",
"=  c #1D232B",
"-  c #1E2631",
";  c #212225",
":  c #22252C",
">  c #29272E",
",  c #22282E",
"<  c #28282F",
"1  c #212731",
"2  c #282730",
"3  c #242B34",
"4  c #2A2D35",
"5  c #252D3A",
"6  c #2A2E39",
"7  c #293136",
"8  c #27303B",
"9  c #2C333C",
"0  c #2E383E",
"q  c #32343D",
"w  c #33393F",
"e  c #2C3542",
"r  c #2E3943",
"t  c #2D3548",
"y  c #2F3848",
"u  c #333743",
"i  c #343B44",
"p  c #3A3D45",
"a  c #343D49",
"s  c #3A3D49",
"d  c #354146",
"f  c #3B4147",
"g  c #36414B",
"h  c #3B434B",
"j  c #3E494E",
"k  c #364451",
"l  c #3B4651",
"z  c #3D4A52",
"x  c #3F5059",
"c  c #42454C",
"v  c #44494E",
"b  c #444653",
"n  c #434C54",
"m  c #4A4D54",
"M  c #444E58",
"N  c #4A4E59",
"B  c #465156",
"V  c #4D5057",
"C  c #45525A",
"Z  c #4B545B",
"A  c #4C595E",
"S  c #52555C",
"D  c #55585E",
"F  c #585A5F",
"G  c #4C5760",
"H  c #4D5B62",
"J  c #525560",
"K  c #525F65",
"L  c #515F64",
"P  c #545D66",
"I  c #555F67",
"U  c #535B63",
"Y  c #585960",
"T  c #5A5F62",
"R  c #5B5E65",
"E  c #5C5E65",
"W  c #5C5F69",
"Q  c #5B5F6C",
"!  c #536065",
"~  c #536165",
"^  c #536265",
"/  c #516167",
"(  c #566265",
")  c #546464",
"_  c #556467",
"`  c #506065",
"'  c #586067",
"]  c #5A6067",
"[  c #5B6167",
"{  c #5C6067",
"}  c #536068",
"|  c #536168",
" . c #566268",
".. c #54626A",
"X. c #566568",
"o. c #55646A",
"O. c #55676C",
"+. c #54646B",
"@. c #5F6168",
"#. c #5E6169",
"$. c #5F6369",
"%. c #5F636B",
"&. c #5C6669",
"*. c #5E636B",
"=. c #57696D",
"-. c #5B6C72",
";. c #5D6D73",
":. c #5E6E73",
">. c #5D6C74",
",. c #5E6E75",
"<. c #596B73",
"1. c #5F7072",
"2. c #5E7075",
"3. c #616369",
"4. c #616469",
"5. c #61636C",
"6. c #62656D",
"7. c #64666D",
"8. c #64666E",
"9. c #63666E",
"0. c #65686F",
"q. c #646771",
"w. c #616671",
"e. c #676971",
"r. c #666C74",
"t. c #656972",
"y. c #6A6E77",
"u. c #6C6E76",
"i. c #6A6E76",
"p. c #6A6D78",
"a. c #607279",
"s. c #6B7079",
"d. c #71747B",
"f. c #75797F",
"g. c #677A81",
"h. c #797B83",
"j. c #8B8D95",
"k. c #8F949A",
/* pixels */
"                                                                                                                        ",
"                                                                                                                        ",
"                                                                                                                        ",
"                                                  f.A                                                                   ",
"                                                v k.' h h j                                                             ",
"                                              ) Z j.s.Z K n g                                                           ",
"                                            1.n Z Y N w B 9 3 9                                                         ",
"                                            f c n %.4.T 7 * 7 g p V c                                                   ",
"                                        m n n v v Z p h 9 , B A ' S w m m                                               ",
"                                        S n / 0 f r.4 4 3 z 2.S Y w p / Z v                                             ",
"                                      c V Z ;.d w w : 9 3 i I 8.p w A X.) H /                                           ",
"                                    ( Z D n i 3 7 d 0 9 = = A S w f ,.,.X./ K Z D c                                     ",
"                                   .;.n w w , = 3 h g 3 : 9 v i 4 3 Z ;.a.U Z { f p v                                   ",
"                              S n } H h i = ; n V S Z n J 8.S p * 1 9 i } Z %.v w B f                                   ",
"                              n N z 0 3 * : D 3.q m D V F Y u.8.m 2 * 9 ' R i 4 h K U                                   ",
"                              b Y p 5 * > D %.q p       e.q.p.q.9.S q n %.f w v U H H U                                 ",
"                              H v 9 6 4 S m f 9 f         U I Z W Y 8.m p w i O.=.H Z U &.                              ",
"                            H H 3 3 : E 5.f H p           ;. .M b Y y.0.f : 9 C -.H b h Z                               ",
"                          v H a % 4 N h.p h z p             Z K G g f y.y.p 6 9 H O.Z M Z D m                           ",
"                          D Z 0 @ 9 d.V w Z b b             n C M K 9 4 S D 4 1 M H 9.e.N c p f                         ",
"                          c D 0 = p 8.q b  .Z U               H H Z C 9 i 9.Z Y y.S n p q g i                           ",
"                          h a 3 1 J S h H w 9 N                 Z H H z 9 %.%.m h w 9 r u z                             ",
"                          z 8 = 9 Q c n K p i                     i C H 3 Z w.s - 9 C z h a a                           ",
"                          } z 5 u Y 9 h b B                       7 Z O.0 f w.n = e z r e e e                           ",
"                      h h H C x r i : H n i                         B } g i Y J u H H l 5 5 5                           ",
"                      9 i n r n l r : i a ,                         h g i a v U C <.H C H e 5 g                         ",
"                      a 0 3 g z 0 i 4 w i =                         i * 7 n M i g +.z 9 h C g k l                       ",
"                      3 9 3 9 3 @ 4 < 4 9 ,                         > @ w Z z 9 l n g r - d C r r                       ",
"                        3 i 0 = % i 6 * : 9                           : z / z g i 3 3 g i g g 3                         ",
"                        = r r - i g 9 C n g                           C O.n 9 0 9 3 3 i i i : @                         ",
"                        0 9 0 8 9 9 9 i n d                           g.<.i a 3 9 9 3 9 3 * % 9                         ",
"                        9 3 3 9 * 3 : @ 3 h a                         C C l a = 9 l i 3 = = r a                         ",
"                        g a a a 6 u 2 @ 3 j g                         g z } r = 9 z 6 = @ 9 a 9                         ",
"                        a i g h 0 s 4 = g g C                         n g 6 5 9 9 a 3 0 3 8 8                           ",
"                        g u 9 r 3 q 4 3 a n z A                       u M % 0 9 = 3 3 a 3 * 3                           ",
"                        l z l g 3 6 > % 9 9 , a                     i h l = b 0 9 0 9 3 3 3 3                           ",
"                        e e u g 5 9 6 o : 4 * *                     h i i : h g g M l a a 6 3                           ",
"                        a e 9 r 3 4 6 X @ @ %                       g 3 r 3 i l 0 g g h a 3 =                           ",
"                        e e t y 5 4 q X X + *                       9 % % 3 i i 7 3 9 i i 1 =                           ",
"                        = - 5 5 - = 2 X @ % 9                       * % @ % b h l z h g i 3 -                           ",
"                        3 3 3 5 - : 4 o @ @ 9 g                   3 @ @ @ % h l g l z z h 3 =                           ",
"                        6 3 3 5 3 % > o @ = a a                   * @ @ + % s r e e e r r = =                           ",
"                        5 3 : 3 = @ & o w h g c n                 . o @ + @ u a t e e 9 8 - *                           ",
"                        u 1 * = # @ ; ; c S b q i                 : @ X X o 9 t t t t a r = $                           ",
"                      C C M n a : = ; > p b i 1 9                   3 9 @ * u 5 5 e 5 e 8 $ @                           ",
"                      M b Y C z = * # O 2 * * : 7                   N Z : : 9 1 - - = - - @ @                           ",
"                        N p h h - %           %                   p m c f 7 6 5 5 5 3 - 3 % @ g                         ",
"                              w                                   , 4 p s p 3 1 3 6 3 5 9 @ : a                         ",
"                                                                  # o % 2 q 3 3 3 3 3 9 5 @ a 9                         ",
"                                                                          q , * * * 1 9 3 3 g =                         ",
"                                                                          Z n g 0 3 : 3 3 i 3                           ",
"                                                                          n n M U C C b g 9 %                           ",
"                                                                          b v m 8.h z C z =                             ",
"                                                                          i v i n p b M h 3                             ",
"                                                                                  N S N a                               ",
"                                                                                                                        ",
"                                                                                                                        ",
"                                                                                                                        ",
"                                                                                                                        ",
"                                                                                                                        "
};
