/* XPM */
static char *go_left1712591743[] = {
/* columns rows colors chars-per-pixel */
"60 60 54 1 ",
"  c black",
". c #083F89",
"X c #430C0E",
"o c #090202",
"O c #F11C25",
"+ c #EC1B24",
"@ c #DF1B23",
"# c #ED1B24",
"$ c #EE1B24",
"% c #F01C24",
"& c #140406",
"* c #E41B24",
"= c #29090B",
"- c #C71921",
"; c #AA171D",
": c #E91C24",
"> c #D81A22",
", c #EA3D44",
"< c #1E0608",
"1 c #340A0C",
"2 c #3E0A0C",
"3 c #8C141A",
"4 c #4D0B0E",
"5 c #680E12",
"6 c #5F0E11",
"7 c #EF252D",
"8 c #BD181F",
"9 c #D21A22",
"0 c #041428",
"q c #8F151B",
"w c #EE2F37",
"e c #010810",
"r c #851217",
"t c #91161B",
"y c #751116",
"u c #7D1318",
"i c #062753",
"p c #712E31",
"a c #9D141A",
"s c #D6464C",
"d c #083A7E",
"f c #08326A",
"g c #BD454A",
"h c #582427",
"j c #451E1F",
"k c #952328",
"l c #061F40",
"z c #C13237",
"x c #E1262D",
"c c #A13C41",
"v c #8C3438",
"b c #CF2830",
"n c #551215",
"m c #080C02",
/* pixels */
"                                                            ",
"                                                            ",
"                        o<jhhppphj=&                        ",
"                     &jvgss,,,,,,,sgcp=o                    ",
"                   =pg,w7+#$$$$$##77w,sch&                  ",
"                 =ps,7############+#$$%w,gho                ",
"               ohgw######################7,c1               ",
"              <v,7#######################++7sh              ",
"             =zw##########################+#7,po            ",
"            2z7#############################+#wk&           ",
"           1z7+################################wko          ",
"          =z7##################################:wu          ",
"         &k7####################################:xn         ",
"         yw$####################################$7b=        ",
"        1b$#######################################7ko       ",
"       ok7########################################$xX       ",
"       2x$+######################+#################O;o      ",
"       tO##$%%$$%%#+############$%%#%%%############+xX      ",
"      =9%#$:8r56u;*%###########%@;y653-+$###########Oq      ",
"      6:#%96&    oX8%#########$;2o    &5>%#########+O-<     ",
"     oaO$-2        =8%#######$a&        4>$+#########:4     ",
"     &-O*4          1>$#####$-<          5:#########+%u     ",
"     1@O;oelile      r%######5 0ii0      &8%#########%;o    ",
"     n:#6ef...ie     X*$###$>=0d...l      y$#########%8&    ",
"     5%*2l.....0     =>$###%-&f....de     4+#########$9=    ",
"     u%*1i.....l     <9$###%8&f....de     4:#########%>1    ",
"     3%:X0....d0     1@$###%-<i....fe     6##########$@2    ",
"     q%%y id.dl      6+####$*2ef..f0      tO#########$@2    ",
"     t%%8& 000      o;%#####%3 e00e      =9$#########$@X    ",
"     t%+#u          5:######$@4         oa$+#########$@X    ",
"     t%##*yo      o6@$+######$-X       &3:###########$@X    ",
"     qO##+:;X&oo&2t*$########$$@r1&oo<4;+############$@X    ",
"     tO+###%*-;;8@%$###########$$>8;;-:%#############$@X    ",
"     t%+#####%OO%$###############$OO%$$##############$@X    ",
"     q%+#############################################$@X    ",
"     q%+#############################################$@X    ",
"     q%+#############################################$@X    ",
"     q%+#############################################$@X    ",
"     q%+#############################################$@X    ",
"     q%+#############################################$@X    ",
"     q%+#############################################$@X    ",
"     3%+#############################################$@X    ",
"     3%+#############################################$@X    ",
"     3%+#############################################$@X    ",
"     3%+#############################################$@X    ",
"     3%+#############################################$@X    ",
"     3O+#############################################$@X    ",
"     3%+#############################################$@X    ",
"     3O+#############################################$@X    ",
"     3O+#############################################$@X    ",
"     3%+######$##############$$#############$########$@X    ",
"     r%#####$+*:############$*@:$##########$**$$#####$@2    ",
"     r%####$>u25-$########$*a425-#########:;4Xq@$####$>2    ",
"     u%###$94   1-%######$*yo   =8$######+a&  o69$+##$>1    ",
"     y$##$>4     X>$#####:ro     2>$####%8<     49$##$9=    ",
"     5+#$*5       5*$###%;&       y:###%92       4>$#%8&    ",
"     X*%:ro       ou*%#%8=        &;$$O@6        o6@%%t     ",
"     &a9r&         o5-9;1          <a>-6           6-81     ",
"      &=o            <=o            o=<             <<      ",
"                                                            "
};
