/* XPM */
static char *go_right1712591743[] = {
/* columns rows colors chars-per-pixel */
"60 60 47 1 ",
"  c #EF1B24",
". c #8E141A",
"X c #070102",
"o c #180507",
"O c #430B0E",
"+ c #DF1B23",
"@ c #083F89",
"# c black",
"$ c #F01C24",
"% c #ED1B24",
"& c #0E0304",
"* c #E41B24",
"= c #600E12",
"- c #240809",
"; c #E91C24",
": c #C71921",
"> c #3A0B0D",
", c #2E0A0C",
"< c #D81A22",
"1 c #EA3D44",
"2 c #BD181F",
"3 c #4E0B0E",
"4 c #EF242C",
"5 c #7A1216",
"6 c #A2171D",
"7 c #D21A22",
"8 c #6B1014",
"9 c #851218",
"0 c #EE2F37",
"q c #AD161D",
"w c #010810",
"e c #532225",
"r c #733033",
"t c #04162E",
"y c #D6464C",
"u c #96181E",
"i c #083A7E",
"p c #052650",
"a c #BD454A",
"s c #C33036",
"d c #DE272E",
"f c #051122",
"g c #062042",
"h c #08336D",
"j c #A13C41",
"k c #90292D",
"l c #082C5E",
/* pixels */
"############################################################",
"############################################################",
"#######################Xo,eerrree>-&########################",
"####################X,rjay1111111yyareo#####################",
"##################&ejy104%%%    %$4401ar-###################",
"################Xea10%%%%%%%%%%%%%;%%%41yr-#################",
"###############,j14%%%%%%%%%%%%%%%%%%%%%%0aeX###############",
"#############Xey0%%%%%%%%%%%%%%%%%%%%%%%% 41ko##############",
"############&r14%%%%%%%%%%%%%%%%%%%%%%%%%%%%0s,#############",
"###########&k0%%%%%%%%%%%%%%%%%%%%%%%%%%%%% ;0s>############",
"##########&k0%%%%%%%%%%%%%%%%%%%%%%%%%%%%%%%%%4s>###########",
"#########X50%%%%%%%%%%%%%%%%%%%%%%%%%%%%%%%%%%%4s-##########",
"#########ed%%%%%%%%%%%%%%%%%%%%%%%%%%%%%%%%%%%%%46&#########",
"########,s$%%%%%%%%%%%%%%%%%%%%%%%%%%%%%%%%%%%%%%08#########",
"#######Xu4%%%%%%%%%%%%%%%%%%%%%%%%%%%%%%%%%%%%%%%%d,########",
"#######Od%%%%%%%%%%%%%%%%%%%%%%%%%%%%%%%%%%%%%%%%;4uX#######",
"######X6$%%%%%%%%%%%%%%%%%%%%%%%%%%%%%%%%%%%%%%%%%%d>#######",
"######Od%%%%%%%%%%%%% $ % $%%%%%%%%%%%%%%%$$%%$$%%%$u#######",
"######.$%%%%%%%%%%%%%:.8=5q+ %%%%%%%%%%%$*q5==92; %$7-######",
"#####-:$%%%%%%%%%% <8o####X>q%%%%%%%%%% 2O&####&=7$%;=######",
"#####3*%%%%%%%%%%%<3########o6%%%%%%%% 2-########>: $6X#####",
"#####5$%%%%%%%%%%;8##########-:%%%%%%%<>##########3*$:o#####",
"####X6$%%%%%%%%% 2&######tppf#8%%%%%% 9######wglgwX6$+>#####",
"####o2$%%%%%%%%%%5######g@@@it,<%%%%%*O#####wl@@@hw=%;3#####",
"####,7 %%%%%%%%%;3#####wi@@@@lo:$%%%%<-#####t@@@@@g>*$8#####",
"####><%%%%%%%%%%;3#####wi@@@@ho2$%%%%7-#####t@@@@@p>* 9#####",
"####O+%%%%%%%%%%%=#####wh@@@@po: %%%%+,#####fi@@@@tO; 9#####",
"####O+%%%%%%%%%%$.######fh@@lw>*%%%%%;=######gi@ip#5  .#####",
"####O+%%%%%%%%%% 7,######wttw#. %%%%%$q&######ftf#o2 $.#####",
"####O+%%%%%%%%%%% u&#########3+%%%%%%%;8##########5%%$.#####",
"####O+%%%%%%%%%%%%;9&#######O: %%%%%%% +=X######&8*%%$.#####",
"####O+%%%%%%%%%%%%%%q3oXX&,9+ %%%%%%%%%%*u>&XXoO6;%%%$.#####",
"####O+%%%%%%%%%%%%%%$;:qq2<%%%%%%%%%%%%%% +2qq:*$%%%%$.#####",
"####O+%%%%%%%%%%%%%%%% $$$%%%%%%%%%%%%%%%%%$$$$%%%%%%$.#####",
"####O+%%%%%%%%%%%%%%%%%%%%%%%%%%%%%%%%%%%%%%%%%%%%%%%$.#####",
"####O+%%%%%%%%%%%%%%%%%%%%%%%%%%%%%%%%%%%%%%%%%%%%%%%$.#####",
"####O+%%%%%%%%%%%%%%%%%%%%%%%%%%%%%%%%%%%%%%%%%%%%%%%$.#####",
"####O+%%%%%%%%%%%%%%%%%%%%%%%%%%%%%%%%%%%%%%%%%%%%%%%$.#####",
"####O+%%%%%%%%%%%%%%%%%%%%%%%%%%%%%%%%%%%%%%%%%%%%%%%$.#####",
"####O+%%%%%%%%%%%%%%%%%%%%%%%%%%%%%%%%%%%%%%%%%%%%%%%$.#####",
"####O+%%%%%%%%%%%%%%%%%%%%%%%%%%%%%%%%%%%%%%%%%%%%%%%$.#####",
"####O+%%%%%%%%%%%%%%%%%%%%%%%%%%%%%%%%%%%%%%%%%%%%%%%$.#####",
"####O+%%%%%%%%%%%%%%%%%%%%%%%%%%%%%%%%%%%%%%%%%%%%%%%$.#####",
"####O+%%%%%%%%%%%%%%%%%%%%%%%%%%%%%%%%%%%%%%%%%%%%%%%$.#####",
"####O+%%%%%%%%%%%%%%%%%%%%%%%%%%%%%%%%%%%%%%%%%%%%%%%$.#####",
"####O+%%%%%%%%%%%%%%%%%%%%%%%%%%%%%%%%%%%%%%%%%%%%%%%$.#####",
"####O+%%%%%%%%%%%%%%%%%%%%%%%%%%%%%%%%%%%%%%%%%%%%%%%$.#####",
"####O+%%%%%%%%%%%%%%%%%%%%%%%%%%%%%%%%%%%%%%%%%%%%%%%$.#####",
"####O+%%%%%%%%%%%%%%%%%%%%%%%%%%%%%%%%%%%%%%%%%%%%%%%$.#####",
"###XO+%%%%%%%%%%%%%%%%%%%%%%%%%%%%%%%%%%%%%%%%%%%%%%%$.#####",
"####O+%%%%%%%%%%%%%%%%%%%%%%%%%%%%%%%%%%%%%%%%%%%%%%%$.#####",
"####O+%%%%%%%%**%%%%%%%%%%%%;+*%%%%%%%%%%%%%;*%%%%%%%$9#####",
"####><%%%%%%+.O36;%%%%%%%%%:8>36*%%%%%%%%%%:=O5<%%%%%$9#####",
"####><%%%%%7=X##ou%%%%%%%%2,###X5*%%%%%%% :>###37%%%% 5#####",
"####-7 %%%73#####-2 %%%%%<O#####X9;%%%%%%<O#####3<%%% 5#####",
"####o2$%%<3#######>7 %%%;5#######oq %%%%*=#######8*%%%=#####",
"####X.$$+=#########=+$%%6o########,2 % *5X#######X9;$*O#####",
"#####,2:=X##########=:<6-##########,67:8X#########&976&#####",
"######o-#############o,&############&,o############X-&######",
"############################################################"
};
