/* XPM */
static char *efc99645142d44dd80891775140e88799lSoJG9vbrKxmDRc[] = {
/* columns rows colors chars-per-pixel */
"60 60 227 2 ",
"   c None",
".  c #020505",
"X  c #020806",
"o  c #040809",
"O  c #0C0C0D",
"+  c #030708",
"@  c #120C0E",
"#  c #0B0E11",
"$  c #0C1112",
"%  c #111213",
"&  c #18191C",
"*  c #110E10",
"=  c #30170E",
"-  c #1D1F22",
";  c #0B1F20",
":  c #1A2527",
">  c #1A3236",
",  c #222626",
"<  c #222629",
"1  c #252B2C",
"2  c #2A2E2E",
"3  c #342D29",
"4  c #292E31",
"5  c #252D32",
"6  c #263639",
"7  c #24231F",
"8  c #561F06",
"9  c #551F09",
"0  c #411A0A",
"q  c #532007",
"w  c #57220A",
"e  c #4D2A18",
"r  c #4B2715",
"t  c #572B18",
"y  c #4D301F",
"u  c #6A290B",
"i  c #742904",
"p  c #742D0A",
"a  c #792E0B",
"s  c #752905",
"d  c #7D320E",
"f  c #642D14",
"g  c #683419",
"h  c #7E3311",
"j  c #7B371B",
"k  c #752F10",
"l  c #45372C",
"z  c #7B3E23",
"x  c #20403F",
"c  c #46413A",
"v  c #584235",
"b  c #6E4C35",
"n  c #293D43",
"m  c #1D4546",
"M  c #2A5556",
"N  c #2F4A4C",
"B  c #295F61",
"V  c #296566",
"C  c #387978",
"Z  c #2F7472",
"A  c #4C5150",
"S  c #745747",
"D  c #716558",
"F  c #4C6569",
"G  c #547275",
"H  c #5B757B",
"J  c #54777C",
"K  c #53676C",
"L  c #6A756A",
"P  c #6C716D",
"I  c #4D5E63",
"U  c #82330E",
"Y  c #89370F",
"T  c #833511",
"R  c #853B15",
"E  c #8A3B13",
"W  c #863A1A",
"Q  c #8D3C19",
"!  c #883713",
"~  c #923D18",
"^  c #913E16",
"/  c #802F0D",
"(  c #823D21",
")  c #8D411D",
"_  c #834319",
"`  c #94421D",
"'  c #9C441B",
"]  c #994217",
"[  c #A2481E",
"{  c #8A4526",
"}  c #944524",
"|  c #9D4924",
" . c #974926",
".. c #985534",
"X. c #A54A24",
"o. c #AA4C25",
"O. c #A14B29",
"+. c #AD5225",
"@. c #A9532B",
"#. c #B25325",
"$. c #BC5B2D",
"%. c #B4562B",
"&. c #A75935",
"*. c #BB5D32",
"=. c #B45C37",
"-. c #B3643C",
";. c #BA653E",
":. c #BF6035",
">. c #A7633B",
",. c #C15D2D",
"<. c #C25E31",
"1. c #C76639",
"2. c #D46D3C",
"3. c #D8723D",
"4. c #CD713A",
"5. c #E8773D",
"6. c #935E46",
"7. c #AB5F41",
"8. c #906F4F",
"9. c #A76747",
"0. c #B46441",
"q. c #BA6642",
"w. c #BD6943",
"e. c #B66B4B",
"r. c #B87254",
"t. c #B46F51",
"y. c #BB7D64",
"u. c #AF7564",
"i. c #C36B44",
"p. c #CB6D44",
"a. c #C46B47",
"s. c #D36D43",
"d. c #C97248",
"f. c #D57245",
"g. c #DC7445",
"h. c #D47449",
"j. c #DA7648",
"k. c #CA7955",
"l. c #D17B52",
"z. c #EC7E49",
"x. c #E97B44",
"c. c #F27F46",
"v. c #F27F48",
"b. c #3D807E",
"n. c #6B8373",
"m. c #A98158",
"M. c #B98974",
"N. c #B7816B",
"B. c #D38E59",
"V. c #DA8C58",
"C. c #D7925B",
"Z. c #C98D59",
"A. c #ED8046",
"S. c #ED814B",
"D. c #F38044",
"F. c #FE8445",
"G. c #F3834B",
"H. c #FA8F4D",
"J. c #F9894A",
"K. c #F9904D",
"L. c #E2955B",
"P. c #F89955",
"I. c #F08C50",
"U. c #F8A25D",
"Y. c #D39564",
"T. c #E8AA68",
"R. c #F7BC75",
"E. c #F5B069",
"W. c #E89A60",
"Q. c #FDC376",
"!. c #FCC379",
"~. c #F4C27A",
"^. c #587D84",
"/. c #3B9191",
"(. c #3FA6A5",
"). c #3FA7A8",
"_. c #3FA19E",
"`. c #55878A",
"'. c #489595",
"]. c #559799",
"[. c #488D8D",
"{. c #688589",
"}. c #6C959D",
"|. c #6B989E",
" X c #66969B",
".X c #71959B",
"XX c #6C888B",
"oX c #57A09B",
"OX c #4E9EA1",
"+X c #6D96A1",
"@X c #659CA3",
"#X c #6A9BA3",
"$X c #7196A2",
"%X c #44A6A5",
"&X c #48A6A6",
"*X c #48A9A9",
"=X c #57A7AA",
"-X c #5DB7BA",
";X c #55B2B3",
":X c #64A4AA",
">X c #66A5A9",
",X c #65ADB4",
"<X c #63B3BB",
"1X c #61B9BD",
"2X c #63B2B5",
"3X c #5EBBC1",
"4X c #62BDC3",
"5X c #5BCACD",
"6X c #59C6C8",
"7X c #5DCCD2",
"8X c #5BD3D5",
"9X c #5BD6DA",
"0X c #5DDADC",
"qX c #57D8D8",
"wX c #4FC3C0",
"eX c #62C3CA",
"rX c #61C5C8",
"tX c #61D6DB",
"yX c #63CDD3",
"uX c #5CDDE1",
"iX c #5CE2E4",
"pX c #5BECEC",
"aX c #59E8E9",
"sX c #56F2F2",
"dX c #59F0F2",
"fX c #58EEF0",
"gX c #989B9A",
/* pixels */
"                                                > m m m m m m m 5 = j ~ `  .d U ^ R                                     ",
"                                        M B V V ).aX5X5X5X5X5X;Xn.| g.I.L.Y._ +.z.;.( w                                 ",
"                                  m C C =XeX5X5X5X7X6X:X}..XD ..1.J.U.E.L.w.T #.G.p.Q ! @.                              ",
"                          O > /./.;XdX5X>X}.}.}.}.:XpX2XP b *.5.F.K.R.U.x.q.U #.G.f.E X.A.&.b                           ",
"                      > _.*X=X-X<X<X-XyX1X@XXXXXF 6 M 6 y U z.F.P.E.>.4.z.q.T #.G.f.E X.G.p.} r :                       ",
"                    B -XuXqX1X+X}.}..X].;X'.5 : , < , 7 t ' z.F.P.~._ $.z.w.T #.G.f.E X.G.i.Q b oXM                     ",
"                M '.-X>X@X1XyX1X`.K F : : : 1 1 1 5 3 t X.D.F.F.P.~._ $.G.p.T +.G.s.Q X.G.i.) u b >X'.M                 ",
"              C -X2X}.}.}.+X@X[.m & & 1 4 4 4 4 5 4 3 t o.F.F.P.T.Y.R $.G.2.T #.G.f.Q X.G.d.` i f {.1X;XZ               ",
"            m aXqX-X}.}.}.J N : 1 4 4 4 4 4 4 4 5 3 t  .2.F.F.E.T.-.d ,.G.s.T #.G.p.E X.G.f.' U &.S  X9XiXx             ",
"        + C *X1X1X6XrX XN 5 , 2 4 4 4 4 4 4 4 4 4 3 u 2.J.F.F.E.T.-.d ,.G.s.T #.S.w.R X.G.f.' ' A.T L 1X3X=XZ           ",
"        : %XtX|.}.>X].< , 1 2 4 4 4 4 4 4 4 4 4 4 3 u 2.F.F.F.E.T.-.d ,.G.s.T #.S.w.E X.G.f.' ' z.R D |.@XtX/.:         ",
"      : 6X3X@X}.}.{.I $ < 4 4 4 4 4 4 4 4 4 4 4 3 e Q 3.F.F.P.E.W.q.h $.G.s.T #.G.a.E X.G.f.' ' A.' S {.}.#X3XwX;       ",
"    x Z 5XeX1X<X>XA $ 1 4 4 4 4 4 4 4 4 4 5 2 4 e R x.F.F.K.R.C.a.p.T ,.G.p.T #.G.f.E X.G.f.' ' G.1.} b 2X3X7X6XV       ",
"  . B pX=X<X7XrXF 6 & 2 4 4 4 4 4 4 4 4 4 4 2 4 e E D.F.F.H.!.B.i.p.T ,.S.;.T #.G.h.Q X.G.h.` [ G.f.} b rX5X<X=XaXM .   ",
"  . B pX:X}.+XXX- & 4 4 4 4 4 4 4 4 4 4 4 4 2 4 e E D.F.F.K.!.C.a.p.T ,.S.;.d #.G.s.Q X.G.h.` ' G.g.O.t n {.}.:XpXM .   ",
"  $ V iX:X}.}.{.: & 4 4 4 4 4 4 4 4 4 4 4 4 2 4 e E D.F.D.S.E.Z.0.-.d ,.S.;.U #.S.p.E X.G.f.` ' G.j.| 8 O H .X>XiXV $   ",
"o '.5X-X,X,X`.: < 1 4 4 4 4 4 4 4 4 4 4 4 4 2 4 e E c.x.1.[ O. .' ` s +.f.&.d #.G.i.R o.G.p.) ' G.p. .q * `.,X,X3X5X'.+ ",
"o %XdX9X9XtXOX# < 4 4 4 4 4 4 4 4 4 4 4 4 4 2 4 e E A.' o.z.g.g.g.f.X.' [ ' a ' 1.&.T o.G.a.) ' G.p.} q $ =X0X9XqXsX%XX ",
"+ %X0X@X#X#XG O < 4 4 4 4 4 4 4 4 4 4 4 4 4 2 4 e E A.~ o.G.p.w.r.Z.l.j.g.f.%.o.+.+.U ~ *.O.h ' G.p.} q O J #X#X@XuX(.X ",
"X &X0X}.}.|.G O , 4 4 4 4 4 4 4 4 4 4 4 4 4 2 4 e E A.1.%.+. .} ..N.t.q.t.M.l.h.j.j.1.$.$.$.E T @.| T w @ H .X.X|.uX%XX ",
"X &X0X@X@X>XJ O , 4 4 4 4 4 4 4 4 4 4 4 4 4 2 4 e E D.F.5.1.T p d Q W E { r.e.0.t.M.k.h.h.h.p.1.1.1. .p r n.#X#X:XuX(.X ",
"o &XdX9X9X0XOX$ , 4 4 4 4 4 4 4 4 4 4 4 4 4 2 4 e E v.F.F.K.T.d.| U i a T d h d W 9.0.=.9.M.y.d.h.k.h.*.g >XtX9XqXdX(.X ",
"X &XuX:X>X>XJ O < 4 4 4 4 4 4 4 4 4 4 4 4 4 2 4 e E v.F.F.H.!.B.w.i.U *.2.! s U E a p p h &.&.&.7.M.y.=.g {.>X>X=XiX(.X ",
"+ &X0X|.}.$XG O 1 4 4 4 4 4 4 4 4 4 4 4 4 4 2 4 e E c.F.F.H.!.C.a.i.U <.S.;.h #.g.` a U ' a p i p ..&.{ r P }.}.+XuX(.. ",
"X &X0X X}.+XG O < 4 4 4 4 4 4 4 4 4 4 4 4 4 2 4 e E D.F.F.H.!.L.p.q.d ,.z.q.T #.S.w.W X.z.O.h ! +.a s w @ J |.+X@XuX%XX ",
"o &XpX8X7XtX].# , 4 4 4 4 4 4 4 4 4 4 4 4 4 2 4 e E D.F.F.H.Q.L.p.0.d ,.z.q.T #.S.w.W o.G.a.{ ' G.=.W q % =XtX7X8XdX(.X ",
"X &XiX2X2X<X`.# < 4 4 4 4 4 4 4 4 4 4 4 4 4 2 4 e E D.F.F.K.Q.Z.6.S g *.S.;.T #.G.s.Q X.G.a.) ' G.p.} 8 O `.2X<X-XaX(.. ",
"X &X0X}.}.$XG O < 4 4 4 4 4 4 4 4 4 4 4 4 4 2 4 e E D.F.F.K.!.8.D gXA 9.S.;.T #.G.s.Q X.G.a.) ' G.p.} 8 O H }.}. XuX%X. ",
"X &X0X}.}.+XG O < 4 4 4 4 4 4 4 4 4 4 4 4 4 2 4 e E D.F.F.H.!.D K gXA 9.z.q.T #.G.f.Q X.G.a.) ' G.j.| 8 O H }.}.|.0X(.. ",
"X &XaX6X6XeX'.# 1 4 4 4 4 4 4 4 4 4 4 4 4 4 2 4 e E c.F.F.H.!.m.D P v -.S.i.T +.G.f.~ X.G.p.` ' G.g.X.8 $ ].rXrX6XpX(.. ",
"X &XaX6XrXeX'.$ , 4 4 4 4 4 4 4 4 4 4 4 4 4 2 4 e E D.F.F.H.!.C.6.c f ,.G.s.T +.G.f.Q X.G.f.' ' G.g.| q % ].eXrX6XpX(.X ",
"X &X0X}.}.+XG O < 4 4 4 4 4 4 4 4 4 4 4 4 4 2 4 e E D.F.F.H.!.C.6.c f ,.G.s.T +.G.p.E X.G.f.` ' G.f.| 8 @ H }.}.|.uX(.X ",
"+ &X0X X X+XG O < 4 4 4 4 4 4 4 4 4 4 4 4 4 2 4 e E D.F.F.K.Q.L.9.c f ,.G.s.T #.G.i.R X.G.h.` ' G.p.} 8 O H }.}. X0X%XX ",
"+ &XiX2X<X<X`.O , 4 4 4 4 4 4 4 4 4 4 4 4 4 2 4 e E D.F.F.H.Q.C.6.c f ,.G.s.T +.G.a.E X.G.a.) ' G.p.} 8 $ `.<X<X2XaX(.X ",
"X &XfX8X8X9X].$ , 4 4 4 4 4 4 4 4 4 4 4 4 4 2 4 e E D.F.F.K.!.C.6.l f ,.G.s.T +.G.s.Q o.G.a.) ' G.g.| 8 % =XtX8X8XdX(.X ",
"X &X0X X}.+XG O < 4 4 4 4 4 4 4 4 4 4 4 4 4 2 4 e E D.F.F.K.!.m.D P v -.D.s.T +.G.s.Q o.G.a.) ' G.g.X.8 O H .X+X@X0X%XX ",
"X &X0X X}.$XG O < 4 4 4 4 4 4 4 4 4 4 4 4 4 2 4 e E D.F.F.H.~.8.K gXA 9.D.i.T #.G.s.~ o.G.h.` ' G.g.O.8 @ H |.}.+X0X(.X ",
"+ &XuX:X>X>XJ O < 4 4 4 4 4 4 4 4 4 4 4 4 4 2 4 e E D.F.F.H.!.8.D gXA 9.S.q.T #.G.s.Q X.G.j.` ' G.f.| 9 @ ^.>X>X:XiX(.X ",
"X &XdX9XqXtX&X$ , 4 4 4 4 4 4 4 4 4 4 4 4 4 2 4 e E D.F.F.H.!.Z.6.S g *.z.q.h #.G.i.E X.G.h.` ' G.p. .8 % =X0X9XqXdX(.X ",
"X &X0X@X#X>XJ O , 4 4 4 4 4 4 4 4 4 4 4 4 4 2 4 e E D.F.F.H.!.B.w.w.T ,.S.i.T #.S.i.E o.G.a.) ' G.d.} q @ ^.#X#X:XuX(.X ",
"X &X0X}.}.}.G O , 4 4 4 4 4 4 4 4 4 4 4 4 4 2 4 e E D.F.F.K.Q.B.p.p.T ,.G.s.T #.S.i.E X.G.a.) ' G.@.R u = H .X}.|.uX%XX ",
"X &X0X@X#X#XG O < 4 4 4 4 4 4 4 4 4 4 4 4 4 2 4 e E D.F.F.K.Q.L.p.1.d ,.G.s.T #.S.w.R X.z.O.T Y #.*.<.#.p b P +X@XuX%XX ",
"X &XpXqX9XtXOX$ , 4 4 4 4 4 4 4 4 4 4 4 4 4 2 4 e E D.F.F.K.Q.L.p.0.h ,.S.;.T +.g.' T E +.1.1.1.1.d.h.p.&.a L tXqXdX(.X ",
"X &XiX:X,X,X`.# < 4 4 4 4 4 4 4 4 4 4 4 4 4 2 4 e E D.F.F.K.!.C.i.&.a %.2.` E ^ +.2.3.2.f.k.d.d.d.M.u.7.>.z L ,X,XiX(.X ",
"X &X0X}.}.$XG O < 4 4 4 4 4 4 4 4 4 4 4 4 4 2 4 e E D.F.x.3.C.e.O.' ` ' %.f.g.g.h.k.a.a.r.M.u.&.&.>.} p t L .X}.@X0X(.X ",
"X &X0X}.}.+XG O < 4 4 4 4 4 4 4 4 4 4 4 4 4 2 4 e E A.2.$.o.+.o.*.j.g.g.l.y.r.w.r.M.9.| O.&.W i i i s w @ H }.}.@X0X%XX ",
"X &XpX5X5X7X].$ < 4 4 4 4 4 4 4 4 4 4 4 4 4 2 4 e E S.~ o.G.g.j.k.N.t.w.r.N...} } } d i i i i E %.X.R q $ OXeX7X5XfX(.X ",
"X &XaX-X3X4X`.# < 4 4 4 4 4 4 4 4 4 4 4 4 4 2 4 e E A.' o.S.i.q.t.u. .Q Q W p i s i i ~ 1.@.T ' G.j.| 9 % ].4X4X3XaX(.X ",
"X &X9X X}.+XG O < 4 4 4 4 4 4 4 4 4 4 4 4 4 2 4 e E D.5.<.' R T T T s a d a s [ 2.:.! o.G.f.` ' G.g.| 9 O H }.}.|.0X(.X ",
"X *XuX#X+X$XG O < 4 4 4 4 4 4 4 4 4 4 4 4 4 2 4 e E D.F.D.3. .R U h s %.g.:.h #.G.f.Q X.G.f.` ' G.p.} w O H $X+X#XiX%XX ",
"o b.[.F F F N O & : - - - - - - - - - - - - - : r E c.F.F.H.R.V.i.q.h ,.G.p.T #.G.p.Q X.G.f.' ' G.p.} 9 O N K F F '.C + ",
"                                                0 E c.F.F.H.Q.C.p.p.T ,.G.s.T #.G.i.E X.G.s.` ' S.&.{                   ",
"                                                  R c.F.F.H.!.B.i.p.T ,.G.s.T #.G.w.R X.G.i.{ T &.                      ",
"                                                  R c.F.F.H.Q.B.i.p.T ,.G.p.T #.S.w.W X.x.{                             ",
"                                                  R c.F.F.H.!.B.i.i.U ,.S.i.T #.S.-.W k W                               ",
"                                                  R c.F.F.H.!.B.q.;.U ,.S.q.T [ p.j                                     ",
"                                                  R c.F.F.K.Q.B.q.0.h ,.x.&.j u                                         ",
"                                                  R c.F.F.H.!.B.q.0.h ` &.                                              ",
"                                                  R x.D.D.I.R.Z.&.{                                                     ",
"                                                    Q ` ] `  .) z                                                       "
};
