/* XPM */
static char *b8b53622d4cab268b171b9c3abacd26e_removebg_preview_removebg_preview__2_1712078044[] = {
/* columns rows colors chars-per-pixel */
"60 60 149 2 ",
"   c black",
".  c #080103",
"X  c #050405",
"o  c #0D0B0C",
"O  c gray1",
"+  c #070607",
"@  c #7B0839",
"#  c #000001",
"$  c #020101",
"%  c #3A3A3A",
"&  c #0B0305",
"*  c #0A0909",
"=  c #292323",
"-  c #110306",
";  c #100F0F",
":  c #383737",
">  c #CC6501",
",  c #1B030A",
"<  c #231F20",
"1  c #191818",
"2  c #1D1A1A",
"3  c #333232",
"4  c #2A2929",
"5  c #CF6602",
"6  c #120E0C",
"7  c #131313",
"8  c #181415",
"9  c #EE8801",
"0  c #1F1D1C",
"q  c #252525",
"w  c #100609",
"e  c #191010",
"r  c #260412",
"t  c #302E2E",
"y  c #44081F",
"u  c #2C2C2C",
"i  c #180B06",
"p  c #261308",
"a  c #340519",
"s  c #2B2217",
"d  c #211B13",
"f  c #250406",
"g  c #520827",
"h  c #5F5133",
"j  c #EB8604",
"k  c #350709",
"l  c #352A1C",
"z  c #7A6940",
"x  c #6E0A34",
"c  c #660930",
"v  c #D56E03",
"b  c #FFE68D",
"n  c #FFD972",
"m  c #470A0B",
"M  c #FDDF82",
"N  c #302C28",
"B  c #695937",
"V  c #331A06",
"C  c #760938",
"Z  c #E68004",
"A  c #660F11",
"S  c #7B7577",
"D  c #534F47",
"F  c #B19655",
"G  c #8D7F55",
"H  c #C71111",
"J  c #663409",
"K  c #D97805",
"L  c #5E082C",
"P  c #473F42",
"I  c #FAD573",
"U  c #9B520B",
"Y  c #E3DDA4",
"T  c #3E3421",
"R  c #5C0C0F",
"E  c #877344",
"W  c #6E0C0E",
"Q  c #850E10",
"!  c #A6A27A",
"~  c #5E5658",
"^  c #EED494",
"/  c #A68C4C",
"(  c #CDC591",
")  c #474639",
"_  c #C7AA5F",
"`  c #4C0A0E",
"'  c #C41212",
"]  c #E9C26B",
"[  c #74623B",
"{  c #EC8A08",
"}  c #EB9928",
"|  c #FAF5E5",
" . c #787253",
".. c #58092A",
"X. c #726B6E",
"o. c #4E4026",
"O. c #807B7D",
"+. c #493F2D",
"@. c #A79056",
"#. c #41090A",
"$. c #FEED9C",
"%. c #37352D",
"&. c #83420A",
"*. c #524831",
"=. c #C66306",
"-. c #B61212",
";. c #EBA94B",
":. c #9A1011",
">. c #927B45",
",. c #BA5D08",
"<. c #B01112",
"1. c #EC9015",
"2. c #B1670B",
"3. c #FCFEFB",
"4. c #F8EAD0",
"5. c #CB7609",
"6. c #BBB689",
"7. c #763C0A",
"8. c #5C2F09",
"9. c #A95C0C",
"0. c #F9F4B7",
"q. c #4B270A",
"w. c #918C8E",
"e. c #815F2E",
"r. c #BE5F08",
"t. c #493219",
"y. c #280609",
"u. c #530A0C",
"i. c #F4D070",
"p. c #9A854E",
"a. c #F3E49C",
"s. c #AD1112",
"d. c #F1C480",
"f. c #770D0E",
"g. c #F5E1BD",
"h. c #9C9670",
"j. c #EB951D",
"k. c #EBA035",
"l. c #D7B667",
"z. c #D4BB71",
"x. c #6B6466",
"c. c #BF1213",
"v. c #774405",
"b. c #794608",
"n. c #FF240A",
"m. c #0A1400",
"M. c #F30003",
"N. c #000105",
"B. c #08040C",
/* pixels */
"                                                                                                                        ",
"                                                                                                                        ",
"                                                                                                                        ",
"                                                              # $ $ $ $                                                 ",
"                                                            $ O O O $ # $ $ #                                           ",
"                          $     $ #                         $ o  .! G h d O O O                                         ",
"                        $ X N ) * $                         $ O  .0.b I [ # O O                                         ",
"                      O 6 E ^ 6.6 $                             4 Y b n z #                                             ",
"                  $ ; O d l.$.! X                               ; ( b n E #                                             ",
"                  $ o O X / b ! +                             # ; ( b n z                                               ",
"                          z M 6.o                             $ 0 Y b n B                                               ",
"                          *.I ( 8             $ $ X + + + X O   ) 0.M i.o.#                                             ",
"                          s ] ^ %.      $ $ X ; < t 3 3 3 t 1 + h.$.n _ e $                                             ",
"                          6 F M  .N.  $ $ o q : % % % % % : ; N Y M I B # $ $                                           ",
"                          # h I z.s # $ ; t % % % % % % % < O G $.n F 6 7 8 X $ $                                       ",
"                          $ 6 F n / * * 3 % % % % % % : < O D Y M _ l * 3 % q * $ $                                     ",
"                            X s _ I E 6 ; 4 3 : 3 u 0 * + D Y b F d + 4 % % % u o $ $                                   ",
"                            O + s F i.F T * X + X X 8 ) ! a.M @.d o t % % % % % = + $                                   ",
"                              O $ 6 [ ] ] / [ B z h.( a.M _ B 6 ; 3 % % % % % % t 7 $ $                                 ",
"                                * 8 X T >.E z [ z z E p.h 6 X 8 : % % % % % % % N < X $                                 ",
"                              $ $ + O # $ & i p p p i w # # * * q % % % % % % 3 = = o $ #                               ",
"                              $ #   . V b.2.5.K K K 5.2.J i $   O 2 % % % % t = = = 7 $ $                               ",
"                            $ $ # i v.5.{ 1.j.} k.} { 9 j 2.V #   O q : : t = = = = 1 $ $                               ",
"                          $ O # p U ;.d.^ g.4.| | 4.} 9 { 9 U - # - & 7 1 2 2 2 2 2 7 O O                               ",
"                          $ # i 9.1.g.3.3.3.| | 4.^ 1.9 9 Z r.V $ A u.O o X X X + X + $ $                               ",
"                          O # q.Z { ;.d.] ;.k.} j.{ 9 9 j v =.V # f.Q 6 z %.u t 4 < 0 + $ $                             ",
"                          $ # 7.K Z j 9 9 9 9 j 9 9 9 j K 5 ,.p $ Q :.i >.D % % 3 = = ; $ $ $                           ",
"                          # # 7.5 5 v K Z Z j j j j Z v > 5 U & - :.<.f *.+.q < 1 ; ; + $ . O $                         ",
"                          $ # 8.5 > > > > 5 v v v v 5 > > > J # k -.' W & + X O X X + X - m . O                         ",
"                          O $ p 9.5 > > > > > > > > > > 5 ,.V # R ' H s., *.h u 4 < < 2 - A - O $                       ",
"                          O * $ V U > 5 > > > > > > > 5 =.J O - :.H H -.f h @.% : 4 = = * #.f O $                       ",
"                            + + # i 8.U r.=.> 5 5 5 5 ,.J & $ R c.H H ' u.s B 4 4 4 < 0 o , , $ $                       ",
"                            $ o X & O - p q.J &.&.&.J V O . m <.H <.Q W R - # $ O X X X O w - $ $                       ",
"                          X X X . y A k . O O O . O $ . f W -.' s.#.w * + X $ $     $ , y .., $ $                       ",
"                          + s d # - ` #.& e - - m A W W Q Q f.` f . h *.u u 4 q 0 7 * & g C r $ $                       ",
"                        $ + h T X 1 X . - l i , f m k f - & X + O $ B G : % % % % t < ; r x r # $                       ",
"                        # X d o o 3 ; 8 e & y.A k . X 8 0 + 2 < o y.l G % % % % % 4 = < + y r   $                       ",
"                          X 6 X o 3 ; < 3 1 - k A m - 8 < & 6 < ; ` k 8 7 1 < q q 0 8 7 X , ,   $                       ",
"                          X l e X < o 0 % : = w , ` ` , & l i w * k m 6 d + X O O O O O & a ,   $                       ",
"                        $ + T d X * # + 7 1 2 ; . - k f o.>.p o ; f R l G 3 t u 4 q 0 2 w g r   $                       ",
"                        $ X 7 * o * l s 7 q 0 0 0 2 w s / t.. w 8 i R p G ) % % % N = = ; r , $ $                       ",
"                        $ + e X O * @.p.; : % % % : 8 e.e.e D < & . y a l %.3 : : t = = 2 + . $ $                       ",
"                        $ o +.6 $ + +.T * u % % % : e t.p & P S % & , r O * * o o ; o * + $   $                         ",
"                        O o h 8 * 2 * X O * 7 1 0 0 o . . $ . = S x.8 . e B = 1 7 ; * o + $ $ $                         ",
"                        $ + 1 * X 4 : 3 4 0 1 ; ; ; 7 1 0 < < 6 e ~ O.: w s N : % t = = 2 $ $ $                         ",
"                          O + O   + 1 q 3 : : : : : % % % 3 4 0 6 . N S X.< & 8 u N = = < * $ $                         ",
"                              $ $ , , & + o ; 7 1 1 1 7 ; * + + & - , i D w.~ e & e 2 1 7 + $                           ",
"                                $ y x L y r $ o ; o o o ; 7 o . y c x y , = S w.P & . . # $ $                           ",
"                              $ # a @ @ @ ... 1 4 q 2 0 < < 8 & L @ @ @ c a - % O.X.= & . . $                           ",
"                              $ $ r C @ @ L . + ; * + + + + X & L @ @ @ @ C .., w P S ~ = w . . $                       ",
"                                $ , x @ @ c - ; q 0 0 0 0 0 ; - c @ @ @ @ @ x , $ . e P S O.D 8 & . $ #                 ",
"                                $ - c @ @ C a & X + * o o o X , x @ @ @ @ @ c - $ $ $ $ 6 P X.~ = w & & $               ",
"                                $ . g @ @ @ C ..-   $ $ $ $ . y @ @ @ @ @ @ L . $       $ $ . w w & . . $               ",
"                                $ $ , a y g g y & $ $     $ - g c x C @ @ @ g O O                 $                     ",
"                                $ o O $ $ $ $ $ $ $       O $ . - , r a a a r $ $                                       ",
"                                  + * X $ $ $ $ $ $       X X $ #     $ $ $ $ $ $                                       ",
"                                                          $ $ $ $ $ $ $ $ $ $ $                                         ",
"                                                                                                                        ",
"                                                                                                                        ",
"                                                                                                                        "
};
