/* XPM */
static char *_4199ad76a484702979872f4370924abu9L0Eu0gj6JydgZF[] = {
/* columns rows colors chars-per-pixel */
"60 60 203 2 ",
"   c None",
".  c #020203",
"X  c #0B0602",
"o  c #0D0903",
"O  c #070708",
"+  c #08070A",
"@  c #070808",
"#  c #0B0B0C",
"$  c #120B03",
"%  c #1B0E03",
"&  c #110F0B",
"*  c #0F100F",
"=  c #171305",
"-  c #1A1305",
";  c #12100D",
":  c #19140A",
">  c #0F0F11",
",  c #0F1011",
"<  c #131313",
"1  c #1C1913",
"2  c #171818",
"3  c #1A1B1B",
"4  c #2A1E05",
"5  c #211D0A",
"6  c #251704",
"7  c #311B05",
"8  c #251E14",
"9  c #26210B",
"0  c #2F2608",
"q  c #3A2103",
"w  c #3F2F09",
"e  c #382908",
"r  c #3F3609",
"t  c #252112",
"y  c #29251A",
"u  c #342914",
"i  c #242524",
"p  c #2C2C2C",
"a  c #343434",
"s  c #3A3B3B",
"d  c #432505",
"f  c #412C04",
"g  c #4D2A03",
"h  c #512F03",
"j  c #4D3B05",
"k  c #4A3D0A",
"l  c #5C3405",
"z  c #573108",
"x  c #5D3408",
"c  c #42331C",
"v  c #4E3E1F",
"b  c #6D3C04",
"n  c #643E0C",
"m  c #4F4006",
"M  c #5A440A",
"N  c #5D4C0B",
"B  c #564306",
"V  c #4B441F",
"C  c #504716",
"Z  c #654204",
"A  c #764505",
"S  c #7C4809",
"D  c #6F570F",
"F  c #6C5709",
"G  c #72560A",
"H  c #745A08",
"J  c #65571D",
"K  c #745E10",
"L  c #796207",
"P  c #7D6D19",
"I  c #514623",
"U  c #634C21",
"Y  c #7C6C25",
"T  c #7F6C2A",
"R  c #444444",
"E  c #804707",
"W  c #8C4D04",
"Q  c #8B530C",
"!  c #895905",
"~  c #945205",
"^  c #9B5808",
"/  c #925B05",
"(  c #A35A05",
")  c #856B0A",
"_  c #8C6B0B",
"`  c #8C6509",
"'  c #9C6805",
"]  c #94790B",
"[  c #A56206",
"{  c #AD6006",
"}  c #AC6D0E",
"|  c #B36405",
" . c #B56508",
".. c #A77F07",
"X. c #A77807",
"o. c #B17B05",
"O. c #BD7F1E",
"+. c #855F26",
"@. c #876224",
"#. c #886624",
"$. c #837122",
"%. c #9A7524",
"&. c #A87721",
"*. c #A97C21",
"=. c #A77322",
"-. c #C86E05",
";. c #C27305",
":. c #CB7304",
">. c #CE7D04",
",. c #C77308",
"<. c #D57605",
"1. c #D17B06",
"2. c #DC7C05",
"3. c #D07F0A",
"4. c #E57E02",
"5. c #E87F00",
"6. c #99810D",
"7. c #A38306",
"8. c #A98409",
"9. c #B18A09",
"0. c #BE8F08",
"q. c #B38E06",
"w. c #BF940A",
"e. c #B89609",
"r. c #A38C15",
"t. c #A7901C",
"y. c #BFA212",
"u. c #9E8729",
"i. c #AE9328",
"p. c #C98205",
"a. c #C08A09",
"s. c #D98605",
"d. c #C09F0C",
"f. c #D89A06",
"g. c #C58A1D",
"h. c #C3841D",
"j. c #D58B16",
"k. c #C4971E",
"l. c #DA9216",
"z. c #DB9A15",
"x. c #E68301",
"c. c #E88600",
"v. c #E68A03",
"b. c #E98B00",
"n. c #EC9301",
"m. c #ED9B01",
"M. c #E6940E",
"N. c #EB9308",
"B. c #EA9906",
"V. c #F09D03",
"C. c #E79C10",
"Z. c #CDAD0B",
"A. c #C8A209",
"S. c #D3A308",
"D. c #D3AB08",
"F. c #DDBA0D",
"G. c #D8B60C",
"H. c #CCA81F",
"J. c #D4B011",
"K. c #D6B619",
"L. c #EFA001",
"P. c #EBAB05",
"I. c #EDA30A",
"U. c #E3AD09",
"Y. c #E4A708",
"T. c #F1A401",
"R. c #F2AC01",
"E. c #ECB406",
"W. c #E5B807",
"Q. c #ECBA06",
"!. c #E3B30A",
"~. c #E1B006",
"^. c #F5B401",
"/. c #F6BA01",
"(. c #F8BD01",
"). c #F9BF08",
"_. c #F6B906",
"`. c #EABC17",
"'. c #C19F28",
"]. c #C39D24",
"[. c #C5A321",
"{. c #EFC909",
"}. c #EBC008",
"|. c #F3C406",
" X c #FAC300",
".X c #F3CA07",
"XX c #FCCB01",
"oX c #F6CF0C",
"OX c #FBCE0C",
"+X c #FACB0A",
"@X c #F6C50F",
"#X c #FDD001",
"$X c #FDD101",
"%X c #FED201",
"&X c #FFD301",
"*X c #FED302",
"=X c #FED001",
"-X c #FFD500",
";X c #FFD602",
":X c #FFD206",
">X c #FBD20A",
",X c #E7C117",
"<X c #F6CA10",
/* pixels */
"                                                        a p a a s                                                       ",
"                                            a 3 < # O . . . . . . @ < 3 i s                                             ",
"                                      p 3 # . . . . X = 5 9 9 5 : # . . . . # 3 a                                       ",
"                                  2 # . . . = r K 6.e.Z.G.F.F.G.J.y.r.P C t X . . < p                                   ",
"                              < . . . & k ] Z.{.:X;X;X;X;X;X;X;X;X;X;X:XoXK.t.J 8 . . # p                               ",
"                            @ . . - F d..X;X;X&X&X&X&X&X&X&X&X&X&X&X&X&X&X&X;XoXK.$.y . . < a                           ",
"                        # . . o N A.+X;X&X&X&X&X&X&X&X&X&X&X&X&X&X&X&X&X&X&X&X&X&X>XK.Y 1 . O i                         ",
"                      @ . . 0 8..X&X&X&X&X&X&X&XXXXX&X&X&X&X&X&X&X&X&X&X&X&X&X&X&X&X&XOX[.V . . 3                       ",
"                    @ . . M D.:XXXXXXXXXXXXXXXXXXXXXXXXXXXXXXXXXXXXXXXXXXXXXXXXXXXXXXXXX:X,XY ; . <                     ",
"                  @ . X L }.XXXXXXXXXXXXXXXXXXXXXXXXXXXXXXXXXXXXXXXXXXXXXXXXXXXXXXXXXXXXXXXX<Xu.1 . <                   ",
"                @ . o ) |.XXXXXXXXXXXXXXXXXXXXXXXXXXXXXXXXXX|.q.L L 7.W.XXXXXXXXXXXXXXXXXXXXXXOXi.8 . <                 ",
"              # . X ) |.XXXXXXXXXXXXXXXXXXXXXXXXXXXXXXXXXXW.N o . . X j D.XXXXXXXXXXXXXXXXXXXXXX+Xi.1 . 3               ",
"              . . H |.XXXXXXXXXXXXXXXXXXXXXXXXXXXXXXXXXX|.K . . . . . . B Q.XXXXXXXXXXXXXXXX XXXXX+Xu.; . i             ",
"            @ . m W.XX X X X X X XXX X X X X X X X X XXXJ.9 . . . . . . = w.XX X X X X X X X X X XXX@XT . . a           ",
"          # . 4 A.XX X X X X X X X X X X X X X X X X XXXk.; . . . . . . X 7.XX X X X X X X X X X X X X`.I . <           ",
"          . X ]  X X X X X X X X X X X X X X X X X X XXXH.1 . . . . . . o q.XX X X X X X X X X X X X XXX'.2 . i         ",
"        # . j E. X X X X X X X X X X X X X X X X X X X X`.I . . . . . . w ~. X X X X X X X X X X X X XS.D & . *         ",
"        . $ 9. X X X(.(. X X X X X X X X X X X X X X(. X X].y . . . . 5 9. X X X X X X X X X X X X~._ 4 . .             ",
"      # . B E. X(.(.(.(.(.(.(.(.(.(.(.(.(.(.(.(.(.(.(.(.(.).[.J u 0 N w.(.(.(.(.(.(.(.(.(.(. XQ.8.w . . @               ",
"      . o ..(.(.(.(.(.(.(.(.(.(.(.(.(.(.(.(.(.(.(.(.(.(.(.(.(._.!.U._.(.(.(.(.(.(.(.(.(.(._.w.B o . @                   ",
"    2 . e Y.(././././././././././././././././././././././././././././././././././././._.S.G : . O                       ",
"    # . H _././././././././././././././././././././././././././././././././././././.U._ 4 . .                           ",
"    . o 8./.^.^.^.^.^.^.^.^.^.^.^.^.^.^.^./.^.^././.^.^.^.^.^.^.^.^.^.^.^.^.^./.E...w . . #                             ",
"  y . 4 f./.^.^.^.^.^.^.^.^.^.^.^.^.^.^.^.^.^.^.^.^.^.^.^.^.^.^.^.^.^.^.^.^.^.0.M o . @                                 ",
"  3 . j P.^.^.^.^.^.^.^.^.^.^.^.^.^.^.^.^.^.^.^.^.^.^.^.^.^.^.^.^.^.^.^.^.f.G - . .                                     ",
"  < . G ^.^.^.^.^.^.^.^.^.^.^.^.^.^.^.^.^.^.^.^.^.^.^.^.^.^.^.^.^.^.^.Y._ 4 . O                                         ",
"  # . ` ^.R.R.R.R.R.R.^.R.R.R.R.R.R.R.R.R.R.R.R.R.R.R.R.R.R.R.^.^.P.X.f O . #                                           ",
"  @ X X.^.R.R.R.R.R.R.R.R.R.R.R.R.R.R.R.R.R.R.R.R.R.R.R.R.R.R.R.a.M o . O                                               ",
"  @ o o.R.R.R.R.R.R.R.R.R.R.R.R.R.R.R.R.R.R.R.R.R.R.R.R.R.R.P.` - . .                                                   ",
"  O o o.R.R.R.R.R.R.R.R.R.R.R.R.R.R.R.R.R.R.R.R.R.R.R.R.R.R.I.v . <                                                     ",
"  O o o.R.T.T.T.T.T.T.T.T.T.T.T.T.T.T.T.T.T.T.T.R.T.T.T.T.T.T.%.t . <                                                   ",
"  @ X X.T.T.T.T.T.T.T.T.T.T.T.T.T.T.T.T.T.T.T.T.T.T.T.T.T.T.T.I.g.U ; + 3                                               ",
"  @ X ' T.T.T.T.T.T.T.T.T.T.T.T.T.T.T.T.T.T.T.T.T.T.T.T.T.T.T.T.T.I.*.c + # p                                           ",
"  # . ! T.T.T.T.T.T.T.T.T.T.T.T.T.T.T.T.T.T.T.T.T.T.T.T.T.T.T.T.T.T.T.z.#.8 . 3                                         ",
"  < . Z m.m.m.m.m.m.m.m.m.m.m.m.m.m.m.m.m.m.m.m.m.m.m.m.m.m.m.m.m.m.m.V.I.g.U & @ i                                     ",
"  3 . f f.m.m.m.m.m.m.m.m.m.m.m.m.m.m.m.m.m.m.m.m.m.m.m.m.m.m.m.m.m.m.m.m.m.C.&.c + , a                                 ",
"  i . 6 p.V.m.m.m.m.m.m.m.m.m.m.m.m.m.m.m.m.m.m.m.m.m.m.m.m.m.m.m.m.m.m.m.m.m.V.l.@.8 . 3 R                             ",
"    . X ' m.m.m.m.m.m.m.m.m.m.m.m.m.m.m.m.m.m.m.m.m.m.m.m.m.m.m.m.m.m.m.m.m.m.m.m.B.g.U ; # i                           ",
"    # . Z B.m.m.m.m.m.m.m.m.m.m.m.m.m.m.m.m.m.m.m.m.m.m.m.m.m.m.m.m.m.m.m.m.m.m.m.m.m.M.&.c O < a                       ",
"    < . 4 p.m.m.m.m.m.m.m.m.m.m.m.m.m.m.m.m.m.m.m.m.m.m.m.m.m.m.m.m.m.m.m.m.m.m.m.m.m.m.B.l.@.8 . 3 R                   ",
"      . X ! m.m.n.n.n.n.n.n.m.m.n.n.n.n.m.m.n.n.n.n.n.n.n.n.n.n.n.n.n.n.n.n.n.n.n.n.n.n.n.m.N.h.U ; # i                 ",
"      > . f s.n.n.n.n.n.n.n.n.n.n.n.n.n.n.n.n.n.n.n.n.n.n.n.n.n.n.n.n.n.n.n.n.n.n.n.n.n.n.n.n.n.M.=.c O < a             ",
"        . X / n.b.b.b.b.b.b.b.b.b.b.b.b.b.b.b.b.n.n.b.b.b.b.b.b.n.n.b.b.b.b.b.b.b.b.b.b.b.b.b.b.n.n.j.+.8 + < a         ",
"        # . q >.b.b.b.b.b.b.b.b.b.b.b.b.b.b.b.b.b.b.b.b.b.b.b.b.b.b.b.b.b.b.b.b.b.b.b.b.b.b.b.b.b.b.b.N.O.u . <         ",
"          . . A v.b.b.b.b.b.b.b.b.b.b.b.b.b.b.b.b.b.b.b.b.b.b.b.b.b.b.b.b.b.b.b.b.b.b.b.b.b.b.b.b.b.b.b.} : . i         ",
"          < . % [ b.b.b.b.b.b.b.b.b.b.b.b.b.b.b.b.b.b.b.b.b.b.b.b.b.b.b.b.b.b.b.b.b.b.b.b.b.b.b.b.b.b.3.e . <           ",
"            # . q ;.b.b.b.b.b.b.b.b.b.b.b.b.b.b.b.b.b.b.b.b.b.b.b.b.b.b.b.b.b.b.b.b.b.b.b.b.b.b.b.b.s.n . .             ",
"              . . h >.b.v.b.b.b.b.b.c.c.c.c.b.b.b.b.b.b.b.b.b.b.b.b.b.b.b.b.c.c.c.c.b.b.b.b.b.b.b.v.S X . 3             ",
"              3 . . l 1.b.c.c.c.c.c.c.c.c.c.c.c.c.c.c.c.c.c.c.c.c.c.c.c.c.c.c.c.c.c.c.c.c.c.c.c.v.Q $ . #               ",
"                < . X l 1.c.c.c.c.c.c.c.c.c.c.c.c.c.c.c.c.c.c.c.c.c.c.c.c.c.c.c.c.c.c.c.c.c.c.x.Q $ . @                 ",
"                  < . . h ;.c.c.c.c.c.c.c.c.c.c.c.c.c.c.c.c.c.c.c.c.c.c.c.c.c.c.c.c.c.c.c.c.2.S o . @                   ",
"                    < . . q [ x.c.x.x.x.x.x.x.x.x.x.x.x.x.x.x.x.x.x.x.x.x.x.x.x.x.x.x.x.c.,.z X . @                     ",
"                      3 . . % A :.x.x.x.x.x.x.x.x.x.x.x.x.x.x.x.x.x.4.4.x.x.x.x.x.x.x.2.^ 7 . . #                       ",
"                          @ . . q ~ <.x.x.x.x.x.4.4.x.x.x.x.x.x.x.x.4.4.x.x.x.x.x.4. .z o . . #                         ",
"                            < . . X d ~ :.4.4.4.4.4.4.4.4.4.4.4.4.4.4.4.4.4.x.2.{ x % . . .                             ",
"                                < . . X 7 b ( -.2.4.4.5.5.4.4.5.5.5.4.4.<.| E d $ . . . @                               ",
"                                    < . . . X 6 g b W ( { | | | ( ~ A z 7 $ . . . . @                                   ",
"                                        3 # . . . . . X $ $ $ $ X . . . . . . .                                         ",
"                                              3 < > # @ . . . . . . @ # #                                               ",
"                                                                                                                        "
};
