/* XPM */
static char *player_left1712370449[] = {
/* columns rows colors chars-per-pixel */
"60 60 140 2 ",
"   c None",
".  c #000001",
"X  c #040303",
"o  c #020204",
"O  c #030304",
"+  c #060607",
"@  c #0C0802",
"#  c #060608",
"$  c #070708",
"%  c gray3",
"&  c gray4",
"*  c #0B0B0A",
"=  c #0B0B0B",
"-  c gray5",
";  c #0E0E0E",
":  c #110D09",
">  c #1A1205",
",  c #101011",
"<  c #121112",
"1  c #131313",
"2  c #141313",
"3  c #161616",
"4  c gray9",
"5  c gray10",
"6  c #2C1C05",
"7  c #221D11",
"8  c #3B2404",
"9  c #302711",
"0  c #252526",
"q  c #272727",
"w  c gray20",
"e  c #353535",
"r  c #363637",
"t  c #373738",
"y  c #412D05",
"u  c #4D3C06",
"i  c #593205",
"p  c #45381C",
"a  c #683F06",
"s  c #564008",
"d  c #55470C",
"f  c #5D4A0A",
"g  c #7A4706",
"h  c #725507",
"j  c #715B0C",
"k  c #655617",
"l  c #7C6006",
"z  c #5D4A22",
"x  c #7E6D22",
"c  c gray25",
"v  c #905306",
"b  c #A35C05",
"n  c #8A6909",
"m  c #9D6B04",
"M  c #957B0A",
"N  c #B26406",
"B  c #AB7C07",
"V  c #876224",
"C  c #9A7526",
"Z  c #A97821",
"A  c #C67105",
"S  c #D17604",
"D  c #D07F05",
"F  c #DE7C04",
"G  c #E77F00",
"H  c #A4860B",
"J  c #B98E08",
"K  c #BE9F0B",
"L  c #9E8728",
"P  c #AC9224",
"I  c #D69D0B",
"U  c #C28113",
"Y  c #C58A1C",
"T  c #D89015",
"R  c #E58100",
"E  c #E78202",
"W  c #E78700",
"Q  c #E88500",
"!  c #E98900",
"~  c #E98B00",
"^  c #EA8A00",
"/  c #E98C00",
"(  c #E98E00",
")  c #EA8E01",
"_  c #E08608",
"`  c #EA9001",
"'  c #EB9202",
"]  c #ED9301",
"[  c #ED9600",
"{  c #ED9801",
"}  c #ED9B00",
"|  c #EC9C01",
" . c #EE9D01",
".. c #EF9F00",
"X. c #E5960A",
"o. c #CEA50E",
"O. c #D2AF0F",
"+. c #DBB90F",
"@. c #E3AE07",
"#. c #EBAA07",
"$. c #E5A40A",
"%. c #F1A100",
"&. c #F1A300",
"*. c #F2A501",
"=. c #F2A702",
"-. c #F2AA00",
";. c #F3AC00",
":. c #F2AE00",
">. c #ECB406",
",. c #E5B807",
"<. c #ECB904",
"1. c #F3B001",
"2. c #F5B201",
"3. c #F5B301",
"4. c #F4B501",
"5. c #F6B701",
"6. c #F6B403",
"7. c #F7B900",
"8. c #F8BB00",
"9. c #F8BD01",
"0. c #F9BF01",
"q. c #E9BD16",
"w. c #C3A021",
"e. c #F0C107",
"r. c #F9C000",
"t. c #F9C200",
"y. c #FBC400",
"u. c #FCC701",
"i. c #FEC802",
"p. c #FCCB02",
"a. c #FECA02",
"s. c #FECE00",
"d. c #FECC02",
"f. c #F7C608",
"g. c #F4CB09",
"h. c #FACF0A",
"j. c #FED100",
"k. c #FFD301",
"l. c #FFD501",
"z. c #FDD308",
/* pixels */
"                                                      w r r r r c                                                       ",
"                                            t 0 5 < # # X . . . O # 2 5 0 e                                             ",
"                                      t 5 : . . . O : > 7 7 7 7 > @ . . . O < 4 t                                       ",
"                                  0 < . . # 7 d x H K O.+.+.+.+.o.K M j y > . . O - <                                   ",
"                              0 : . . 7 k P +.g.l.l.l.l.l.l.l.l.l.l.l.z.g.O.M u : . . - 2                               ",
"                          t < . O 9 x O.h.l.k.k.j.z.j.j.j.j.j.j.k.j.k.j.j.j.l.g.K k > . . -                             ",
"                        0 # . 7 x +.z.k.j.j.j.j.j.j.j.j.j.j.j.j.j.j.s.k.j.j.j.j.l.h.K f @ . % 2                         ",
"                      5 . # p w.z.s.s.j.j.j.s.j.j.j.s.j.j.j.s.j.j.j.j.z.j.j.j.s.j.j.j.g.H 9 . O %                       ",
"                    - . : V e.j.s.s.s.p.s.p.s.s.s.s.s.p.s.p.s.s.p.s.p.s.s.p.s.p.s.s.s.s.j.O.d O . %                     ",
"                  < . 7 L g.z.p.d.p.s.p.p.s.p.p.s.s.p.s.s.s.s.p.s.p.p.s.p.p.p.s.p.p.d.d.d.s.e.l @ . -                   ",
"                - . 7 P h.p.p.p.p.p.p.p.p.p.p.p.,.H l l J e.d.p.p.p.p.p.p.p.p.p.p.p.p.p.p.p.d.f.n @ . *                 ",
"              5 . 7 P p.p.p.p.p.p.p.p.p.p.p.s.o.u @ . . @ f ,.p.p.p.p.p.p.p.p.p.p.p.p.p.p.p.p.p.f.n @ . *               ",
"            q . : L f.u.u.u.u.u.u.u.u.u.u.u.<.d . . . . . . j f.u.u.u.u.u.u.u.u.u.u.u.u.u.u.u.u.u.e.j O O               ",
"          r # # x f.u.u.u.u.u.u.u.u.u.u.u.u.K > . . . . . O 7 O.p.y.u.u.u.u.u.u.u.u.u.u.u.u.u.u.u.p.,.u . O             ",
"          < . z q.u.y.y.y.y.y.y.y.y.u.y.y.u.H @ . . . . . . : w.p.y.y.y.y.y.y.y.y.y.y.y.y.y.y.y.y.y.u.o.6 . -           ",
"        q . 7 w.p.y.y.y.y.y.y.y.y.y.y.y.y.y.J @ . . . . . . 7 o.y.y.y.y.y.y.y.y.y.y.y.y.y.y.y.y.y.y.y.y.M @ O           ",
"        4 O : j o.t.r.y.r.r.y.y.y.y.y.r.y.y.@.8 . . . . . . z q.y.r.r.r.t.t.r.r.r.t.t.t.y.y.r.r.r.r.r.r.>.u . :         ",
"            & . 6 n @.y.r.0.0.9.9.9.r.0.y.9.0.J > . . . . 9 w.y.9.y.r.r.r.r.0.0.r.r.r.r.9.y.r.r.r.r.r.y.y.J : O         ",
"              2 % O y B <.r.9.y.0.0.0.0.y.9.9.9.J f 9 9 k w.9.y.9.9.y.9.r.0.0.0.0.0.r.r.9.9.y.9.t.t.9.9.y.>.s . :       ",
"                  & . @ s J 7.y.0.7.0.0.9.9.9.9.y.4.@.@.9.9.9.9.0.7.0.9.0.0.0.0.9.9.9.0.9.9.8.9.9.9.9.9.9.y.B @ #       ",
"                      & O > h I 7.7.9.8.8.8.8.8.7.8.8.9.8.8.8.8.9.8.8.8.8.8.8.8.7.0.0.7.7.0.8.8.9.7.9.8.9.8.@.8 . 5     ",
"                          - . 6 n @.9.7.7.7.7.7.7.7.7.7.7.7.7.7.7.7.7.7.7.7.7.7.7.7.7.7.7.7.7.8.4.7.7.7.6.8.4.h . =     ",
"                            2 O O y B >.7.4.7.8.4.7.4.7.7.4.6.7.7.6.4.7.4.7.4.7.4.4.7.4.4.4.7.4.4.7.4.7.7.4.7.B @ #     ",
"                                % . @ s J 4.4.4.4.6.4.4.6.4.4.4.4.4.4.4.4.6.4.4.4.4.4.4.4.4.4.4.4.4.4.6.4.4.4.I 6 . 2   ",
"                                    * O > h I 6.4.2.4.2.2.4.2.2.2.4.2.2.4.2.2.2.2.4.2.2.4.2.2.2.4.2.2.4.2.2.4.#.u . 3   ",
"                                        = . 6 n $.6.2.2.2.2.2.2.2.2.2.2.2.2.2.6.2.2.2.2.2.2.2.2.2.2.2.2.2.2.2.2.h . 3   ",
"                                          2 O O y B #.6.:.6.2.:.1.1.2.;.2.:.1.1.1.1.1.1.1.1.;.6.1.1.1.1.:.2.:.6.n O -   ",
"                                              % . @ s J -.;.:.:.:.:.:.:.:.:.:.:.:.:.:.:.:.:.:.:.:.:.:.:.:.:.-.2.m O %   ",
"                                                  = O > n -.-.:.;.;.;.;.;.;.;.;.:.;.;.;.;.;.;.;.;.;.;.;.:.;.;.;.B @ #   ",
"                                                    = . p #.-.-.-.-.-.-.-.-.-.-.-.-.-.-.-.-.-.-.-.-.-.-.-.-.-.;.B @ .   ",
"                                                  4 O 7 C =.=.=.=.=.=.=.=.=.=.=.=.=.=.=.=.=.=.=.=.=.=.=.=.=.=.;.B @ %   ",
"                                              q # : z Y =.*.*.*.*.*.*.*.*.*.*.*.*.*.*.*.*.*.*.*.*.*.*.*.*.*.*.*.B @ %   ",
"                                          r < # p Z $.*.%.*.%.*.%.*.%.*.%.*.%.*.%.*.%.%.*.%.*.%.%.%.*.%.*.%.%.*.m X %   ",
"                                      c 5 O 7 V I %.%.%.%.%.%.%.%.%.%.%.%.%.%.%.%.%.%.%.%.%.%.%.%.%.%.%.%.%.%.%.l . -   ",
"                                    q O : z Y %.%.%.%.| ....%.%...%.| %.....%.%.| %.........%.| ......%.%.%.| | f . 2   ",
"                                r < % p Z X.%.| | | ..| ..| | | | ..| | ..| | | ..| | ..| ....| ....| | | | ..X.y . 5   ",
"                            c 5 % 7 V T %.| | | | | | | | | { | | | { | | | { | | | | | | { | | | | | | | | %.A > X w   ",
"                          q # : z Y | | { | { |  .| ..| | { ..| | { ..| | | ..| | { ..| |  .| | { { | | | | | m @ X     ",
"                      t < # p Z X.{ { { { { { { ] { { { { { { { { { { { { { { { { { { { { {  .] { { { { { { I a X *     ",
"                  c 5 O 7 V T { { { ] { ] { { ] { ] { ] ] { { ] ] { { ] ] { ] { { ] { ] { ] { ] ' { { { { { _ 6 . 2     ",
"                q % = z Y ' ] ] ' ] ] ] ] ] ' ] ] ] ] ' ] ] ] ' ] ] ] ] ] ] ] ' ] ] ] ] ] ] ] ] ] ] ] ] ] ] v @ O       ",
"            t , # p Z X.] ] ' ' ' ' ' ' ' ' ' ' ' ' ' ' ' ' ' ' ' ' ' ' ' ' ' ' ] ] ' ' ' ' ' ' ' ] ' ' ] D 8 . %       ",
"        r < % 7 V T ' ' ' ) ) ' ' ) ) ' ' ) ' ) ' ) ) ' ) ' ) ' ' ) ' ) ' ) ' ) ) ' ) ' ' ) ) ' ' ) ) ] ' v @ O         ",
"        < . 9 U ' ) ) ( ( ) ) ) ) ) ) ) ) ) ) ) ) ) ) ) ) ) ) ) ) ) ) ) ) ) ) ) ) ) ) ) ) ) ) ) ) ) ) ] D 8 . 2         ",
"        5 . > N ) ! ! ) ~ ( ~ ~ ! ) ) ) ! ) ! ) ( ~ ~ ( ) ) ! ( ( ~ ( ~ ! ) ) ) ) ! ) ! ~ ( ~ ~ ~ ( ~ ^ g O %           ",
"          & . 8 _ ) ) ! ~ ~ ~ ~ ) ! ! ! ) ! ) ! ~ ~ ~ ~ ! ) ! ) ~ ~ ~ ~ ) ! ! ! ~ ) ! ) ~ ~ ~ ~ ~ ~ ( v > . 2           ",
"            % X i _ ! ) ) ! ! ! ) ! ! ! ! ! ! ) ! ! ! ! ! ! ! ! ! ! ! ! ) ! ! ! ! ! ! ! ) ! ! ! ~ ~ A 8 . ,             ",
"            5 X @ g Q ! ! ! ! ! ! ! ! ! ! ! ! ! ! ! ! ! ! ! ! W ! ! ! ! ! ! ! ! ! ! ! ! ! ! ! ! W _ i . O               ",
"              % . : v ~ W W W W W W W W W W W W W W W W W W W W ~ W W W W W W W W W W W W W W ! D i O X 2               ",
"                , . : v E E W ~ W W W W W W W W W W W W W W W W W W W W W W W W W W W W W W Q S i X O 5                 ",
"                  & . @ g F Q Q W W E E E W W W W W E W E E W W W W E W E W E W W E E W W E A i X X 2                   ",
"                    - . . i A Q E G E E E R R G R R R R E E E G G R E R E R G E R R E E E b 8 . X 5                     ",
"                      - O . 6 b F E R E R R R R R R R R R R G E R R R R R R R R E R R S g > . # 2                       ",
"                        2 . . @ i N R E G G R R R R R R R R R E R R R R R R R G E S v 8 O . -                           ",
"                            , . . > i N F G G G G G G G G G G G G G G G G G R A v y @ . O 2                             ",
"                              2 - . . @ 8 g N S F G G G G G G E G G G F A b a 6 @ . O <                                 ",
"                                  < % . . . : 6 i g v b N N N N b v f y 6 @ . . $ :                                     ",
"                                        = % O . . . X @ @ : : @ @ . X X . O - 5                                         ",
"                                              2 % - O % # O O % $ $ % 3 2                                               ",
"                                                                                                                        "
};
