/* XPM */
static char *to_right1712857205[] = {
/* columns rows colors chars-per-pixel */
"60 60 128 2 ",
"   c None",
".  c #000001",
"X  c #040303",
"o  c #050506",
"O  c #060607",
"+  c #0D0803",
"@  c gray3",
"#  c #090909",
"$  c #09090A",
"%  c gray4",
"&  c #0A0A0B",
"*  c #0F0E0E",
"=  c gray6",
"-  c #170F04",
";  c #100F0C",
":  c #101010",
">  c #111112",
",  c #131313",
"<  c #141415",
"1  c #151515",
"2  c gray9",
"3  c #1C1910",
"4  c #181819",
"5  c #1B1B1C",
"6  c #221906",
"7  c #2E1B04",
"8  c #261F08",
"9  c #251F13",
"0  c #3C2706",
"q  c #302710",
"w  c #242524",
"e  c gray15",
"r  c gray20",
"t  c gray22",
"y  c #492A03",
"u  c #4E3D06",
"i  c #5A3306",
"p  c #413417",
"a  c #683F05",
"s  c #594609",
"d  c #4F441F",
"f  c #7B4607",
"g  c #70570A",
"h  c #786109",
"j  c #644F20",
"k  c #7D6D22",
"l  c #8A5409",
"z  c #955506",
"x  c #A35F05",
"c  c #8B690A",
"v  c #9A710F",
"b  c #957E0D",
"n  c #B16407",
"m  c #AD7B04",
"M  c #876224",
"N  c #A97822",
"B  c #C67106",
"V  c #D17805",
"C  c #DC7A04",
"Z  c #E57E01",
"A  c #A68109",
"S  c #B28D07",
"D  c #BE9B0C",
"F  c #A68D23",
"G  c #CB8007",
"H  c #DA8405",
"J  c #C38918",
"K  c #D88E15",
"L  c #DA9716",
"P  c #E78001",
"I  c #E68301",
"U  c #E78500",
"Y  c #E98501",
"T  c #E88700",
"R  c #E98901",
"E  c #E88B00",
"W  c #E88A01",
"Q  c #E98D01",
"!  c #EA8C03",
"~  c #EA9000",
"^  c #EC9301",
"/  c #EC9600",
"(  c #EC9900",
")  c #EE9A00",
"_  c #EE9B01",
"`  c #ED9D01",
"'  c #EF9F00",
"]  c #E4960B",
"[  c #D1A108",
"{  c #D1AF10",
"}  c #D8B812",
"|  c #EFAD06",
" . c #E2AD08",
".. c #ECA908",
"X. c #F0A100",
"o. c #F1A300",
"O. c #F2A601",
"+. c #F3A900",
"@. c #F2AC00",
"#. c #F4AD00",
"$. c #F4AF00",
"%. c #EBB805",
"&. c #E2B90A",
"*. c #F4B301",
"=. c #F6B501",
"-. c #F6B700",
";. c #F2B406",
":. c #F7BA00",
">. c #F9BB02",
",. c #F9BD01",
"<. c #F5BB08",
"1. c #E9BE17",
"2. c #C5A120",
"3. c #EFC107",
"4. c #F9C000",
"5. c #FAC200",
"6. c #FBC400",
"7. c #FCC701",
"8. c #FCC900",
"9. c #FEC803",
"0. c #FDCB02",
"q. c #FCCE00",
"w. c #FECE01",
"e. c #F4C708",
"r. c #F8CE0B",
"t. c #FED000",
"y. c #FED201",
"u. c #FFD502",
/* pixels */
"                                                        t r r t t                                                       ",
"                                            t w 4 % O O X . . X O O % < w r                                             ",
"                                      t , ; X . . X + - 6 8 8 8 3 ; X . . O ; 4 r                                       ",
"                                  < , X . . - p g b D { } &.&.} { D F k d 9 O . . ; e                                   ",
"                              , % . . - u b { e.u.u.u.u.y.u.u.u.u.u.u.u.r.} F j 9 . . ; w                               ",
"                            % . . - g D e.u.u.y.y.y.y.y.y.y.y.y.y.y.y.y.y.u.u.r.{ k q . . , t                           ",
"                        , O . + s D r.u.y.y.y.y.y.y.y.y.y.y.y.y.y.y.y.y.y.y.u.y.u.y.} k 3 . O w                         ",
"                      * X . q A e.y.y.y.0.y.y.y.y.y.y.0.y.y.0.y.y.0.y.y.0.y.0.y.y.y.y.r.2.d X . 4                       ",
"                    % . . s { u.q.q.t.t.q.q.q.y.0.0.q.q.q.q.q.q.q.q.q.t.t.q.q.q.q.q.q.q.r.3.k ; . <                     ",
"                  % . + h e.0.0.8.q.q.0.q.q.q.0.q.t.q.q.q.q.y.0.y.0.0.0.q.q.q.q.q.q.q.q.0.0.r.F 3 . ,                   ",
"                % . + c e.0.0.8.0.0.0.0.8.0.8.0.q.8.0.0.0.0.3.S h h A &.q.0.0.0.0.0.0.0.0.0.0.r.F 9 . <                 ",
"              % X + c e.0.8.8.8.8.8.8.8.8.8.8.8.8.8.8.8.0.&.s + . . + u [ 8.8.8.8.8.8.8.8.q.8.0.0.F 3 . 4               ",
"              O X g 3.8.8.8.8.8.8.8.8.8.8.8.8.8.8.8.8.8.e.h . X . . . . s %.8.8.8.8.8.8.8.8.8.8.0.8.F ; X w             ",
"            % . u &.7.7.7.7.7.7.8.7.7.7.7.7.7.7.7.7.7.9.{ 9 . . . . . . - D 0.7.7.7.7.7.8.6.8.6.7.8.e.k O O t           ",
"          % . 8 [ 7.6.6.6.6.6.6.6.6.6.6.6.6.6.6.6.6.6.7.2.; . . . . . . X m 7.6.6.5.6.5.6.5.6.5.7.6.6.1.d . ,           ",
"          O + v 6.6.5.6.6.6.6.6.6.6.6.6.6.6.6.6.6.6.7.8.2.3 . . . . . X % S 7.6.6.6.6.6.6.6.6.6.6.6.5.9.2.3 . w         ",
"        % . u %.5.5.5.5.5.5.5.5.5.5.5.5.5.5.5.5.5.5.5.5.1.d . . . . . . 0  .5.5.5.4.5.5.5.5.5.5.,.5.5.[ g ; . ,         ",
"        . - S 5.4.4.4.4.,.5.5.,.5.,.4.4.4.4.4.4.4.4.4.4.5.2.q . . . . 6 S 5.,.5.5.,.4.4.,.5.5.,.6. .c 8 X %             ",
"      , . u %.,.4.4.4.4.5.,.,.5.4.4.4.4.5.,.5.,.4.4.4.4.,.<.2.j q q s D 5.,.,.5.4.4.4.4.5.,.6.%.A 0 X % ,               ",
"      @ + A 5.,.,.,.,.,.,.,.,.,.,.,.,.,.,.,.,.>.,.,.,.,.,.,.5.<. . .<.,.,.,.<.,.,.<.,.,.,.<.D s + O %                   ",
"    2 . 0  .,.:.:.:.:.:.:.:.:.:.:.:.:.:.:.:.:.:.:.:.:.>.:.:.>.:.>.>.>.:.:.:.:.:.:.:.:.>.[ g - . %                       ",
"    % . g *.>.:.:.:.:.:.>.>.:.:.:.:.:.,.:.:.:.>.:.:.:.>.:.:.:.:.:.>.:.:.:.:.:.:.:.,. .c 8 X %                           ",
"    O + m :.:.*.*.:.:.*.-.-.*.>.:.:.*.*.*.>.*.>.*.:.>.*.>.*.*.:.-.-.-.-.*.:.>.:.| A 0 X & ,                             ",
"  < . 7 [ >.*.>.*.*.:.*.-.-.*.*.*.*.*.>.:.*.*.-.*.*.-.*.*.>.*.*.=.-.-.-.*.*.;.J s + o *                                 ",
"  ; . u ..*.*.*.*.*.*.*.*.*.*.*.*.*.*.*.*.*.*.*.*.*.*.*.*.*.*.*.*.*.*.*.*.[ g - . %                                     ",
"  < . g *.*.*.*.*.*.*.*.*.*.*.*.*.*.*.*.*.*.*.*.*.*.*.*.*.*.*.*.*.*.*. .c 8 . %                                         ",
"  % X c *.#.#.*.#.*.#.*.#.#.*.#.#.#.#.*.*.#.#.#.*.#.*.#.*.#.#.*.*...A 0 . % ,                                           ",
"  & X v #.#.#.#.#.#.#.#.#.#.#.#.#.#.#.#.#.#.#.#.#.#.#.#.#.#.#.@.J s + O %                                               ",
"  O + m #.@.@.@.@.@.@.@.@.@.@.@.@.@.@.@.@.@.@.@.@.@.@.@.@.@.| c - O %                                                   ",
"  X + m #.@.+.@.+.+.+.+.+.+.+.+.+.+.+.+.+.+.+.+.+.+.+.+.+.+...d . %                                                     ",
"  O + m +.O.O.O.O.O.O.O.O.O.O.O.O.O.O.O.O.O.O.O.O.O.O.O.O.O...v 9 O ,                                                   ",
"  O + m O.O.O.O.O.O.O.O.O.O.O.O.O.O.O.O.O.O.O.O.O.O.O.O.O.O.o...J j ; O 2                                               ",
"  % X v O.O.X.o.o.o.X.X.O.X.O.X.X.o.o.o.o.o.X.X.O.X.o.o.X.O.X.O.O...N q O O ,                                           ",
"  % . l X.X.X.X.X.X.X.X.X.X.X.X.X.X.X.X.X.X.X.X.X.X.X.X.X.X.X.X.' X.+.L M 9 X ,                                         ",
"  , . a ` ' ' ' ' ' ' ' ' ' ' ' ' ' ' ' ' ' ' ' ' ' ' ' ' ' ' ' X.X.o.o.' J j * O w                                     ",
"  2 . y ] ' ( ' ' ` ` ` ` ` ` ' ` ` ` _ ' ` ` ` ` ` ` ' ` ` ` ` ` _ _ _ ' O.] N p O & r                                 ",
"    . 6 G ' _ _ _ _ _ _ _ _ _ _ _ _ _ _ _ _ _ _ _ _ _ _ _ _ _ _ _ _ _ _ _ _ ' ' L M 9 O 4                               ",
"    O + x _ _ _ _ _ _ _ _ _ _ _ _ ' _ _ _ _ / _ _ _ _ _ _ _ ( ' _ _ _ _ ( _ ( _ _ ' J j ; O w                           ",
"    % . a ] _ ( ^ ( ( ( ( ( ^ ( ( ( ( ( / _ _ _ ^ ( ( ( ( ( ( ( _ / _ ( ( ` ( ( / _ _ ] N p O & r                       ",
"    < . 7 G _ ^ ( ^ ( ^ ( ^ ( ^ ^ ( ^ ( ^ ^ / / ^ ( ^ ( ^ ^ ( ^ / / ^ ^ ^ ^ ^ ( ^ ^ / / _ K M 9 O 5                     ",
"      O X l / ^ ^ ^ ^ ^ ^ ^ ^ ^ ^ ^ ^ ^ ^ ^ ^ ^ ^ ^ ^ ^ ^ ^ ^ ^ ^ ^ ^ ^ ^ ^ ^ ^ ^ ^ ^ ^ ^ ^ ( J j * O w                 ",
"      % . 0 H ^ ^ ^ ^ ^ ^ ^ ^ ^ ^ ^ ^ ^ ^ ^ ^ ^ ^ ^ ^ ^ ^ ^ ^ ^ ^ ^ ^ ^ ^ ^ ^ ^ ^ ^ ^ ^ ^ ^ ~ Q ] N p O & r             ",
"        O + z ^ ~ ~ ~ ~ ~ ~ ~ ~ ~ ~ ^ Q ~ ~ ~ ~ ~ ~ ~ ~ ~ ~ ~ ~ ~ ~ ~ ~ ~ ~ ^ Q ~ ~ ~ ~ ~ ~ ~ ~ ~ ! L M 9 O < r         ",
"        % . 0 G ~ ~ ~ ~ ~ ~ ~ ~ ~ ~ Q ^ ~ ~ ~ ~ ~ ~ ~ ~ ~ ~ ~ ~ ~ ~ ~ ~ ~ ~ Q ^ ~ ~ ~ ~ ~ ~ ~ ! ~ ~ R ! J q . &         ",
"          O . f E Q Q Q Q Q Q Q Q Q Q Q Q Q Q Q Q Q Q Q Q Q Q Q Q Q Q Q Q Q Q Q Q Q Q Q Q Q Q Q Q Q Q ~ n - . <         ",
"          * . - x ! Q ! Q E E E W W W Q W Q W W W W W Q W W W Q W Q W W W W Q W Q W W Q Q Q E E W W Q V 0 . %           ",
"            & . 0 B R R W E E E W W W W W W W W W W W W W W W W W W W W W W W W W W W W W W E E W W I s O O             ",
"              o X i V R R W U E R R R R W W W Y W W W W W W Y W W W W W R W W Y W W Y W W W W Y R W f + . *             ",
"              , X X i V W Y Y E U Y U E U Y E U U E U Y E U Y E Y Y U E U Y E U Y Y E U Y E Y W U l + . *               ",
"                2 . X i V Y U U U U U U U U U U U U U U U U U U Y Y U U U U U U U U U U U U Y U l - . %                 ",
"                  ; X X y B Y U U U U U U U U U U U Y Y U U U U U U U U U U U U U U U Y U Y H f + . %                   ",
"                    2 . . 0 x Z U I I I I I I I I U U P I I I I U I I I I I I I I I I I Y B i . . %                     ",
"                      , O . - f V P P P I P P P P P P P P P P Z P P P P Z P P P Z I Y C z 7 . . *                       ",
"                          % . O 0 z V P Z P P P P P P P P P P Z P P P P P P P P I Z n i + . O ,                         ",
"                            * O . + y z B Z P Z Z Z Z Z Z Z Z Z Z Z Z Z Z P P C n i - . . +                             ",
"                                , X . + 7 a x B C Z P P P P I Z P P P Z V n f 0 + . . & ,                               ",
"                                    , O . . + 7 y a l x n n n n x z f i 7 - X . . % ,                                   ",
"                                        2 % O . . . X + + - - + + X . . . X % ,                                         ",
"                                              , * % % O O O O O O % % % <                                               ",
"                                                                                                                        "
};
