/* XPM */
static char *to_up1712857205[] = {
/* columns rows colors chars-per-pixel */
"60 60 137 2 ",
"   c None",
".  c #000001",
"X  c #030203",
"o  c #040406",
"O  c #040506",
"+  c #050507",
"@  c #060507",
"#  c #070707",
"$  c #0D0803",
"%  c #080809",
"&  c gray4",
"*  c #0C0B0C",
"=  c #0C0C0D",
"-  c #0E0E0F",
";  c #120B04",
":  c #161108",
">  c #1C190F",
",  c #111112",
"<  c #131313",
"1  c #141313",
"2  c #161615",
"3  c #151616",
"4  c #19191A",
"5  c #1E1E1E",
"6  c #261704",
"7  c #2C1E05",
"8  c #241F11",
"9  c #3C2304",
"0  c #3F2F08",
"q  c #302712",
"w  c #242525",
"e  c #252525",
"r  c #272727",
"t  c gray20",
"y  c gray22",
"u  c #4F2D03",
"i  c #4E3D06",
"p  c #5B3307",
"a  c #42331B",
"s  c #5B4208",
"d  c #4F431C",
"f  c #5F4F12",
"g  c #6D4004",
"h  c #7C4608",
"j  c #725608",
"k  c #6B5911",
"l  c #786109",
"z  c #504623",
"x  c #634B22",
"c  c #7D6D22",
"v  c #895609",
"b  c #935106",
"n  c #965A07",
"m  c #A45F06",
"M  c #856B0A",
"N  c #8F680A",
"B  c #977912",
"V  c #B26305",
"C  c #A37204",
"Z  c #A9721C",
"A  c #876224",
"S  c #CA7605",
"D  c #D77804",
"F  c #E47E02",
"G  c #A78008",
"H  c #B08306",
"J  c #B99409",
"K  c #A48124",
"L  c #AA9121",
"P  c #C28909",
"I  c #D78306",
"U  c #C2831E",
"Y  c #C68E1D",
"T  c #D99215",
"R  c #E78001",
"E  c #E68301",
"W  c #E78500",
"Q  c #E88700",
"!  c #E98901",
"~  c #E88B00",
"^  c #E88A01",
"/  c #E98D01",
"(  c #EA9000",
")  c #EC9301",
"_  c #EC9600",
"`  c #ED9A00",
"'  c #EE9B01",
"]  c #ED9D01",
"[  c #EF9F00",
"{  c #E49509",
"}  c #E89F0F",
"|  c #C1A20E",
" . c #D1A108",
".. c #DAB90F",
"X. c #D0AE12",
"o. c #EAAC04",
"O. c #EEA70B",
"+. c #E1A808",
"@. c #F0A100",
"#. c #F1A300",
"$. c #F1A501",
"%. c #F3A601",
"&. c #F3A900",
"*. c #F2AC00",
"=. c #F4AD00",
"-. c #F4AF00",
";. c #ECB006",
":. c #EBB805",
">. c #E3B009",
",. c #E4B809",
"<. c #F3B201",
"1. c #F5B301",
"2. c #F6B501",
"3. c #F6B700",
"4. c #F6B403",
"5. c #F7BA00",
"6. c #F9BB02",
"7. c #F9BD01",
"8. c #F8BF00",
"9. c #F5BB08",
"0. c #E9BE17",
"q. c #C3A021",
"w. c #EFC107",
"e. c #FAC001",
"r. c #FAC200",
"t. c #FBC400",
"y. c #FCC701",
"u. c #FBC900",
"i. c #FDC900",
"p. c #FDCB01",
"a. c #FDCE00",
"s. c #F5C609",
"d. c #F2CB08",
"f. c #FACD0B",
"g. c #FED000",
"h. c #FED201",
"j. c #FFD502",
/* pixels */
"                                                                                                                        ",
"                                                                                                                        ",
"                                                                                                                        ",
"                                                                                                                        ",
"                              w =                                                   t - 2                               ",
"                          y - . X                                                   , . . =                             ",
"                        w # . > ; =                                               t @ q : . @ <                         ",
"                      4 X # z q.k X 1                                             = 8 U Z 9 . X =                       ",
"                    , . : c 0.y. .7 +                                           r % A ( / I s $ . =                     ",
"                  , . > K s.t.t.t.N O +                                         + 0 T ( / / I h ; . =                   ",
"                , . 8 L f.u.t.t.r.>.u O                                       4 - Z ) ) / ( ( E v ; . =                 ",
"              4 . > L f.u.y.t.t.r.r.G $ %                                   t @ x { / ) ^ ^ ^ ! W v $ . =               ",
"            w . : K f.p.u.y.t.t.r.r.:.s X                                   = 8 U ) ) / ( ^ ^ W Q E h @ . 2             ",
"          y @ @ c f.p.u.u.y.t.t.r.e.r.J : %                               w @ A ) ) / ) ^ ^ ^ ^ Q W I p . @             ",
"          , . d 0.a.p.u.u.y.t.t.e.e.e.9.j X 1                             @ a T ) ) ) / / ( ^ ! Q W Q S 7 . =           ",
"        w . > q.g.a.p.u.u.y.t.t.r.e.e.e. .7 @                           4 : Z ' ) _ / ) / ^ ^ ! Q W E W n $ .           ",
"        # . c f.a.a.p.u.u.t.t.t.r.e.e.8.6.N . +                       t @ x { _ ) ) / / / ( ^ ! Q E Q E F p . %         ",
"      w X q ..j.a.a.p.u.u.p.t.t.r.e.e.5.6.+.u O                       - 8 U ' _ ) ) / ) / ^ ^ W Q Q E E Q V : . 1       ",
"      % X c g.g.a.a.p.u.u.y.t.t.r.e.e.8.5.6.G $ -                   w @ A ] ' _ ) ) ) / / ^ ^ ! Q Q E E R F p . %       ",
"    t . 8 X.g.g.a.a.p.u.u.y.t.t.r.5.8.8.6.6.;.p O                   % a T [ ' _ ) ) ( ) / ^ ^ ! Q E Q W R R m ; .       ",
"    4 . f f.g.g.a.a.p.u.u.t.t.t.r.e.e.5.5.5.5.J : %               = : K @.` ` _ ) ) ( ( ( ^ ^ ^ Q E Q E R R D 9 . *     ",
"    % @ L j.j.g.a.a.u.u.p.p.p.t.r.e.e.5.5.5.5.<.j . <           , @ x } ` ` ` _ ) ) ( ( ( ^ ^ ^ Q Q E E R R R h @ @     ",
"  t X 8 ..j.g.g.a.a.p.p.:.J G J ..5.e.e.5.5.5.5. .7 @           , 8 Y [ ' ` ` _ ) ) ( ( ^ ^ ^ ^ Q E Q E R R R V ; .     ",
"  r . d d.j.g.g.a.a.a. .s : # $ u G e.5.5.5.5.<.4.N @ #       2 @ A [ ] ' ` ` _ ) ) ( ( ( ^ ^ W Q Q E E R F E D 9 . <   ",
"  , . c j.j.g.g.a.a.,.s X . . . . 6 J e.5.5.5.4.4.+.0 @       % a T @.] ` ` ` _ ) ) ( ( ^ ( ^ ! Q Q E E F R F F p . *   ",
"  - @ L j.g.j.g.a.a.C $ . . . . . X s 9.5.5.4.4.4.4.G $ %   = : K #.[ ] ` ` ` _ ) ) ( ( ( ^ ^ ! Q E Q E R R F R h . %   ",
"  % ; | j.j.g.g.a.a.l . . . . . . . q >.6.5.5.4.1.1.o.s @ = @ x } @.[ ] ` ` ` _ ) ) ( ( ^ ^ ^ ! Q E Q E R R F R b . @   ",
"y X > X.j.g.j.g.a.a.l . . . . . . X q >.6.5.5.4.1.<.1.P : . 8 Y #.@.[ ] ` ` ` _ ) ) ) / ( ^ ^ ! Q Q E E R R F R m $ O   ",
"y X 8 ..j.j.h.a.a.a.J $ . . . . . . k 9.5.5.5.4.1.<.<.&.N d B O.#.@.@.] ` ` ` _ ) ) ( ( / ^ ^ ! Q W Q E R R F R V ; %   ",
"t X 8 ..j.g.g.a.a.a.s.f . . . . . q q.e.5.5.4.4.1.<.-.-.*.O.O.$.#.@.[ ] ` ` ` _ ) ) ( ( ^ ( ^ ! Q W W E R R F R V ; @   ",
"t X 8 ..j.g.j.a.a.a.a.,.l 8 : > z q.e.6.5.5.5.4.1.<.-.-.*.&.$.$.@.@.[ ] ` ` ` _ ) ) ( ( / ^ ! ! Q W Q E R R F R V ; @   ",
"y X > ..j.j.g.g.a.a.a.a.s.X.q.X.0.t.e.6.5.5.4.4.1.<.-.-.*.&.$.$.@.@.[ ] ` ` ` _ ) ) ( ( / ^ ^ ! Q W R Q R R F R V ; @   ",
"  @ : X.j.j.h.a.a.a.p.u.u.u.y.e.r.e.e.8.5.5.<.4.4.<.<.-.*.&.%.$.$.#.[ ' ` ` ` _ ) ) ( ( ( ^ ^ ^ Q W W E F R F R m $ @   ",
"  % $ J j.g.h.a.a.a.p.u.u.y.t.t.r.e.e.8.5.5.5.5.<.<.-.-.*.&.%.$.#.#.[ [ ` ` ` _ ) ) ( ( ^ ^ ^ ^ Q W W E R R F R b X @   ",
"  - X B j.j.g.g.a.a.a.u.u.t.t.t.r.e.e.5.5.5.<.<.1.<.-.-.*.&.%.$.@.@.[ ' ` ` ` _ ) ) / ( / ^ ^ ^ Q W W E R R F F g . =   ",
"  4 X k j.g.j.g.a.a.p.u.u.p.t.t.r.e.e.e.5.5.5.<.1.<.-.&.*.&.%.$.#.@.[ ] ` ` ` _ ) ) ) ( / ^ ^ ! Q W W E R R R D u . =   ",
"  w . 0 d.g.j.g.a.a.p.u.u.y.t.t.r.e.e.5.5.5.5.4.1.<.-.-.&.&.%.$.#.@.[ ] ` ` ` _ ) ) ( ( / ^ ^ ! Q W W E R R R S 6 . 1   ",
"  y X : X.j.g.g.a.a.p.u.u.y.t.t.r.e.e.5.5.5.5.4.1.<.-.&.*.&.%.$.#.@.[ ] ` ` ` _ ) ) ( ( / ^ ^ ! Q W W E R R F m $ @     ",
"    % . B j.g.g.a.a.p.u.u.y.t.t.r.e.e.6.5.5.5.<.1.<.-.-.*.&.$.$.#.@.[ ] ` ` ` _ ) ) ( ( ( ^ ^ ! Q W Q W R R F g . %     ",
"    5 . i d.j.g.a.a.p.u.u.y.t.t.e.e.e.5.5.5.5.4.1.<.-.-.*.&.%.$.#.@.[ [ ` ` ` _ ) ) ) / ^ ( ^ ! Q W W R R R S 7 . 2     ",
"    y X ; | j.g.a.a.p.u.u.y.t.t.r.e.e.8.5.5.4.4.1.1.-.&.*.&.%.$.@.@.[ ] ` ` ` _ ) ) ( ( ( ^ ^ ^ Q W W E E F b $ %       ",
"      , . k f.g.a.a.p.u.u.y.t.t.r.e.e.8.5.5.5.4.1.1.-.-.*.&.%.$.#.@.[ ] ` ` ` _ ) ) ( ( ^ ^ ^ ^ Q W W E R D 9 . =       ",
"      , O : | g.a.a.p.u.u.y.t.t.e.e.e.e.5.5.:.4.1.<.-.-.*.&.%.$.#.@.[ ] ` ` ` _ ) ) ( ( / ^ ^ ^ Q W W E R b $ X         ",
"        @ . f d.a.p.p.u.u.y.t.t.e.e.e.5.5.5.4.4.1.<.-.-.*.&.%.$.#.@.[ ` ` ` ` _ ) ) ( ( / ^ ^ Q Q W E W S 9 . =         ",
"        2 . $ G j.p.p.u.u.y.t.t.r.e.e.e.5.5.4.5.1.<.-.-.*.&.%.$.#.@.@.] ` ` ` _ ) ) ( ( / ( ^ W Q W W F h @ @           ",
"          = . 7 X.a.p.u.u.y.t.t.e.e.e.5.5.5.5.4.1.<.-.&.*.&.%.$.#.@.[ ] ` ` ` _ ) ) ( ( / ^ ^ ! Q W W m : . 2           ",
"            @ . s w.a.u.u.y.t.t.t.e.e.6.5.5.4.4.1.<.-.-.*.&.%.$.@.@.[ ] ` ` ` _ ) ) ) ( ^ ( ^ ! Q Q S 9 . ,             ",
"            , X X l s.p.u.y.t.t.e.e.e.6.5.5.4.1.1.<.-.-.*.&.%.$.#.@.[ ] ` ` ` _ ) ) / ) / ^ ^ ! ! S u X %               ",
"              % X $ M s.p.y.t.t.e.6.e.5.5.5.5.<.1.<.-.&.*.&.%.$.#.@.[ ] ` ` ` _ ) ) ( ( ^ ^ ^ ! D p X X <               ",
"                % @ $ M w.y.y.e.t.e.e.e.5.5.5.4.1.<.-.-.*.&.%.$.#.@.[ ] ` ` ` _ ) ) ( ( ( ^ ! S p @ X 2                 ",
"                  % X $ j ,.p.t.e.e.e.6.5.5.5.<.1.<.-.&.*.&.$.$.#.@.@.] ` ` ` _ ) ) / ) ( ^ S u X . 2                   ",
"                    * . . i  .t.t.e.e.5.5.5.5.4.1.1.-.-.*.&.%.$.#.@.[ ] ` ` ` _ ) ) ) / ^ m 9 . X 2                     ",
"                      2 @ . 7 B :.t.e.e.5.5.5.4.1.<.-.-.*.&.%.$.@.@.[ ] ` ` ` _ ) ) ) S h : . % <                       ",
"                          @ . $ i H :.t.5.5.5.4.1.<.-.&.*.&.%.$.#.@.[ ] ` ' ` ` _ I n 9 @ . ,                           ",
"                            = @ . ; i C  .5.5.4.1.<.-.-.*.&.$.$.#.@.[ [ [ ' { S v 9 $ . O 2                             ",
"                                = X . $ u j H  .o.1.1.-.-.-.&.$.$.#.] { P m g 7 @ . @ =                                 ",
"                                    = @ . . $ 7 i j N C G H H C N v g 0 6 $ . . % %                                     ",
"                                        2 % % X . . X X $ $ $ $ O . . . . @ = 2                                         ",
"                                              1 2 = , - @ O O @ = % = 2                                                 ",
"                                                                                                                        "
};
