/* XPM */
static char *e7dfe9d79d35489994ad4c0649aa6ff5V6219rCHupOvBgeL[] = {
/* columns rows colors chars-per-pixel */
"60 60 151 2 ",
"   c #020104",
".  c #020802",
"X  c #02010B",
"o  c #020808",
"O  c #010113",
"+  c #01011C",
"@  c #000124",
"#  c #01012B",
"$  c #010133",
"%  c #02013B",
"&  c #030243",
"*  c #04024B",
"=  c #09054D",
"-  c #07084B",
";  c #0B0A4D",
":  c #050453",
">  c #080552",
",  c #060855",
"<  c #0C0A55",
"1  c #06035B",
"2  c #09025C",
"3  c #07095B",
"4  c #0D0A5C",
"5  c #110E5E",
"6  c #040264",
"7  c #0A0463",
"8  c #070862",
"9  c #0B0A64",
"0  c #06036A",
"q  c #0B036B",
"w  c #0D0B6B",
"e  c #110D64",
"r  c #110D6C",
"t  c #0F1062",
"y  c #0F116D",
"u  c #141265",
"i  c #13126C",
"p  c #010475",
"a  c #0C0473",
"s  c #070975",
"d  c #0C0C73",
"f  c #05027D",
"g  c #0C0579",
"h  c #070978",
"j  c #0E0B7B",
"k  c #110D73",
"l  c #10067B",
"z  c #120B7B",
"x  c #0E1073",
"c  c #0E1178",
"v  c #131174",
"b  c #13117C",
"n  c #18137B",
"m  c #050384",
"M  c #0A0483",
"N  c #0D0C84",
"B  c #05068A",
"V  c #0A048C",
"C  c #06098A",
"Z  c #0E0C8B",
"A  c #0D0D8A",
"S  c #0B0A8C",
"D  c #0B098E",
"F  c #0A088F",
"G  c #0D0A8D",
"H  c #0E0B8C",
"J  c #0D0C8C",
"K  c #0F0C8F",
"L  c #090989",
"P  c #110583",
"I  c #120980",
"U  c #100B81",
"Y  c #110E81",
"T  c #100D82",
"R  c #140F83",
"E  c #120986",
"W  c #130986",
"Q  c #130984",
"!  c #100C85",
"~  c #110D85",
"^  c #130F87",
"/  c #160E85",
"(  c #160E87",
")  c #130A85",
"_  c #100689",
"`  c #10068D",
"'  c #14068C",
"]  c #100B89",
"[  c #12098A",
"{  c #100B8B",
"}  c #100E89",
"|  c #130F88",
" . c #140E88",
".. c #170D8A",
"X. c #140E8A",
"o. c #170D88",
"O. c #100B8C",
"+. c #110A8E",
"@. c #13098E",
"#. c #100E8D",
"$. c #160D8C",
"%. c #160D8E",
"&. c #160C8F",
"*. c #150B8D",
"=. c #0F1188",
"-. c #131081",
";. c #101281",
":. c #111181",
">. c #141081",
",. c #111087",
"<. c #101187",
"1. c #101088",
"2. c #040091",
"3. c #040291",
"4. c #070292",
"5. c #050392",
"6. c #070491",
"7. c #060591",
"8. c #070690",
"9. c #070692",
"0. c #0B0091",
"q. c #0B0291",
"w. c #0B0093",
"e. c #0D0191",
"r. c #0F0393",
"t. c #090492",
"y. c #0B0792",
"u. c #0F0491",
"i. c #0D0195",
"p. c #0E0294",
"a. c #0F0395",
"s. c #0D0096",
"d. c #0F0397",
"f. c #0A0890",
"g. c #0C0890",
"h. c #0E0B90",
"j. c #0D0992",
"k. c #0F0C91",
"l. c #110691",
"z. c #110693",
"x. c #140795",
"c. c #140592",
"v. c #130892",
"b. c #130893",
"n. c #120990",
"m. c #170B92",
"M. c #160C93",
"N. c #190D94",
"B. c #150799",
"V. c #170A9A",
"C. c #180B9C",
/* pixels */
"p p p p h h h h g g M M V V 0.0.p.p.p.e.0.V V V B B B B B B B B B B B B B B B B m B B B 8.8.5.5.5.5.V H N h 0 6 1 : * * ",
"p p p p s h h h j j M M V V e.p.p.p.e.u.V V V V B L L L L C C C B B B B B B B B B B B B V 8.8.8.5.t.h.H ^ j w 6 3 : * * ",
"p p p s h j j j z j N N _ ` l.l.x.x.n.n.n.@.@.[ Z Z Z Z Z Z Z Z L L L L N N N N N N L S S S S f.t.h.k.#.^ j d 8 1 : * * ",
"p p p s h c v v b z z I W [ @.n.M.m.%.%.%.....| ^ ,.,.,.1.=.=.=.Z Z N N N N N N N N N N Z Z Z J h.J #.| Y z d w 8 3 : * ",
"s s s h x v v v k k k z z I W W ......( ( R >.-.-.-.-.b -.-.-.-.j j j j j j j j j j j N N N N ^ [ [ ^ Y z k k r 9 1 : : ",
"h h h d x y y y 9 w w w w a g g z z z z z k k k k d d x d d d d d d d d d w w w w d d d d h d j j j h h j d d r w 8 1 : ",
"d h d w w 9 9 3 3 3 2 2 7 7 q q w w q q 7 7 8 8 8 8 8 8 8 8 8 8 8 8 8 8 8 8 3 3 8 8 8 8 8 8 8 w q q 0 0 q w w r r 9 1 1 ",
"d d w 9 9 3 , : : > > : : : 2 2 2 2 1 1 : , : : : : : : , , , , , , , , , , : : : : : : , , 1 3 7 6 6 1 6 7 w r r w 7 6 ",
"w w 9 8 3 : * & & & & & & * * * * * * * * * & & & & & & & * * * * * & & & & & & & & & & & & & * : : : : 1 1 8 w r r w q ",
"w w 9 3 , * & % % % % % % % & & & & % % % % % % % % % % % % % % % % % % % $ $ $ $ $ $ $ % % % % & * * * * : 2 8 r w w q ",
"w 9 3 , * & % % $ $ $ $ $ $ $ $ $ $ $ $ $ # # # # # # # # $ $ $ $ # # # # # # # # # # # # # # $ $ % % & & * : 2 w w w w ",
"i 9 3 * & % $ $ # # @ @ @ @ # # # # @ @ @ @ @ @ @ @ @ @ @ @ @ @ @ @ @ @ @ + + + + + + + + @ @ @ # $ $ % & & : 1 9 w d k ",
"u 4 , * & % $ # @ @ + + + + @ + @ @ @ + + + + + + + + + + + @ @ + + + + + O O O O O O O O O O + @ @ # $ % & * 1 7 w k k ",
"u 4 , * % $ # # @ + + O O O + + + + O O O O O O O O O O + + + + + O O O O O O X X X X X X X X O + + @ # $ & * : 7 w k z ",
"e 4 , & % $ # @ + O O O O O O O O O O O O X X X X X O O O O O O O O O O X X X X X   X X     X X O + @ # $ % & : 2 w k n ",
"e 4 , & % $ # @ + O O X X X X X X X X X X X X X X X X X X O O O O X X X X X                     X O + @ # % & * 2 r n n ",
"5 < = & % # @ + O O X X X   X   X X X X             X X X X X X X X X X X X                       X O + # $ & : 9 r v n ",
"5 < = & $ # @ + O X X X           X                     X X X X X X X X X                         X O + @ $ & : 9 r v n ",
"5 < = & $ # @ + O X X X                                     X X X X X X                           X O + @ $ & * 9 r k n ",
"e < > & % # @ + O X X                                       X X X X X X X X                       X O + @ $ & * 4 e v v ",
"e < > & % # @ + O X X                                           X X X X X X X X                     X O @ $ % * < e i v ",
"e 4 > & % # @ + O X X   . .                                     X X X X                             X O @ # % & < 9 i v ",
"e 4 > & % # @ + X X     . .       X                               X                                 X O @ # % & , 4 i i ",
"e 4 > & % # @ O X X   . . .       X X                                                               X O + # $ & , 4 u i ",
"e 9 > & % # @ + X     . . .                                                                       X X O + @ $ % , 4 u u ",
"e 9 > & % # + O X X   . . .       X X X                                                           X X O + @ $ % ; 5 u u ",
"e 4 > & $ @ + O X     . . .     X X X X X                                                         X X O + @ $ % ; 5 u u ",
"e 4 > & $ @ + O X     . .       X X X X X                                                       X X X O + @ $ % ; < u u ",
"e 4 > & $ @ + O       .       X X O X X X X X                                                 X   X X O + @ $ % ; < u u ",
"e 4 = % $ @ + O           X X X X O O X X X X                                               X X X X X O + @ $ % ; < u u ",
"e < = % $ @ + O           X X X O O O O O X X               X                               X X X X O O + @ $ % ; < u u ",
"e < = % # @ + O         X X X X X O O O O X X               X                               X X X X O O + @ $ % ; 5 u u ",
"5 < - % # @ + O X       X X X X O O O O X X X                                                   X X O + @ # $ % ; 4 u u ",
"5 < - % # @ + O o     X X X X X O O O X X X X                                                   X O O + @ # $ & ; 4 u u ",
"e < - % # @ + X o       X O O O O O O X X X X                                                   X X O + @ # % & < 5 u i ",
"e 4 * % # @ O o o . .   X O O O O O X X X X                                                     X X O + @ # % & < 5 u i ",
"r 4 * % # @ O X . . .   X O O O O X X X X X                                                     X X O + @ # % & < 9 i v ",
"r 7 : % # + O o . . .   X O O O O X X X X                                                     X X X O + @ # % & < 9 r v ",
"r 7 : & # + O o . . .   X O O O X X X X                           X X X X X X X     X X X X X X X X O + @ $ % * < 9 k v ",
"r 7 : & # + O o . . .   X O O O X X X                             X X X X X X X X X X X X X X   X X O + @ $ % * 4 9 k v ",
"k 9 , & # @ O   . . . . X O O O X                                                                 X O + @ $ & * 3 w k v ",
"k 9 : & $ @ O X . . . . X O O O X                                                                 X X O @ $ & * 3 w v b ",
"r 9 , & $ @ O X   . .   X X O X                                                                     X + @ $ & * 3 w k v ",
"r 9 : & $ @ + O X       X X X X                                                                 . X O + @ $ & * 3 w k v ",
"e 4 : & $ # + O X X     X X X X                                                                   X O + @ $ & * 3 w k v ",
"e 4 * & $ # @ + O X X   X X X                                           .         . .             X O + @ $ & * 3 w v v ",
"e < * & % # @ + O X X                                                                             X O + @ $ & * 3 9 i v ",
"e < * & % # @ + O O X X X X                                                                     X X O + # $ & * 3 9 i v ",
"4 < ; & $ # @ + O O X X X X X X X X X X                     X X X X X X X X X X X X X X X X X X X O O + # % & , 4 u i v ",
"5 < ; & % $ @ @ + O O O O O O O O O O O X X X X X X X X X X X O O O O O O O O O O O O O O O O O O + + @ $ % - , 4 e i i ",
"t 4 , * & $ $ # @ + + + + + + + + + @ + + + O O O O O O O O O + + + + + + + + + + + + + + + + + @ @ @ # $ & - , 4 e i i ",
"i 9 4 > - & % $ # # # # # # # # # # # # # # @ @ @ @ @ @ @ @ @ @ @ # # # # # # # # # # # # # # # # # $ $ % & : 3 9 9 w r ",
"w w 8 3 , * * & % % % % % % % % % % % % % % $ $ $ $ $ $ $ $ $ $ % % % % % % % % % % % % % % % % % % % & * * , 2 9 w w w ",
"d w w 8 7 1 1 : * * * * * * * * * : : > * * * & & & & & & & & & * * * * * * * * * * * * * * * * * * * * : 1 7 8 w q q q ",
"a h a a q q 7 7 7 7 2 2 2 2 2 2 7 7 7 7 7 2 2 1 1 1 1 1 1 1 1 1 1 1 1 1 1 1 2 2 2 2 2 2 2 2 2 2 2 1 1 2 2 7 9 w w q 0 0 ",
"g g g g g a g a q q q q q q q q a a a a a a q q q q q q q q q q q q q q q q q q q q q q q q q q q q q q q w d k w q 0 0 ",
"f f f M N W W I I I l l l l l l P P P P P I I I I l l j j j j j j j g g j j l l l l l l l l l l l g g z z z j d q q 0 6 ",
"m m m M [ @.@.@.@.@.@.[ W W W _ ` l.c.c.c.` ` ` @.@.[ [ W W W W ( ( ) ) [ ( [ ) W W ) ) ) ) ) ) W W I I I z z j a q 0 6 ",
"m m M V n.M.M.M.C.V.N.m.m.@.@.' x.B.B.B.V.B.B.V.M.M.M.M.%.%.%.%.%.%.M.%.M.%.M.%.%.%.%.%.%.%.%.%.m.@.@.[ ) Q z z a q 6 6 ",
"f m V V b.N.C.C.V.V.V.M.M.m.@.m.V.C.C.C.C.C.C.C.V.M.V.M.M.M.M.%.M.M.M.M.M.M.M.M.N.N.N.N.N.N.N.N.N.m.m.@...) z j a q 6 6 "
};
